G04 #@! TF.GenerationSoftware,KiCad,Pcbnew,(5.1.5-0-10_14)*
G04 #@! TF.CreationDate,2020-05-14T12:08:37+02:00*
G04 #@! TF.ProjectId,usbasp,75736261-7370-42e6-9b69-6361645f7063,rev?*
G04 #@! TF.SameCoordinates,Original*
G04 #@! TF.FileFunction,Legend,Top*
G04 #@! TF.FilePolarity,Positive*
%FSLAX46Y46*%
G04 Gerber Fmt 4.6, Leading zero omitted, Abs format (unit mm)*
G04 Created by KiCad (PCBNEW (5.1.5-0-10_14)) date 2020-05-14 12:08:37*
%MOMM*%
%LPD*%
G04 APERTURE LIST*
%ADD10C,0.300000*%
%ADD11C,0.150000*%
%ADD12C,0.120000*%
G04 APERTURE END LIST*
D10*
X123111428Y-43842952D02*
X123111428Y-45866761D01*
X123230476Y-46104857D01*
X123349523Y-46223904D01*
X123587619Y-46342952D01*
X124063809Y-46342952D01*
X124301904Y-46223904D01*
X124420952Y-46104857D01*
X124540000Y-45866761D01*
X124540000Y-43842952D01*
X125611428Y-46223904D02*
X125968571Y-46342952D01*
X126563809Y-46342952D01*
X126801904Y-46223904D01*
X126920952Y-46104857D01*
X127040000Y-45866761D01*
X127040000Y-45628666D01*
X126920952Y-45390571D01*
X126801904Y-45271523D01*
X126563809Y-45152476D01*
X126087619Y-45033428D01*
X125849523Y-44914380D01*
X125730476Y-44795333D01*
X125611428Y-44557238D01*
X125611428Y-44319142D01*
X125730476Y-44081047D01*
X125849523Y-43962000D01*
X126087619Y-43842952D01*
X126682857Y-43842952D01*
X127040000Y-43962000D01*
X128944761Y-45033428D02*
X129301904Y-45152476D01*
X129420952Y-45271523D01*
X129540000Y-45509619D01*
X129540000Y-45866761D01*
X129420952Y-46104857D01*
X129301904Y-46223904D01*
X129063809Y-46342952D01*
X128111428Y-46342952D01*
X128111428Y-43842952D01*
X128944761Y-43842952D01*
X129182857Y-43962000D01*
X129301904Y-44081047D01*
X129420952Y-44319142D01*
X129420952Y-44557238D01*
X129301904Y-44795333D01*
X129182857Y-44914380D01*
X128944761Y-45033428D01*
X128111428Y-45033428D01*
X131682857Y-46342952D02*
X131682857Y-45033428D01*
X131563809Y-44795333D01*
X131325714Y-44676285D01*
X130849523Y-44676285D01*
X130611428Y-44795333D01*
X131682857Y-46223904D02*
X131444761Y-46342952D01*
X130849523Y-46342952D01*
X130611428Y-46223904D01*
X130492380Y-45985809D01*
X130492380Y-45747714D01*
X130611428Y-45509619D01*
X130849523Y-45390571D01*
X131444761Y-45390571D01*
X131682857Y-45271523D01*
X132754285Y-46223904D02*
X132992380Y-46342952D01*
X133468571Y-46342952D01*
X133706666Y-46223904D01*
X133825714Y-45985809D01*
X133825714Y-45866761D01*
X133706666Y-45628666D01*
X133468571Y-45509619D01*
X133111428Y-45509619D01*
X132873333Y-45390571D01*
X132754285Y-45152476D01*
X132754285Y-45033428D01*
X132873333Y-44795333D01*
X133111428Y-44676285D01*
X133468571Y-44676285D01*
X133706666Y-44795333D01*
X134897142Y-44676285D02*
X134897142Y-47176285D01*
X134897142Y-44795333D02*
X135135238Y-44676285D01*
X135611428Y-44676285D01*
X135849523Y-44795333D01*
X135968571Y-44914380D01*
X136087619Y-45152476D01*
X136087619Y-45866761D01*
X135968571Y-46104857D01*
X135849523Y-46223904D01*
X135611428Y-46342952D01*
X135135238Y-46342952D01*
X134897142Y-46223904D01*
D11*
X107641523Y-37409333D02*
X107593904Y-37361714D01*
X107498666Y-37218857D01*
X107451047Y-37123619D01*
X107403428Y-36980761D01*
X107355809Y-36742666D01*
X107355809Y-36552190D01*
X107403428Y-36314095D01*
X107451047Y-36171238D01*
X107498666Y-36076000D01*
X107593904Y-35933142D01*
X107641523Y-35885523D01*
X108451047Y-36980761D02*
X108355809Y-37028380D01*
X108165333Y-37028380D01*
X108070095Y-36980761D01*
X108022476Y-36933142D01*
X107974857Y-36837904D01*
X107974857Y-36552190D01*
X108022476Y-36456952D01*
X108070095Y-36409333D01*
X108165333Y-36361714D01*
X108355809Y-36361714D01*
X108451047Y-36409333D01*
X108784380Y-37409333D02*
X108832000Y-37361714D01*
X108927238Y-37218857D01*
X108974857Y-37123619D01*
X109022476Y-36980761D01*
X109070095Y-36742666D01*
X109070095Y-36552190D01*
X109022476Y-36314095D01*
X108974857Y-36171238D01*
X108927238Y-36076000D01*
X108832000Y-35933142D01*
X108784380Y-35885523D01*
X109498666Y-36123619D02*
X109546285Y-36076000D01*
X109641523Y-36028380D01*
X109879619Y-36028380D01*
X109974857Y-36076000D01*
X110022476Y-36123619D01*
X110070095Y-36218857D01*
X110070095Y-36314095D01*
X110022476Y-36456952D01*
X109451047Y-37028380D01*
X110070095Y-37028380D01*
X110689142Y-36028380D02*
X110784380Y-36028380D01*
X110879619Y-36076000D01*
X110927238Y-36123619D01*
X110974857Y-36218857D01*
X111022476Y-36409333D01*
X111022476Y-36647428D01*
X110974857Y-36837904D01*
X110927238Y-36933142D01*
X110879619Y-36980761D01*
X110784380Y-37028380D01*
X110689142Y-37028380D01*
X110593904Y-36980761D01*
X110546285Y-36933142D01*
X110498666Y-36837904D01*
X110451047Y-36647428D01*
X110451047Y-36409333D01*
X110498666Y-36218857D01*
X110546285Y-36123619D01*
X110593904Y-36076000D01*
X110689142Y-36028380D01*
X111403428Y-36123619D02*
X111451047Y-36076000D01*
X111546285Y-36028380D01*
X111784380Y-36028380D01*
X111879619Y-36076000D01*
X111927238Y-36123619D01*
X111974857Y-36218857D01*
X111974857Y-36314095D01*
X111927238Y-36456952D01*
X111355809Y-37028380D01*
X111974857Y-37028380D01*
X112593904Y-36028380D02*
X112689142Y-36028380D01*
X112784380Y-36076000D01*
X112832000Y-36123619D01*
X112879619Y-36218857D01*
X112927238Y-36409333D01*
X112927238Y-36647428D01*
X112879619Y-36837904D01*
X112832000Y-36933142D01*
X112784380Y-36980761D01*
X112689142Y-37028380D01*
X112593904Y-37028380D01*
X112498666Y-36980761D01*
X112451047Y-36933142D01*
X112403428Y-36837904D01*
X112355809Y-36647428D01*
X112355809Y-36409333D01*
X112403428Y-36218857D01*
X112451047Y-36123619D01*
X112498666Y-36076000D01*
X112593904Y-36028380D01*
X114593904Y-37028380D02*
X114117714Y-37028380D01*
X114117714Y-36028380D01*
X115355809Y-36361714D02*
X115355809Y-37028380D01*
X114927238Y-36361714D02*
X114927238Y-36885523D01*
X114974857Y-36980761D01*
X115070095Y-37028380D01*
X115212952Y-37028380D01*
X115308190Y-36980761D01*
X115355809Y-36933142D01*
X116260571Y-36980761D02*
X116165333Y-37028380D01*
X115974857Y-37028380D01*
X115879619Y-36980761D01*
X115832000Y-36933142D01*
X115784380Y-36837904D01*
X115784380Y-36552190D01*
X115832000Y-36456952D01*
X115879619Y-36409333D01*
X115974857Y-36361714D01*
X116165333Y-36361714D01*
X116260571Y-36409333D01*
X117451047Y-37028380D02*
X117451047Y-36028380D01*
X117451047Y-36504571D02*
X118022476Y-36504571D01*
X118022476Y-37028380D02*
X118022476Y-36028380D01*
X118641523Y-37028380D02*
X118546285Y-36980761D01*
X118498666Y-36933142D01*
X118451047Y-36837904D01*
X118451047Y-36552190D01*
X118498666Y-36456952D01*
X118546285Y-36409333D01*
X118641523Y-36361714D01*
X118784380Y-36361714D01*
X118879619Y-36409333D01*
X118927238Y-36456952D01*
X118974857Y-36552190D01*
X118974857Y-36837904D01*
X118927238Y-36933142D01*
X118879619Y-36980761D01*
X118784380Y-37028380D01*
X118641523Y-37028380D01*
X119403428Y-36361714D02*
X119403428Y-37028380D01*
X119403428Y-36456952D02*
X119451047Y-36409333D01*
X119546285Y-36361714D01*
X119689142Y-36361714D01*
X119784380Y-36409333D01*
X119832000Y-36504571D01*
X119832000Y-37028380D01*
X120736761Y-37028380D02*
X120736761Y-36028380D01*
X120736761Y-36980761D02*
X120641523Y-37028380D01*
X120451047Y-37028380D01*
X120355809Y-36980761D01*
X120308190Y-36933142D01*
X120260571Y-36837904D01*
X120260571Y-36552190D01*
X120308190Y-36456952D01*
X120355809Y-36409333D01*
X120451047Y-36361714D01*
X120641523Y-36361714D01*
X120736761Y-36409333D01*
X121641523Y-37028380D02*
X121641523Y-36504571D01*
X121593904Y-36409333D01*
X121498666Y-36361714D01*
X121308190Y-36361714D01*
X121212952Y-36409333D01*
X121641523Y-36980761D02*
X121546285Y-37028380D01*
X121308190Y-37028380D01*
X121212952Y-36980761D01*
X121165333Y-36885523D01*
X121165333Y-36790285D01*
X121212952Y-36695047D01*
X121308190Y-36647428D01*
X121546285Y-36647428D01*
X121641523Y-36599809D01*
X122117714Y-37028380D02*
X122117714Y-36361714D01*
X122117714Y-36552190D02*
X122165333Y-36456952D01*
X122212952Y-36409333D01*
X122308190Y-36361714D01*
X122403428Y-36361714D01*
X123117714Y-36980761D02*
X123022476Y-37028380D01*
X122832000Y-37028380D01*
X122736761Y-36980761D01*
X122689142Y-36885523D01*
X122689142Y-36504571D01*
X122736761Y-36409333D01*
X122832000Y-36361714D01*
X123022476Y-36361714D01*
X123117714Y-36409333D01*
X123165333Y-36504571D01*
X123165333Y-36599809D01*
X122689142Y-36695047D01*
X123498666Y-36361714D02*
X123736761Y-37028380D01*
X123974857Y-36361714D02*
X123736761Y-37028380D01*
X123641523Y-37266476D01*
X123593904Y-37314095D01*
X123498666Y-37361714D01*
X124212952Y-36361714D02*
X124593904Y-36361714D01*
X124355809Y-36028380D02*
X124355809Y-36885523D01*
X124403428Y-36980761D01*
X124498666Y-37028380D01*
X124593904Y-37028380D01*
X125308190Y-36980761D02*
X125212952Y-37028380D01*
X125022476Y-37028380D01*
X124927238Y-36980761D01*
X124879619Y-36885523D01*
X124879619Y-36504571D01*
X124927238Y-36409333D01*
X125022476Y-36361714D01*
X125212952Y-36361714D01*
X125308190Y-36409333D01*
X125355809Y-36504571D01*
X125355809Y-36599809D01*
X124879619Y-36695047D01*
D12*
X152494064Y-46334000D02*
X151289936Y-46334000D01*
X152494064Y-48154000D02*
X151289936Y-48154000D01*
X124837436Y-71522000D02*
X126041564Y-71522000D01*
X124837436Y-69702000D02*
X126041564Y-69702000D01*
X171222929Y-37720000D02*
X171620000Y-37720000D01*
X171222929Y-38480000D02*
X171620000Y-38480000D01*
X168750000Y-37720000D02*
X169137071Y-37720000D01*
X168750000Y-38480000D02*
X169137071Y-38480000D01*
X171222929Y-40260000D02*
X171620000Y-40260000D01*
X171222929Y-41020000D02*
X171620000Y-41020000D01*
X168682929Y-40260000D02*
X169137071Y-40260000D01*
X168682929Y-41020000D02*
X169137071Y-41020000D01*
X171222929Y-42800000D02*
X171620000Y-42800000D01*
X171222929Y-43560000D02*
X171620000Y-43560000D01*
X168682929Y-42800000D02*
X169137071Y-42800000D01*
X168682929Y-43560000D02*
X169137071Y-43560000D01*
X171222929Y-45340000D02*
X171620000Y-45340000D01*
X171222929Y-46100000D02*
X171620000Y-46100000D01*
X168682929Y-45340000D02*
X169137071Y-45340000D01*
X168682929Y-46100000D02*
X169137071Y-46100000D01*
X171222929Y-47880000D02*
X171620000Y-47880000D01*
X171222929Y-48640000D02*
X171620000Y-48640000D01*
X168682929Y-47880000D02*
X169137071Y-47880000D01*
X168682929Y-48640000D02*
X169137071Y-48640000D01*
X166370000Y-38100000D02*
X166370000Y-36830000D01*
X166370000Y-36830000D02*
X167640000Y-36830000D01*
X109100000Y-53170000D02*
X113360000Y-53170000D01*
X113360000Y-53170000D02*
X113360000Y-40850000D01*
X113360000Y-40850000D02*
X109100000Y-40850000D01*
X113580000Y-48260000D02*
X114080000Y-48760000D01*
X114080000Y-48760000D02*
X114080000Y-47760000D01*
X114080000Y-47760000D02*
X113580000Y-48260000D01*
X143494000Y-35754000D02*
G75*
G02X141494000Y-35754000I-1000000J0D01*
G01*
X141494000Y-35754000D02*
X139844000Y-35754000D01*
X139844000Y-35754000D02*
X139844000Y-71434000D01*
X139844000Y-71434000D02*
X145144000Y-71434000D01*
X145144000Y-71434000D02*
X145144000Y-35754000D01*
X145144000Y-35754000D02*
X143494000Y-35754000D01*
X115844000Y-60598000D02*
X115844000Y-61858000D01*
X115844000Y-67418000D02*
X115844000Y-66158000D01*
X119604000Y-60598000D02*
X115844000Y-60598000D01*
X121854000Y-67418000D02*
X115844000Y-67418000D01*
X158460000Y-45784000D02*
X158460000Y-45940000D01*
X158460000Y-43468000D02*
X158460000Y-43624000D01*
X161061130Y-45783837D02*
G75*
G02X158979039Y-45784000I-1041130J1079837D01*
G01*
X161061130Y-43624163D02*
G75*
G03X158979039Y-43624000I-1041130J-1079837D01*
G01*
X161692335Y-45782608D02*
G75*
G02X158460000Y-45939516I-1672335J1078608D01*
G01*
X161692335Y-43625392D02*
G75*
G03X158460000Y-43468484I-1672335J-1078608D01*
G01*
X157420000Y-39430000D02*
X157420000Y-38100000D01*
X158750000Y-39430000D02*
X157420000Y-39430000D01*
X160020000Y-39430000D02*
X160020000Y-36770000D01*
X160020000Y-36770000D02*
X162620000Y-36770000D01*
X160020000Y-39430000D02*
X162620000Y-39430000D01*
X162620000Y-39430000D02*
X162620000Y-36770000D01*
X121980000Y-68774000D02*
X121980000Y-70104000D01*
X120650000Y-68774000D02*
X121980000Y-68774000D01*
X119380000Y-68774000D02*
X119380000Y-71434000D01*
X119380000Y-71434000D02*
X114240000Y-71434000D01*
X119380000Y-68774000D02*
X114240000Y-68774000D01*
X114240000Y-68774000D02*
X114240000Y-71434000D01*
X161858000Y-66234000D02*
X161858000Y-67564000D01*
X160528000Y-66234000D02*
X161858000Y-66234000D01*
X159258000Y-66234000D02*
X159258000Y-68894000D01*
X159258000Y-68894000D02*
X156658000Y-68894000D01*
X159258000Y-66234000D02*
X156658000Y-66234000D01*
X156658000Y-66234000D02*
X156658000Y-68894000D01*
X149038000Y-45526000D02*
X149038000Y-44196000D01*
X150368000Y-45526000D02*
X149038000Y-45526000D01*
X151638000Y-45526000D02*
X151638000Y-42866000D01*
X151638000Y-42866000D02*
X154238000Y-42866000D01*
X151638000Y-45526000D02*
X154238000Y-45526000D01*
X154238000Y-45526000D02*
X154238000Y-42866000D01*
X121803500Y-53221000D02*
X117743500Y-53221000D01*
X121803500Y-55491000D02*
X121803500Y-53221000D01*
X117743500Y-55491000D02*
X121803500Y-55491000D01*
X110590000Y-61976000D02*
G75*
G03X110590000Y-61976000I-2620000J0D01*
G01*
X107970000Y-64556000D02*
X107970000Y-59396000D01*
X107930000Y-64556000D02*
X107930000Y-59396000D01*
X107890000Y-64555000D02*
X107890000Y-59397000D01*
X107850000Y-64554000D02*
X107850000Y-59398000D01*
X107810000Y-64552000D02*
X107810000Y-59400000D01*
X107770000Y-64549000D02*
X107770000Y-59403000D01*
X107730000Y-64545000D02*
X107730000Y-63016000D01*
X107730000Y-60936000D02*
X107730000Y-59407000D01*
X107690000Y-64541000D02*
X107690000Y-63016000D01*
X107690000Y-60936000D02*
X107690000Y-59411000D01*
X107650000Y-64537000D02*
X107650000Y-63016000D01*
X107650000Y-60936000D02*
X107650000Y-59415000D01*
X107610000Y-64532000D02*
X107610000Y-63016000D01*
X107610000Y-60936000D02*
X107610000Y-59420000D01*
X107570000Y-64526000D02*
X107570000Y-63016000D01*
X107570000Y-60936000D02*
X107570000Y-59426000D01*
X107530000Y-64519000D02*
X107530000Y-63016000D01*
X107530000Y-60936000D02*
X107530000Y-59433000D01*
X107490000Y-64512000D02*
X107490000Y-63016000D01*
X107490000Y-60936000D02*
X107490000Y-59440000D01*
X107450000Y-64504000D02*
X107450000Y-63016000D01*
X107450000Y-60936000D02*
X107450000Y-59448000D01*
X107410000Y-64496000D02*
X107410000Y-63016000D01*
X107410000Y-60936000D02*
X107410000Y-59456000D01*
X107370000Y-64487000D02*
X107370000Y-63016000D01*
X107370000Y-60936000D02*
X107370000Y-59465000D01*
X107330000Y-64477000D02*
X107330000Y-63016000D01*
X107330000Y-60936000D02*
X107330000Y-59475000D01*
X107290000Y-64467000D02*
X107290000Y-63016000D01*
X107290000Y-60936000D02*
X107290000Y-59485000D01*
X107249000Y-64456000D02*
X107249000Y-63016000D01*
X107249000Y-60936000D02*
X107249000Y-59496000D01*
X107209000Y-64444000D02*
X107209000Y-63016000D01*
X107209000Y-60936000D02*
X107209000Y-59508000D01*
X107169000Y-64431000D02*
X107169000Y-63016000D01*
X107169000Y-60936000D02*
X107169000Y-59521000D01*
X107129000Y-64418000D02*
X107129000Y-63016000D01*
X107129000Y-60936000D02*
X107129000Y-59534000D01*
X107089000Y-64404000D02*
X107089000Y-63016000D01*
X107089000Y-60936000D02*
X107089000Y-59548000D01*
X107049000Y-64390000D02*
X107049000Y-63016000D01*
X107049000Y-60936000D02*
X107049000Y-59562000D01*
X107009000Y-64374000D02*
X107009000Y-63016000D01*
X107009000Y-60936000D02*
X107009000Y-59578000D01*
X106969000Y-64358000D02*
X106969000Y-63016000D01*
X106969000Y-60936000D02*
X106969000Y-59594000D01*
X106929000Y-64341000D02*
X106929000Y-63016000D01*
X106929000Y-60936000D02*
X106929000Y-59611000D01*
X106889000Y-64324000D02*
X106889000Y-63016000D01*
X106889000Y-60936000D02*
X106889000Y-59628000D01*
X106849000Y-64305000D02*
X106849000Y-63016000D01*
X106849000Y-60936000D02*
X106849000Y-59647000D01*
X106809000Y-64286000D02*
X106809000Y-63016000D01*
X106809000Y-60936000D02*
X106809000Y-59666000D01*
X106769000Y-64266000D02*
X106769000Y-63016000D01*
X106769000Y-60936000D02*
X106769000Y-59686000D01*
X106729000Y-64244000D02*
X106729000Y-63016000D01*
X106729000Y-60936000D02*
X106729000Y-59708000D01*
X106689000Y-64223000D02*
X106689000Y-63016000D01*
X106689000Y-60936000D02*
X106689000Y-59729000D01*
X106649000Y-64200000D02*
X106649000Y-63016000D01*
X106649000Y-60936000D02*
X106649000Y-59752000D01*
X106609000Y-64176000D02*
X106609000Y-63016000D01*
X106609000Y-60936000D02*
X106609000Y-59776000D01*
X106569000Y-64151000D02*
X106569000Y-63016000D01*
X106569000Y-60936000D02*
X106569000Y-59801000D01*
X106529000Y-64125000D02*
X106529000Y-63016000D01*
X106529000Y-60936000D02*
X106529000Y-59827000D01*
X106489000Y-64098000D02*
X106489000Y-63016000D01*
X106489000Y-60936000D02*
X106489000Y-59854000D01*
X106449000Y-64071000D02*
X106449000Y-63016000D01*
X106449000Y-60936000D02*
X106449000Y-59881000D01*
X106409000Y-64041000D02*
X106409000Y-63016000D01*
X106409000Y-60936000D02*
X106409000Y-59911000D01*
X106369000Y-64011000D02*
X106369000Y-63016000D01*
X106369000Y-60936000D02*
X106369000Y-59941000D01*
X106329000Y-63980000D02*
X106329000Y-63016000D01*
X106329000Y-60936000D02*
X106329000Y-59972000D01*
X106289000Y-63947000D02*
X106289000Y-63016000D01*
X106289000Y-60936000D02*
X106289000Y-60005000D01*
X106249000Y-63913000D02*
X106249000Y-63016000D01*
X106249000Y-60936000D02*
X106249000Y-60039000D01*
X106209000Y-63877000D02*
X106209000Y-63016000D01*
X106209000Y-60936000D02*
X106209000Y-60075000D01*
X106169000Y-63840000D02*
X106169000Y-63016000D01*
X106169000Y-60936000D02*
X106169000Y-60112000D01*
X106129000Y-63802000D02*
X106129000Y-63016000D01*
X106129000Y-60936000D02*
X106129000Y-60150000D01*
X106089000Y-63761000D02*
X106089000Y-63016000D01*
X106089000Y-60936000D02*
X106089000Y-60191000D01*
X106049000Y-63719000D02*
X106049000Y-63016000D01*
X106049000Y-60936000D02*
X106049000Y-60233000D01*
X106009000Y-63675000D02*
X106009000Y-63016000D01*
X106009000Y-60936000D02*
X106009000Y-60277000D01*
X105969000Y-63629000D02*
X105969000Y-63016000D01*
X105969000Y-60936000D02*
X105969000Y-60323000D01*
X105929000Y-63581000D02*
X105929000Y-63016000D01*
X105929000Y-60936000D02*
X105929000Y-60371000D01*
X105889000Y-63530000D02*
X105889000Y-63016000D01*
X105889000Y-60936000D02*
X105889000Y-60422000D01*
X105849000Y-63476000D02*
X105849000Y-63016000D01*
X105849000Y-60936000D02*
X105849000Y-60476000D01*
X105809000Y-63419000D02*
X105809000Y-63016000D01*
X105809000Y-60936000D02*
X105809000Y-60533000D01*
X105769000Y-63359000D02*
X105769000Y-63016000D01*
X105769000Y-60936000D02*
X105769000Y-60593000D01*
X105729000Y-63295000D02*
X105729000Y-63016000D01*
X105729000Y-60936000D02*
X105729000Y-60657000D01*
X105689000Y-63227000D02*
X105689000Y-63016000D01*
X105689000Y-60936000D02*
X105689000Y-60725000D01*
X105649000Y-63154000D02*
X105649000Y-60798000D01*
X105609000Y-63074000D02*
X105609000Y-60878000D01*
X105569000Y-62987000D02*
X105569000Y-60965000D01*
X105529000Y-62891000D02*
X105529000Y-61061000D01*
X105489000Y-62781000D02*
X105489000Y-61171000D01*
X105449000Y-62653000D02*
X105449000Y-61299000D01*
X105409000Y-62494000D02*
X105409000Y-61458000D01*
X105369000Y-62260000D02*
X105369000Y-61692000D01*
X110774775Y-63451000D02*
X110274775Y-63451000D01*
X110524775Y-63701000D02*
X110524775Y-63201000D01*
X118741436Y-55986000D02*
X119945564Y-55986000D01*
X118741436Y-57806000D02*
X119945564Y-57806000D01*
X127910000Y-52266436D02*
X127910000Y-53470564D01*
X126090000Y-52266436D02*
X126090000Y-53470564D01*
X127910000Y-64573564D02*
X127910000Y-63369436D01*
X126090000Y-64573564D02*
X126090000Y-63369436D01*
X126041564Y-67162000D02*
X124837436Y-67162000D01*
X126041564Y-68982000D02*
X124837436Y-68982000D01*
X120980000Y-48141000D02*
X116920000Y-48141000D01*
X116920000Y-48141000D02*
X116920000Y-50411000D01*
X116920000Y-50411000D02*
X120980000Y-50411000D01*
X116883500Y-42791000D02*
X120943500Y-42791000D01*
X116883500Y-40521000D02*
X116883500Y-42791000D01*
X120943500Y-40521000D02*
X116883500Y-40521000D01*
X161692335Y-48705392D02*
G75*
G03X158460000Y-48548484I-1672335J-1078608D01*
G01*
X161692335Y-50862608D02*
G75*
G02X158460000Y-51019516I-1672335J1078608D01*
G01*
X161061130Y-48704163D02*
G75*
G03X158979039Y-48704000I-1041130J-1079837D01*
G01*
X161061130Y-50863837D02*
G75*
G02X158979039Y-50864000I-1041130J1079837D01*
G01*
X158460000Y-48548000D02*
X158460000Y-48704000D01*
X158460000Y-50864000D02*
X158460000Y-51020000D01*
X127910000Y-57854436D02*
X127910000Y-59058564D01*
X126090000Y-57854436D02*
X126090000Y-59058564D01*
X119945564Y-50906000D02*
X118741436Y-50906000D01*
X119945564Y-52726000D02*
X118741436Y-52726000D01*
X118741436Y-45106000D02*
X119945564Y-45106000D01*
X118741436Y-43286000D02*
X119945564Y-43286000D01*
X118741436Y-45826000D02*
X119945564Y-45826000D01*
X118741436Y-47646000D02*
X119945564Y-47646000D01*
X151253436Y-56494000D02*
X152457564Y-56494000D01*
X151253436Y-58314000D02*
X152457564Y-58314000D01*
X152457564Y-65934000D02*
X151253436Y-65934000D01*
X152457564Y-64114000D02*
X151253436Y-64114000D01*
X152457564Y-66654000D02*
X151253436Y-66654000D01*
X152457564Y-68474000D02*
X151253436Y-68474000D01*
X152457564Y-59034000D02*
X151253436Y-59034000D01*
X152457564Y-60854000D02*
X151253436Y-60854000D01*
X152457564Y-48874000D02*
X151253436Y-48874000D01*
X152457564Y-50694000D02*
X151253436Y-50694000D01*
X152457564Y-41804000D02*
X151253436Y-41804000D01*
X152457564Y-39984000D02*
X151253436Y-39984000D01*
X134605000Y-55320000D02*
X134605000Y-61720000D01*
X129555000Y-55320000D02*
X129555000Y-61720000D01*
X129555000Y-55320000D02*
G75*
G02X134605000Y-55320000I2525000J0D01*
G01*
X129555000Y-61720000D02*
G75*
G03X134605000Y-61720000I2525000J0D01*
G01*
D11*
X148788380Y-47886857D02*
X148312190Y-48220190D01*
X148788380Y-48458285D02*
X147788380Y-48458285D01*
X147788380Y-48077333D01*
X147836000Y-47982095D01*
X147883619Y-47934476D01*
X147978857Y-47886857D01*
X148121714Y-47886857D01*
X148216952Y-47934476D01*
X148264571Y-47982095D01*
X148312190Y-48077333D01*
X148312190Y-48458285D01*
X148788380Y-46934476D02*
X148788380Y-47505904D01*
X148788380Y-47220190D02*
X147788380Y-47220190D01*
X147931238Y-47315428D01*
X148026476Y-47410666D01*
X148074095Y-47505904D01*
X147788380Y-46315428D02*
X147788380Y-46220190D01*
X147836000Y-46124952D01*
X147883619Y-46077333D01*
X147978857Y-46029714D01*
X148169333Y-45982095D01*
X148407428Y-45982095D01*
X148597904Y-46029714D01*
X148693142Y-46077333D01*
X148740761Y-46124952D01*
X148788380Y-46220190D01*
X148788380Y-46315428D01*
X148740761Y-46410666D01*
X148693142Y-46458285D01*
X148597904Y-46505904D01*
X148407428Y-46553523D01*
X148169333Y-46553523D01*
X147978857Y-46505904D01*
X147883619Y-46458285D01*
X147836000Y-46410666D01*
X147788380Y-46315428D01*
X129447880Y-71254857D02*
X128971690Y-71588190D01*
X129447880Y-71826285D02*
X128447880Y-71826285D01*
X128447880Y-71445333D01*
X128495500Y-71350095D01*
X128543119Y-71302476D01*
X128638357Y-71254857D01*
X128781214Y-71254857D01*
X128876452Y-71302476D01*
X128924071Y-71350095D01*
X128971690Y-71445333D01*
X128971690Y-71826285D01*
X129447880Y-70302476D02*
X129447880Y-70873904D01*
X129447880Y-70588190D02*
X128447880Y-70588190D01*
X128590738Y-70683428D01*
X128685976Y-70778666D01*
X128733595Y-70873904D01*
X128543119Y-69921523D02*
X128495500Y-69873904D01*
X128447880Y-69778666D01*
X128447880Y-69540571D01*
X128495500Y-69445333D01*
X128543119Y-69397714D01*
X128638357Y-69350095D01*
X128733595Y-69350095D01*
X128876452Y-69397714D01*
X129447880Y-69969142D01*
X129447880Y-69350095D01*
X166140000Y-50760380D02*
X166140000Y-51569904D01*
X166187619Y-51665142D01*
X166235238Y-51712761D01*
X166330476Y-51760380D01*
X166520952Y-51760380D01*
X166616190Y-51712761D01*
X166663809Y-51665142D01*
X166711428Y-51569904D01*
X166711428Y-50760380D01*
X167187619Y-51760380D02*
X167187619Y-50760380D01*
X167616190Y-51712761D02*
X167759047Y-51760380D01*
X167997142Y-51760380D01*
X168092380Y-51712761D01*
X168140000Y-51665142D01*
X168187619Y-51569904D01*
X168187619Y-51474666D01*
X168140000Y-51379428D01*
X168092380Y-51331809D01*
X167997142Y-51284190D01*
X167806666Y-51236571D01*
X167711428Y-51188952D01*
X167663809Y-51141333D01*
X167616190Y-51046095D01*
X167616190Y-50950857D01*
X167663809Y-50855619D01*
X167711428Y-50808000D01*
X167806666Y-50760380D01*
X168044761Y-50760380D01*
X168187619Y-50808000D01*
X168616190Y-51760380D02*
X168616190Y-50760380D01*
X168997142Y-50760380D01*
X169092380Y-50808000D01*
X169140000Y-50855619D01*
X169187619Y-50950857D01*
X169187619Y-51093714D01*
X169140000Y-51188952D01*
X169092380Y-51236571D01*
X168997142Y-51284190D01*
X168616190Y-51284190D01*
X111212380Y-57483333D02*
X111926666Y-57483333D01*
X112069523Y-57530952D01*
X112164761Y-57626190D01*
X112212380Y-57769047D01*
X112212380Y-57864285D01*
X112212380Y-56483333D02*
X112212380Y-57054761D01*
X112212380Y-56769047D02*
X111212380Y-56769047D01*
X111355238Y-56864285D01*
X111450476Y-56959523D01*
X111498095Y-57054761D01*
X164290476Y-70048380D02*
X164290476Y-69048380D01*
X164623809Y-69762666D01*
X164957142Y-69048380D01*
X164957142Y-70048380D01*
X165338095Y-69048380D02*
X165957142Y-69048380D01*
X165623809Y-69429333D01*
X165766666Y-69429333D01*
X165861904Y-69476952D01*
X165909523Y-69524571D01*
X165957142Y-69619809D01*
X165957142Y-69857904D01*
X165909523Y-69953142D01*
X165861904Y-70000761D01*
X165766666Y-70048380D01*
X165480952Y-70048380D01*
X165385714Y-70000761D01*
X165338095Y-69953142D01*
X130254476Y-42108380D02*
X130254476Y-41108380D01*
X130587809Y-41822666D01*
X130921142Y-41108380D01*
X130921142Y-42108380D01*
X131302095Y-41108380D02*
X131921142Y-41108380D01*
X131587809Y-41489333D01*
X131730666Y-41489333D01*
X131825904Y-41536952D01*
X131873523Y-41584571D01*
X131921142Y-41679809D01*
X131921142Y-41917904D01*
X131873523Y-42013142D01*
X131825904Y-42060761D01*
X131730666Y-42108380D01*
X131444952Y-42108380D01*
X131349714Y-42060761D01*
X131302095Y-42013142D01*
X109934476Y-70048380D02*
X109934476Y-69048380D01*
X110267809Y-69762666D01*
X110601142Y-69048380D01*
X110601142Y-70048380D01*
X110982095Y-69048380D02*
X111601142Y-69048380D01*
X111267809Y-69429333D01*
X111410666Y-69429333D01*
X111505904Y-69476952D01*
X111553523Y-69524571D01*
X111601142Y-69619809D01*
X111601142Y-69857904D01*
X111553523Y-69953142D01*
X111505904Y-70000761D01*
X111410666Y-70048380D01*
X111124952Y-70048380D01*
X111029714Y-70000761D01*
X110982095Y-69953142D01*
X135596380Y-70865904D02*
X136405904Y-70865904D01*
X136501142Y-70818285D01*
X136548761Y-70770666D01*
X136596380Y-70675428D01*
X136596380Y-70484952D01*
X136548761Y-70389714D01*
X136501142Y-70342095D01*
X136405904Y-70294476D01*
X135596380Y-70294476D01*
X135691619Y-69865904D02*
X135644000Y-69818285D01*
X135596380Y-69723047D01*
X135596380Y-69484952D01*
X135644000Y-69389714D01*
X135691619Y-69342095D01*
X135786857Y-69294476D01*
X135882095Y-69294476D01*
X136024952Y-69342095D01*
X136596380Y-69913523D01*
X136596380Y-69294476D01*
X110856380Y-66039904D02*
X111665904Y-66039904D01*
X111761142Y-65992285D01*
X111808761Y-65944666D01*
X111856380Y-65849428D01*
X111856380Y-65658952D01*
X111808761Y-65563714D01*
X111761142Y-65516095D01*
X111665904Y-65468476D01*
X110856380Y-65468476D01*
X111856380Y-64468476D02*
X111856380Y-65039904D01*
X111856380Y-64754190D02*
X110856380Y-64754190D01*
X110999238Y-64849428D01*
X111094476Y-64944666D01*
X111142095Y-65039904D01*
X164028380Y-45442095D02*
X163028380Y-45442095D01*
X163028380Y-45204000D01*
X163076000Y-45061142D01*
X163171238Y-44965904D01*
X163266476Y-44918285D01*
X163456952Y-44870666D01*
X163599809Y-44870666D01*
X163790285Y-44918285D01*
X163885523Y-44965904D01*
X163980761Y-45061142D01*
X164028380Y-45204000D01*
X164028380Y-45442095D01*
X163361714Y-44013523D02*
X164028380Y-44013523D01*
X162980761Y-44251619D02*
X163695047Y-44489714D01*
X163695047Y-43870666D01*
X156424761Y-35012380D02*
X156758095Y-36012380D01*
X157091428Y-35012380D01*
X157424761Y-35631428D02*
X158186666Y-35631428D01*
X158520000Y-35012380D02*
X159091428Y-35012380D01*
X158805714Y-36012380D02*
X158805714Y-35012380D01*
X159377142Y-35726666D02*
X159853333Y-35726666D01*
X159281904Y-36012380D02*
X159615238Y-35012380D01*
X159948571Y-36012380D01*
X160853333Y-36012380D02*
X160520000Y-35536190D01*
X160281904Y-36012380D02*
X160281904Y-35012380D01*
X160662857Y-35012380D01*
X160758095Y-35060000D01*
X160805714Y-35107619D01*
X160853333Y-35202857D01*
X160853333Y-35345714D01*
X160805714Y-35440952D01*
X160758095Y-35488571D01*
X160662857Y-35536190D01*
X160281904Y-35536190D01*
X161805714Y-35060000D02*
X161710476Y-35012380D01*
X161567619Y-35012380D01*
X161424761Y-35060000D01*
X161329523Y-35155238D01*
X161281904Y-35250476D01*
X161234285Y-35440952D01*
X161234285Y-35583809D01*
X161281904Y-35774285D01*
X161329523Y-35869523D01*
X161424761Y-35964761D01*
X161567619Y-36012380D01*
X161662857Y-36012380D01*
X161805714Y-35964761D01*
X161853333Y-35917142D01*
X161853333Y-35583809D01*
X161662857Y-35583809D01*
X162281904Y-35488571D02*
X162615238Y-35488571D01*
X162758095Y-36012380D02*
X162281904Y-36012380D01*
X162281904Y-35012380D01*
X162758095Y-35012380D01*
X163043809Y-35012380D02*
X163615238Y-35012380D01*
X163329523Y-36012380D02*
X163329523Y-35012380D01*
X115919523Y-71588380D02*
X115443333Y-71588380D01*
X115395714Y-72064571D01*
X115443333Y-72016952D01*
X115538571Y-71969333D01*
X115776666Y-71969333D01*
X115871904Y-72016952D01*
X115919523Y-72064571D01*
X115967142Y-72159809D01*
X115967142Y-72397904D01*
X115919523Y-72493142D01*
X115871904Y-72540761D01*
X115776666Y-72588380D01*
X115538571Y-72588380D01*
X115443333Y-72540761D01*
X115395714Y-72493142D01*
X116252857Y-71588380D02*
X116586190Y-72588380D01*
X116919523Y-71588380D01*
X117252857Y-72207428D02*
X118014761Y-72207428D01*
X118395714Y-71588380D02*
X119014761Y-71588380D01*
X118681428Y-71969333D01*
X118824285Y-71969333D01*
X118919523Y-72016952D01*
X118967142Y-72064571D01*
X119014761Y-72159809D01*
X119014761Y-72397904D01*
X118967142Y-72493142D01*
X118919523Y-72540761D01*
X118824285Y-72588380D01*
X118538571Y-72588380D01*
X118443333Y-72540761D01*
X118395714Y-72493142D01*
X119300476Y-71588380D02*
X119633809Y-72588380D01*
X119967142Y-71588380D01*
X120205238Y-71588380D02*
X120824285Y-71588380D01*
X120490952Y-71969333D01*
X120633809Y-71969333D01*
X120729047Y-72016952D01*
X120776666Y-72064571D01*
X120824285Y-72159809D01*
X120824285Y-72397904D01*
X120776666Y-72493142D01*
X120729047Y-72540761D01*
X120633809Y-72588380D01*
X120348095Y-72588380D01*
X120252857Y-72540761D01*
X120205238Y-72493142D01*
X155821523Y-65428761D02*
X155964380Y-65476380D01*
X156202476Y-65476380D01*
X156297714Y-65428761D01*
X156345333Y-65381142D01*
X156392952Y-65285904D01*
X156392952Y-65190666D01*
X156345333Y-65095428D01*
X156297714Y-65047809D01*
X156202476Y-65000190D01*
X156012000Y-64952571D01*
X155916761Y-64904952D01*
X155869142Y-64857333D01*
X155821523Y-64762095D01*
X155821523Y-64666857D01*
X155869142Y-64571619D01*
X155916761Y-64524000D01*
X156012000Y-64476380D01*
X156250095Y-64476380D01*
X156392952Y-64524000D01*
X156821523Y-64952571D02*
X157154857Y-64952571D01*
X157297714Y-65476380D02*
X156821523Y-65476380D01*
X156821523Y-64476380D01*
X157297714Y-64476380D01*
X158202476Y-65476380D02*
X157726285Y-65476380D01*
X157726285Y-64476380D01*
X158869142Y-64952571D02*
X158535809Y-64952571D01*
X158535809Y-65476380D02*
X158535809Y-64476380D01*
X159012000Y-64476380D01*
X159392952Y-65095428D02*
X160154857Y-65095428D01*
X160631047Y-65476380D02*
X160631047Y-64476380D01*
X161012000Y-64476380D01*
X161107238Y-64524000D01*
X161154857Y-64571619D01*
X161202476Y-64666857D01*
X161202476Y-64809714D01*
X161154857Y-64904952D01*
X161107238Y-64952571D01*
X161012000Y-65000190D01*
X160631047Y-65000190D01*
X162202476Y-65476380D02*
X161869142Y-65000190D01*
X161631047Y-65476380D02*
X161631047Y-64476380D01*
X162012000Y-64476380D01*
X162107238Y-64524000D01*
X162154857Y-64571619D01*
X162202476Y-64666857D01*
X162202476Y-64809714D01*
X162154857Y-64904952D01*
X162107238Y-64952571D01*
X162012000Y-65000190D01*
X161631047Y-65000190D01*
X163154857Y-64524000D02*
X163059619Y-64476380D01*
X162916761Y-64476380D01*
X162773904Y-64524000D01*
X162678666Y-64619238D01*
X162631047Y-64714476D01*
X162583428Y-64904952D01*
X162583428Y-65047809D01*
X162631047Y-65238285D01*
X162678666Y-65333523D01*
X162773904Y-65428761D01*
X162916761Y-65476380D01*
X163012000Y-65476380D01*
X163154857Y-65428761D01*
X163202476Y-65381142D01*
X163202476Y-65047809D01*
X163012000Y-65047809D01*
X151304666Y-39838380D02*
X151304666Y-40552666D01*
X151257047Y-40695523D01*
X151161809Y-40790761D01*
X151018952Y-40838380D01*
X150923714Y-40838380D01*
X151685619Y-39838380D02*
X152304666Y-39838380D01*
X151971333Y-40219333D01*
X152114190Y-40219333D01*
X152209428Y-40266952D01*
X152257047Y-40314571D01*
X152304666Y-40409809D01*
X152304666Y-40647904D01*
X152257047Y-40743142D01*
X152209428Y-40790761D01*
X152114190Y-40838380D01*
X151828476Y-40838380D01*
X151733238Y-40790761D01*
X151685619Y-40743142D01*
X156360761Y-47568952D02*
X156408380Y-47426095D01*
X156408380Y-47188000D01*
X156360761Y-47092761D01*
X156313142Y-47045142D01*
X156217904Y-46997523D01*
X156122666Y-46997523D01*
X156027428Y-47045142D01*
X155979809Y-47092761D01*
X155932190Y-47188000D01*
X155884571Y-47378476D01*
X155836952Y-47473714D01*
X155789333Y-47521333D01*
X155694095Y-47568952D01*
X155598857Y-47568952D01*
X155503619Y-47521333D01*
X155456000Y-47473714D01*
X155408380Y-47378476D01*
X155408380Y-47140380D01*
X155456000Y-46997523D01*
X156408380Y-46092761D02*
X156408380Y-46568952D01*
X155408380Y-46568952D01*
X155408380Y-45568952D02*
X155408380Y-45378476D01*
X155456000Y-45283238D01*
X155551238Y-45188000D01*
X155741714Y-45140380D01*
X156075047Y-45140380D01*
X156265523Y-45188000D01*
X156360761Y-45283238D01*
X156408380Y-45378476D01*
X156408380Y-45568952D01*
X156360761Y-45664190D01*
X156265523Y-45759428D01*
X156075047Y-45807047D01*
X155741714Y-45807047D01*
X155551238Y-45759428D01*
X155456000Y-45664190D01*
X155408380Y-45568952D01*
X155408380Y-44807047D02*
X156408380Y-44568952D01*
X155694095Y-44378476D01*
X156408380Y-44188000D01*
X155408380Y-43949904D01*
X156027428Y-43568952D02*
X156027428Y-42807047D01*
X156360761Y-42378476D02*
X156408380Y-42235619D01*
X156408380Y-41997523D01*
X156360761Y-41902285D01*
X156313142Y-41854666D01*
X156217904Y-41807047D01*
X156122666Y-41807047D01*
X156027428Y-41854666D01*
X155979809Y-41902285D01*
X155932190Y-41997523D01*
X155884571Y-42188000D01*
X155836952Y-42283238D01*
X155789333Y-42330857D01*
X155694095Y-42378476D01*
X155598857Y-42378476D01*
X155503619Y-42330857D01*
X155456000Y-42283238D01*
X155408380Y-42188000D01*
X155408380Y-41949904D01*
X155456000Y-41807047D01*
X156313142Y-40807047D02*
X156360761Y-40854666D01*
X156408380Y-40997523D01*
X156408380Y-41092761D01*
X156360761Y-41235619D01*
X156265523Y-41330857D01*
X156170285Y-41378476D01*
X155979809Y-41426095D01*
X155836952Y-41426095D01*
X155646476Y-41378476D01*
X155551238Y-41330857D01*
X155456000Y-41235619D01*
X155408380Y-41092761D01*
X155408380Y-40997523D01*
X155456000Y-40854666D01*
X155503619Y-40807047D01*
X156408380Y-40378476D02*
X155408380Y-40378476D01*
X156408380Y-39807047D02*
X155836952Y-40235619D01*
X155408380Y-39807047D02*
X155979809Y-40378476D01*
X115462071Y-54689333D02*
X115462071Y-55022666D01*
X115985880Y-55022666D02*
X114985880Y-55022666D01*
X114985880Y-54546476D01*
X115985880Y-53641714D02*
X115985880Y-54213142D01*
X115985880Y-53927428D02*
X114985880Y-53927428D01*
X115128738Y-54022666D01*
X115223976Y-54117904D01*
X115271595Y-54213142D01*
X110847142Y-58332666D02*
X110894761Y-58380285D01*
X110942380Y-58523142D01*
X110942380Y-58618380D01*
X110894761Y-58761238D01*
X110799523Y-58856476D01*
X110704285Y-58904095D01*
X110513809Y-58951714D01*
X110370952Y-58951714D01*
X110180476Y-58904095D01*
X110085238Y-58856476D01*
X109990000Y-58761238D01*
X109942380Y-58618380D01*
X109942380Y-58523142D01*
X109990000Y-58380285D01*
X110037619Y-58332666D01*
X110942380Y-57380285D02*
X110942380Y-57951714D01*
X110942380Y-57666000D02*
X109942380Y-57666000D01*
X110085238Y-57761238D01*
X110180476Y-57856476D01*
X110228095Y-57951714D01*
X115835641Y-57062666D02*
X115883260Y-57110285D01*
X115930879Y-57253142D01*
X115930879Y-57348380D01*
X115883260Y-57491238D01*
X115788022Y-57586476D01*
X115692784Y-57634095D01*
X115502308Y-57681714D01*
X115359451Y-57681714D01*
X115168975Y-57634095D01*
X115073737Y-57586476D01*
X114978499Y-57491238D01*
X114930879Y-57348380D01*
X114930879Y-57253142D01*
X114978499Y-57110285D01*
X115026118Y-57062666D01*
X115026118Y-56681714D02*
X114978499Y-56634095D01*
X114930879Y-56538857D01*
X114930879Y-56300761D01*
X114978499Y-56205523D01*
X115026118Y-56157904D01*
X115121356Y-56110285D01*
X115216594Y-56110285D01*
X115359451Y-56157904D01*
X115930879Y-56729333D01*
X115930879Y-56110285D01*
X124817142Y-53035166D02*
X124864761Y-53082785D01*
X124912380Y-53225642D01*
X124912380Y-53320880D01*
X124864761Y-53463738D01*
X124769523Y-53558976D01*
X124674285Y-53606595D01*
X124483809Y-53654214D01*
X124340952Y-53654214D01*
X124150476Y-53606595D01*
X124055238Y-53558976D01*
X123960000Y-53463738D01*
X123912380Y-53320880D01*
X123912380Y-53225642D01*
X123960000Y-53082785D01*
X124007619Y-53035166D01*
X123912380Y-52701833D02*
X123912380Y-52082785D01*
X124293333Y-52416119D01*
X124293333Y-52273261D01*
X124340952Y-52178023D01*
X124388571Y-52130404D01*
X124483809Y-52082785D01*
X124721904Y-52082785D01*
X124817142Y-52130404D01*
X124864761Y-52178023D01*
X124912380Y-52273261D01*
X124912380Y-52558976D01*
X124864761Y-52654214D01*
X124817142Y-52701833D01*
X124817142Y-64138166D02*
X124864761Y-64185785D01*
X124912380Y-64328642D01*
X124912380Y-64423880D01*
X124864761Y-64566738D01*
X124769523Y-64661976D01*
X124674285Y-64709595D01*
X124483809Y-64757214D01*
X124340952Y-64757214D01*
X124150476Y-64709595D01*
X124055238Y-64661976D01*
X123960000Y-64566738D01*
X123912380Y-64423880D01*
X123912380Y-64328642D01*
X123960000Y-64185785D01*
X124007619Y-64138166D01*
X124245714Y-63281023D02*
X124912380Y-63281023D01*
X123864761Y-63519119D02*
X124579047Y-63757214D01*
X124579047Y-63138166D01*
X129352642Y-68238666D02*
X129400261Y-68286285D01*
X129447880Y-68429142D01*
X129447880Y-68524380D01*
X129400261Y-68667238D01*
X129305023Y-68762476D01*
X129209785Y-68810095D01*
X129019309Y-68857714D01*
X128876452Y-68857714D01*
X128685976Y-68810095D01*
X128590738Y-68762476D01*
X128495500Y-68667238D01*
X128447880Y-68524380D01*
X128447880Y-68429142D01*
X128495500Y-68286285D01*
X128543119Y-68238666D01*
X128447880Y-67333904D02*
X128447880Y-67810095D01*
X128924071Y-67857714D01*
X128876452Y-67810095D01*
X128828833Y-67714857D01*
X128828833Y-67476761D01*
X128876452Y-67381523D01*
X128924071Y-67333904D01*
X129019309Y-67286285D01*
X129257404Y-67286285D01*
X129352642Y-67333904D01*
X129400261Y-67381523D01*
X129447880Y-67476761D01*
X129447880Y-67714857D01*
X129400261Y-67810095D01*
X129352642Y-67857714D01*
X116022380Y-50014095D02*
X115022380Y-50014095D01*
X115022380Y-49776000D01*
X115070000Y-49633142D01*
X115165238Y-49537904D01*
X115260476Y-49490285D01*
X115450952Y-49442666D01*
X115593809Y-49442666D01*
X115784285Y-49490285D01*
X115879523Y-49537904D01*
X115974761Y-49633142D01*
X116022380Y-49776000D01*
X116022380Y-50014095D01*
X116022380Y-48490285D02*
X116022380Y-49061714D01*
X116022380Y-48776000D02*
X115022380Y-48776000D01*
X115165238Y-48871238D01*
X115260476Y-48966476D01*
X115308095Y-49061714D01*
X115985880Y-42394095D02*
X114985880Y-42394095D01*
X114985880Y-42156000D01*
X115033500Y-42013142D01*
X115128738Y-41917904D01*
X115223976Y-41870285D01*
X115414452Y-41822666D01*
X115557309Y-41822666D01*
X115747785Y-41870285D01*
X115843023Y-41917904D01*
X115938261Y-42013142D01*
X115985880Y-42156000D01*
X115985880Y-42394095D01*
X115081119Y-41441714D02*
X115033500Y-41394095D01*
X114985880Y-41298857D01*
X114985880Y-41060761D01*
X115033500Y-40965523D01*
X115081119Y-40917904D01*
X115176357Y-40870285D01*
X115271595Y-40870285D01*
X115414452Y-40917904D01*
X115985880Y-41489333D01*
X115985880Y-40870285D01*
X164028380Y-50522095D02*
X163028380Y-50522095D01*
X163028380Y-50284000D01*
X163076000Y-50141142D01*
X163171238Y-50045904D01*
X163266476Y-49998285D01*
X163456952Y-49950666D01*
X163599809Y-49950666D01*
X163790285Y-49998285D01*
X163885523Y-50045904D01*
X163980761Y-50141142D01*
X164028380Y-50284000D01*
X164028380Y-50522095D01*
X163028380Y-49617333D02*
X163028380Y-48998285D01*
X163409333Y-49331619D01*
X163409333Y-49188761D01*
X163456952Y-49093523D01*
X163504571Y-49045904D01*
X163599809Y-48998285D01*
X163837904Y-48998285D01*
X163933142Y-49045904D01*
X163980761Y-49093523D01*
X164028380Y-49188761D01*
X164028380Y-49474476D01*
X163980761Y-49569714D01*
X163933142Y-49617333D01*
X124912380Y-58623166D02*
X124436190Y-58956500D01*
X124912380Y-59194595D02*
X123912380Y-59194595D01*
X123912380Y-58813642D01*
X123960000Y-58718404D01*
X124007619Y-58670785D01*
X124102857Y-58623166D01*
X124245714Y-58623166D01*
X124340952Y-58670785D01*
X124388571Y-58718404D01*
X124436190Y-58813642D01*
X124436190Y-59194595D01*
X124912380Y-57670785D02*
X124912380Y-58242214D01*
X124912380Y-57956500D02*
X123912380Y-57956500D01*
X124055238Y-58051738D01*
X124150476Y-58146976D01*
X124198095Y-58242214D01*
X115985880Y-51982666D02*
X115509690Y-52316000D01*
X115985880Y-52554095D02*
X114985880Y-52554095D01*
X114985880Y-52173142D01*
X115033500Y-52077904D01*
X115081119Y-52030285D01*
X115176357Y-51982666D01*
X115319214Y-51982666D01*
X115414452Y-52030285D01*
X115462071Y-52077904D01*
X115509690Y-52173142D01*
X115509690Y-52554095D01*
X115081119Y-51601714D02*
X115033500Y-51554095D01*
X114985880Y-51458857D01*
X114985880Y-51220761D01*
X115033500Y-51125523D01*
X115081119Y-51077904D01*
X115176357Y-51030285D01*
X115271595Y-51030285D01*
X115414452Y-51077904D01*
X115985880Y-51649333D01*
X115985880Y-51030285D01*
X115985880Y-44362666D02*
X115509690Y-44696000D01*
X115985880Y-44934095D02*
X114985880Y-44934095D01*
X114985880Y-44553142D01*
X115033500Y-44457904D01*
X115081119Y-44410285D01*
X115176357Y-44362666D01*
X115319214Y-44362666D01*
X115414452Y-44410285D01*
X115462071Y-44457904D01*
X115509690Y-44553142D01*
X115509690Y-44934095D01*
X114985880Y-44029333D02*
X114985880Y-43410285D01*
X115366833Y-43743619D01*
X115366833Y-43600761D01*
X115414452Y-43505523D01*
X115462071Y-43457904D01*
X115557309Y-43410285D01*
X115795404Y-43410285D01*
X115890642Y-43457904D01*
X115938261Y-43505523D01*
X115985880Y-43600761D01*
X115985880Y-43886476D01*
X115938261Y-43981714D01*
X115890642Y-44029333D01*
X115985880Y-46902666D02*
X115509690Y-47236000D01*
X115985880Y-47474095D02*
X114985880Y-47474095D01*
X114985880Y-47093142D01*
X115033500Y-46997904D01*
X115081119Y-46950285D01*
X115176357Y-46902666D01*
X115319214Y-46902666D01*
X115414452Y-46950285D01*
X115462071Y-46997904D01*
X115509690Y-47093142D01*
X115509690Y-47474095D01*
X115319214Y-46045523D02*
X115985880Y-46045523D01*
X114938261Y-46283619D02*
X115652547Y-46521714D01*
X115652547Y-45902666D01*
X148751880Y-57570666D02*
X148275690Y-57904000D01*
X148751880Y-58142095D02*
X147751880Y-58142095D01*
X147751880Y-57761142D01*
X147799500Y-57665904D01*
X147847119Y-57618285D01*
X147942357Y-57570666D01*
X148085214Y-57570666D01*
X148180452Y-57618285D01*
X148228071Y-57665904D01*
X148275690Y-57761142D01*
X148275690Y-58142095D01*
X147751880Y-56665904D02*
X147751880Y-57142095D01*
X148228071Y-57189714D01*
X148180452Y-57142095D01*
X148132833Y-57046857D01*
X148132833Y-56808761D01*
X148180452Y-56713523D01*
X148228071Y-56665904D01*
X148323309Y-56618285D01*
X148561404Y-56618285D01*
X148656642Y-56665904D01*
X148704261Y-56713523D01*
X148751880Y-56808761D01*
X148751880Y-57046857D01*
X148704261Y-57142095D01*
X148656642Y-57189714D01*
X148788380Y-65190666D02*
X148312190Y-65524000D01*
X148788380Y-65762095D02*
X147788380Y-65762095D01*
X147788380Y-65381142D01*
X147836000Y-65285904D01*
X147883619Y-65238285D01*
X147978857Y-65190666D01*
X148121714Y-65190666D01*
X148216952Y-65238285D01*
X148264571Y-65285904D01*
X148312190Y-65381142D01*
X148312190Y-65762095D01*
X147788380Y-64333523D02*
X147788380Y-64524000D01*
X147836000Y-64619238D01*
X147883619Y-64666857D01*
X148026476Y-64762095D01*
X148216952Y-64809714D01*
X148597904Y-64809714D01*
X148693142Y-64762095D01*
X148740761Y-64714476D01*
X148788380Y-64619238D01*
X148788380Y-64428761D01*
X148740761Y-64333523D01*
X148693142Y-64285904D01*
X148597904Y-64238285D01*
X148359809Y-64238285D01*
X148264571Y-64285904D01*
X148216952Y-64333523D01*
X148169333Y-64428761D01*
X148169333Y-64619238D01*
X148216952Y-64714476D01*
X148264571Y-64762095D01*
X148359809Y-64809714D01*
X148788380Y-67730666D02*
X148312190Y-68064000D01*
X148788380Y-68302095D02*
X147788380Y-68302095D01*
X147788380Y-67921142D01*
X147836000Y-67825904D01*
X147883619Y-67778285D01*
X147978857Y-67730666D01*
X148121714Y-67730666D01*
X148216952Y-67778285D01*
X148264571Y-67825904D01*
X148312190Y-67921142D01*
X148312190Y-68302095D01*
X147788380Y-67397333D02*
X147788380Y-66730666D01*
X148788380Y-67159238D01*
X148715380Y-60110666D02*
X148239190Y-60444000D01*
X148715380Y-60682095D02*
X147715380Y-60682095D01*
X147715380Y-60301142D01*
X147763000Y-60205904D01*
X147810619Y-60158285D01*
X147905857Y-60110666D01*
X148048714Y-60110666D01*
X148143952Y-60158285D01*
X148191571Y-60205904D01*
X148239190Y-60301142D01*
X148239190Y-60682095D01*
X148143952Y-59539238D02*
X148096333Y-59634476D01*
X148048714Y-59682095D01*
X147953476Y-59729714D01*
X147905857Y-59729714D01*
X147810619Y-59682095D01*
X147763000Y-59634476D01*
X147715380Y-59539238D01*
X147715380Y-59348761D01*
X147763000Y-59253523D01*
X147810619Y-59205904D01*
X147905857Y-59158285D01*
X147953476Y-59158285D01*
X148048714Y-59205904D01*
X148096333Y-59253523D01*
X148143952Y-59348761D01*
X148143952Y-59539238D01*
X148191571Y-59634476D01*
X148239190Y-59682095D01*
X148334428Y-59729714D01*
X148524904Y-59729714D01*
X148620142Y-59682095D01*
X148667761Y-59634476D01*
X148715380Y-59539238D01*
X148715380Y-59348761D01*
X148667761Y-59253523D01*
X148620142Y-59205904D01*
X148524904Y-59158285D01*
X148334428Y-59158285D01*
X148239190Y-59205904D01*
X148191571Y-59253523D01*
X148143952Y-59348761D01*
X148788380Y-49950666D02*
X148312190Y-50284000D01*
X148788380Y-50522095D02*
X147788380Y-50522095D01*
X147788380Y-50141142D01*
X147836000Y-50045904D01*
X147883619Y-49998285D01*
X147978857Y-49950666D01*
X148121714Y-49950666D01*
X148216952Y-49998285D01*
X148264571Y-50045904D01*
X148312190Y-50141142D01*
X148312190Y-50522095D01*
X148788380Y-49474476D02*
X148788380Y-49284000D01*
X148740761Y-49188761D01*
X148693142Y-49141142D01*
X148550285Y-49045904D01*
X148359809Y-48998285D01*
X147978857Y-48998285D01*
X147883619Y-49045904D01*
X147836000Y-49093523D01*
X147788380Y-49188761D01*
X147788380Y-49379238D01*
X147836000Y-49474476D01*
X147883619Y-49522095D01*
X147978857Y-49569714D01*
X148216952Y-49569714D01*
X148312190Y-49522095D01*
X148359809Y-49474476D01*
X148407428Y-49379238D01*
X148407428Y-49188761D01*
X148359809Y-49093523D01*
X148312190Y-49045904D01*
X148216952Y-48998285D01*
X148751880Y-41536857D02*
X148275690Y-41870190D01*
X148751880Y-42108285D02*
X147751880Y-42108285D01*
X147751880Y-41727333D01*
X147799500Y-41632095D01*
X147847119Y-41584476D01*
X147942357Y-41536857D01*
X148085214Y-41536857D01*
X148180452Y-41584476D01*
X148228071Y-41632095D01*
X148275690Y-41727333D01*
X148275690Y-42108285D01*
X148751880Y-40584476D02*
X148751880Y-41155904D01*
X148751880Y-40870190D02*
X147751880Y-40870190D01*
X147894738Y-40965428D01*
X147989976Y-41060666D01*
X148037595Y-41155904D01*
X148751880Y-39632095D02*
X148751880Y-40203523D01*
X148751880Y-39917809D02*
X147751880Y-39917809D01*
X147894738Y-40013047D01*
X147989976Y-40108285D01*
X148037595Y-40203523D01*
X135581190Y-58996190D02*
X136057380Y-58996190D01*
X135057380Y-59329523D02*
X135581190Y-58996190D01*
X135057380Y-58662857D01*
X136057380Y-57805714D02*
X136057380Y-58377142D01*
X136057380Y-58091428D02*
X135057380Y-58091428D01*
X135200238Y-58186666D01*
X135295476Y-58281904D01*
X135343095Y-58377142D01*
M02*
