G04 #@! TF.GenerationSoftware,KiCad,Pcbnew,(5.1.5-0-10_14)*
G04 #@! TF.CreationDate,2020-05-14T12:08:37+02:00*
G04 #@! TF.ProjectId,usbasp,75736261-7370-42e6-9b69-6361645f7063,rev?*
G04 #@! TF.SameCoordinates,Original*
G04 #@! TF.FileFunction,Copper,L2,Bot*
G04 #@! TF.FilePolarity,Positive*
%FSLAX46Y46*%
G04 Gerber Fmt 4.6, Leading zero omitted, Abs format (unit mm)*
G04 Created by KiCad (PCBNEW (5.1.5-0-10_14)) date 2020-05-14 12:08:37*
%MOMM*%
%LPD*%
G04 APERTURE LIST*
%ADD10R,1.700000X1.700000*%
%ADD11O,1.700000X1.700000*%
%ADD12C,1.700000*%
%ADD13C,3.500000*%
%ADD14C,6.400000*%
%ADD15R,1.600000X1.600000*%
%ADD16O,1.600000X1.600000*%
%ADD17C,1.800000*%
%ADD18R,1.800000X1.800000*%
%ADD19C,1.600000*%
%ADD20C,1.500000*%
%ADD21C,0.800000*%
%ADD22C,0.250000*%
%ADD23C,0.400000*%
%ADD24C,0.254000*%
G04 APERTURE END LIST*
D10*
X167640000Y-38100000D03*
D11*
X170180000Y-38100000D03*
X167640000Y-40640000D03*
X170180000Y-40640000D03*
X167640000Y-43180000D03*
X170180000Y-43180000D03*
X167640000Y-45720000D03*
X170180000Y-45720000D03*
X167640000Y-48260000D03*
X170180000Y-48260000D03*
D10*
X111760000Y-48260000D03*
D12*
X111760000Y-45760000D03*
X109760000Y-45760000D03*
X109760000Y-48260000D03*
D13*
X107050000Y-53030000D03*
X107050000Y-40990000D03*
D14*
X170180000Y-69596000D03*
D15*
X138684000Y-37084000D03*
D16*
X146304000Y-70104000D03*
X138684000Y-39624000D03*
X146304000Y-67564000D03*
X138684000Y-42164000D03*
X146304000Y-65024000D03*
X138684000Y-44704000D03*
X146304000Y-62484000D03*
X138684000Y-47244000D03*
X146304000Y-59944000D03*
X138684000Y-49784000D03*
X146304000Y-57404000D03*
X138684000Y-52324000D03*
X146304000Y-54864000D03*
X138684000Y-54864000D03*
X146304000Y-52324000D03*
X138684000Y-57404000D03*
X146304000Y-49784000D03*
X138684000Y-59944000D03*
X146304000Y-47244000D03*
X138684000Y-62484000D03*
X146304000Y-44704000D03*
X138684000Y-65024000D03*
X146304000Y-42164000D03*
X138684000Y-67564000D03*
X146304000Y-39624000D03*
X138684000Y-70104000D03*
X146304000Y-37084000D03*
D17*
X161290000Y-44704000D03*
D18*
X158750000Y-44704000D03*
D11*
X161290000Y-38100000D03*
D10*
X158750000Y-38100000D03*
D11*
X115570000Y-70104000D03*
X118110000Y-70104000D03*
D10*
X120650000Y-70104000D03*
D11*
X157988000Y-67564000D03*
D10*
X160528000Y-67564000D03*
D11*
X152908000Y-44196000D03*
D10*
X150368000Y-44196000D03*
D15*
X109220000Y-61976000D03*
D19*
X106720000Y-61976000D03*
D18*
X158750000Y-49784000D03*
D17*
X161290000Y-49784000D03*
D20*
X132080000Y-56080000D03*
X132080000Y-60960000D03*
D21*
X159766000Y-65024000D03*
X155956000Y-57404000D03*
D22*
X167640000Y-37000000D02*
X167640000Y-38100000D01*
X168826000Y-35814000D02*
X167640000Y-37000000D01*
X170942000Y-35814000D02*
X168826000Y-35814000D01*
X172720000Y-58674000D02*
X172720000Y-37592000D01*
X172720000Y-37592000D02*
X170942000Y-35814000D01*
X159766000Y-65024000D02*
X161544000Y-65024000D01*
X164846000Y-66548000D02*
X166497000Y-64897000D01*
X161544000Y-65024000D02*
X163068000Y-66548000D01*
X163068000Y-66548000D02*
X164846000Y-66548000D01*
X166497000Y-64897000D02*
X172720000Y-58674000D01*
X166370000Y-65024000D02*
X166497000Y-64897000D01*
X138684000Y-39624000D02*
X140208000Y-39624000D01*
X143873001Y-35958999D02*
X163431001Y-35958999D01*
X140208000Y-39624000D02*
X143873001Y-35958999D01*
X163431001Y-35958999D02*
X165100000Y-37627998D01*
X165100000Y-37627998D02*
X165100000Y-40894000D01*
X165100000Y-40894000D02*
X166116000Y-41910000D01*
X168910000Y-41910000D02*
X170180000Y-43180000D01*
X166116000Y-41910000D02*
X168910000Y-41910000D01*
X155956000Y-62992000D02*
X160528000Y-67564000D01*
X155956000Y-57404000D02*
X155956000Y-62992000D01*
X160528000Y-68664000D02*
X160528000Y-67564000D01*
X171196000Y-35052000D02*
X173228000Y-37084000D01*
X143256000Y-35052000D02*
X171196000Y-35052000D01*
X141224000Y-37084000D02*
X143256000Y-35052000D01*
X138684000Y-37084000D02*
X141224000Y-37084000D01*
X173228000Y-59056410D02*
X164720410Y-67564000D01*
X173228000Y-37084000D02*
X173228000Y-59056410D01*
X164720410Y-67564000D02*
X160528000Y-67564000D01*
D23*
X138684000Y-52324000D02*
X124460000Y-52324000D01*
X118110000Y-58674000D02*
X118110000Y-70104000D01*
X124460000Y-52324000D02*
X118110000Y-58674000D01*
X138684000Y-52324000D02*
X140716000Y-52324000D01*
X143256000Y-54864000D02*
X146304000Y-54864000D01*
X140716000Y-52324000D02*
X143256000Y-54864000D01*
X146304000Y-54864000D02*
X146304000Y-57404000D01*
X161290000Y-49784000D02*
X161290000Y-44704000D01*
X158750000Y-40891208D02*
X158750000Y-38100000D01*
X161290000Y-43431208D02*
X158750000Y-40891208D01*
X161290000Y-44704000D02*
X161290000Y-43431208D01*
X146304000Y-54864000D02*
X160020000Y-54864000D01*
X161290000Y-53594000D02*
X161290000Y-49784000D01*
X160020000Y-54864000D02*
X161290000Y-53594000D01*
D24*
G36*
X173330000Y-36111198D02*
G01*
X171759804Y-34541003D01*
X171736001Y-34511999D01*
X171620276Y-34417026D01*
X171488247Y-34346454D01*
X171344986Y-34302997D01*
X171233333Y-34292000D01*
X171233322Y-34292000D01*
X171196000Y-34288324D01*
X171158678Y-34292000D01*
X143293323Y-34292000D01*
X143256000Y-34288324D01*
X143218677Y-34292000D01*
X143218667Y-34292000D01*
X143107014Y-34302997D01*
X142963753Y-34346454D01*
X142831723Y-34417026D01*
X142748083Y-34485668D01*
X142715999Y-34511999D01*
X142692201Y-34540997D01*
X140909199Y-36324000D01*
X140122072Y-36324000D01*
X140122072Y-36284000D01*
X140109812Y-36159518D01*
X140073502Y-36039820D01*
X140014537Y-35929506D01*
X139935185Y-35832815D01*
X139838494Y-35753463D01*
X139728180Y-35694498D01*
X139608482Y-35658188D01*
X139484000Y-35645928D01*
X137884000Y-35645928D01*
X137759518Y-35658188D01*
X137639820Y-35694498D01*
X137529506Y-35753463D01*
X137432815Y-35832815D01*
X137353463Y-35929506D01*
X137294498Y-36039820D01*
X137258188Y-36159518D01*
X137245928Y-36284000D01*
X137245928Y-37884000D01*
X137258188Y-38008482D01*
X137294498Y-38128180D01*
X137353463Y-38238494D01*
X137432815Y-38335185D01*
X137529506Y-38414537D01*
X137639820Y-38473502D01*
X137759518Y-38509812D01*
X137767961Y-38510643D01*
X137569363Y-38709241D01*
X137412320Y-38944273D01*
X137304147Y-39205426D01*
X137249000Y-39482665D01*
X137249000Y-39765335D01*
X137304147Y-40042574D01*
X137412320Y-40303727D01*
X137569363Y-40538759D01*
X137769241Y-40738637D01*
X138001759Y-40894000D01*
X137769241Y-41049363D01*
X137569363Y-41249241D01*
X137412320Y-41484273D01*
X137304147Y-41745426D01*
X137249000Y-42022665D01*
X137249000Y-42305335D01*
X137304147Y-42582574D01*
X137412320Y-42843727D01*
X137569363Y-43078759D01*
X137769241Y-43278637D01*
X138001759Y-43434000D01*
X137769241Y-43589363D01*
X137569363Y-43789241D01*
X137412320Y-44024273D01*
X137304147Y-44285426D01*
X137249000Y-44562665D01*
X137249000Y-44845335D01*
X137304147Y-45122574D01*
X137412320Y-45383727D01*
X137569363Y-45618759D01*
X137769241Y-45818637D01*
X138001759Y-45974000D01*
X137769241Y-46129363D01*
X137569363Y-46329241D01*
X137412320Y-46564273D01*
X137304147Y-46825426D01*
X137249000Y-47102665D01*
X137249000Y-47385335D01*
X137304147Y-47662574D01*
X137412320Y-47923727D01*
X137569363Y-48158759D01*
X137769241Y-48358637D01*
X138001759Y-48514000D01*
X137769241Y-48669363D01*
X137569363Y-48869241D01*
X137412320Y-49104273D01*
X137304147Y-49365426D01*
X137249000Y-49642665D01*
X137249000Y-49925335D01*
X137304147Y-50202574D01*
X137412320Y-50463727D01*
X137569363Y-50698759D01*
X137769241Y-50898637D01*
X138001759Y-51054000D01*
X137769241Y-51209363D01*
X137569363Y-51409241D01*
X137516070Y-51489000D01*
X124501018Y-51489000D01*
X124459999Y-51484960D01*
X124418981Y-51489000D01*
X124296311Y-51501082D01*
X124138913Y-51548828D01*
X123993854Y-51626364D01*
X123866709Y-51730709D01*
X123840559Y-51762573D01*
X117548579Y-58054554D01*
X117516709Y-58080709D01*
X117412365Y-58207854D01*
X117412364Y-58207855D01*
X117334828Y-58352914D01*
X117287082Y-58510312D01*
X117270960Y-58674000D01*
X117275000Y-58715019D01*
X117275001Y-68875934D01*
X117163368Y-68950525D01*
X116956525Y-69157368D01*
X116840000Y-69331760D01*
X116723475Y-69157368D01*
X116516632Y-68950525D01*
X116273411Y-68788010D01*
X116003158Y-68676068D01*
X115716260Y-68619000D01*
X115423740Y-68619000D01*
X115136842Y-68676068D01*
X114866589Y-68788010D01*
X114623368Y-68950525D01*
X114416525Y-69157368D01*
X114254010Y-69400589D01*
X114142068Y-69670842D01*
X114085000Y-69957740D01*
X114085000Y-70250260D01*
X114142068Y-70537158D01*
X114254010Y-70807411D01*
X114416525Y-71050632D01*
X114623368Y-71257475D01*
X114866589Y-71419990D01*
X115136842Y-71531932D01*
X115423740Y-71589000D01*
X115716260Y-71589000D01*
X116003158Y-71531932D01*
X116273411Y-71419990D01*
X116516632Y-71257475D01*
X116723475Y-71050632D01*
X116840000Y-70876240D01*
X116956525Y-71050632D01*
X117163368Y-71257475D01*
X117406589Y-71419990D01*
X117676842Y-71531932D01*
X117963740Y-71589000D01*
X118256260Y-71589000D01*
X118543158Y-71531932D01*
X118813411Y-71419990D01*
X119056632Y-71257475D01*
X119188487Y-71125620D01*
X119210498Y-71198180D01*
X119269463Y-71308494D01*
X119348815Y-71405185D01*
X119445506Y-71484537D01*
X119555820Y-71543502D01*
X119675518Y-71579812D01*
X119800000Y-71592072D01*
X121500000Y-71592072D01*
X121624482Y-71579812D01*
X121744180Y-71543502D01*
X121854494Y-71484537D01*
X121951185Y-71405185D01*
X122030537Y-71308494D01*
X122089502Y-71198180D01*
X122125812Y-71078482D01*
X122138072Y-70954000D01*
X122138072Y-69254000D01*
X122125812Y-69129518D01*
X122089502Y-69009820D01*
X122030537Y-68899506D01*
X121951185Y-68802815D01*
X121854494Y-68723463D01*
X121744180Y-68664498D01*
X121624482Y-68628188D01*
X121500000Y-68615928D01*
X119800000Y-68615928D01*
X119675518Y-68628188D01*
X119555820Y-68664498D01*
X119445506Y-68723463D01*
X119348815Y-68802815D01*
X119269463Y-68899506D01*
X119210498Y-69009820D01*
X119188487Y-69082380D01*
X119056632Y-68950525D01*
X118945000Y-68875935D01*
X118945000Y-60823589D01*
X130695000Y-60823589D01*
X130695000Y-61096411D01*
X130748225Y-61363989D01*
X130852629Y-61616043D01*
X131004201Y-61842886D01*
X131197114Y-62035799D01*
X131423957Y-62187371D01*
X131676011Y-62291775D01*
X131943589Y-62345000D01*
X132216411Y-62345000D01*
X132483989Y-62291775D01*
X132736043Y-62187371D01*
X132962886Y-62035799D01*
X133155799Y-61842886D01*
X133307371Y-61616043D01*
X133411775Y-61363989D01*
X133465000Y-61096411D01*
X133465000Y-60823589D01*
X133411775Y-60556011D01*
X133307371Y-60303957D01*
X133155799Y-60077114D01*
X132962886Y-59884201D01*
X132736043Y-59732629D01*
X132483989Y-59628225D01*
X132216411Y-59575000D01*
X131943589Y-59575000D01*
X131676011Y-59628225D01*
X131423957Y-59732629D01*
X131197114Y-59884201D01*
X131004201Y-60077114D01*
X130852629Y-60303957D01*
X130748225Y-60556011D01*
X130695000Y-60823589D01*
X118945000Y-60823589D01*
X118945000Y-59019867D01*
X122021278Y-55943589D01*
X130695000Y-55943589D01*
X130695000Y-56216411D01*
X130748225Y-56483989D01*
X130852629Y-56736043D01*
X131004201Y-56962886D01*
X131197114Y-57155799D01*
X131423957Y-57307371D01*
X131676011Y-57411775D01*
X131943589Y-57465000D01*
X132216411Y-57465000D01*
X132483989Y-57411775D01*
X132736043Y-57307371D01*
X132802950Y-57262665D01*
X137249000Y-57262665D01*
X137249000Y-57545335D01*
X137304147Y-57822574D01*
X137412320Y-58083727D01*
X137569363Y-58318759D01*
X137769241Y-58518637D01*
X138001759Y-58674000D01*
X137769241Y-58829363D01*
X137569363Y-59029241D01*
X137412320Y-59264273D01*
X137304147Y-59525426D01*
X137249000Y-59802665D01*
X137249000Y-60085335D01*
X137304147Y-60362574D01*
X137412320Y-60623727D01*
X137569363Y-60858759D01*
X137769241Y-61058637D01*
X138001759Y-61214000D01*
X137769241Y-61369363D01*
X137569363Y-61569241D01*
X137412320Y-61804273D01*
X137304147Y-62065426D01*
X137249000Y-62342665D01*
X137249000Y-62625335D01*
X137304147Y-62902574D01*
X137412320Y-63163727D01*
X137569363Y-63398759D01*
X137769241Y-63598637D01*
X138001759Y-63754000D01*
X137769241Y-63909363D01*
X137569363Y-64109241D01*
X137412320Y-64344273D01*
X137304147Y-64605426D01*
X137249000Y-64882665D01*
X137249000Y-65165335D01*
X137304147Y-65442574D01*
X137412320Y-65703727D01*
X137569363Y-65938759D01*
X137769241Y-66138637D01*
X138001759Y-66294000D01*
X137769241Y-66449363D01*
X137569363Y-66649241D01*
X137412320Y-66884273D01*
X137304147Y-67145426D01*
X137249000Y-67422665D01*
X137249000Y-67705335D01*
X137304147Y-67982574D01*
X137412320Y-68243727D01*
X137569363Y-68478759D01*
X137769241Y-68678637D01*
X138001759Y-68834000D01*
X137769241Y-68989363D01*
X137569363Y-69189241D01*
X137412320Y-69424273D01*
X137304147Y-69685426D01*
X137249000Y-69962665D01*
X137249000Y-70245335D01*
X137304147Y-70522574D01*
X137412320Y-70783727D01*
X137569363Y-71018759D01*
X137769241Y-71218637D01*
X138004273Y-71375680D01*
X138265426Y-71483853D01*
X138542665Y-71539000D01*
X138825335Y-71539000D01*
X139102574Y-71483853D01*
X139363727Y-71375680D01*
X139598759Y-71218637D01*
X139798637Y-71018759D01*
X139955680Y-70783727D01*
X140063853Y-70522574D01*
X140119000Y-70245335D01*
X140119000Y-69962665D01*
X140063853Y-69685426D01*
X139955680Y-69424273D01*
X139798637Y-69189241D01*
X139598759Y-68989363D01*
X139366241Y-68834000D01*
X139598759Y-68678637D01*
X139798637Y-68478759D01*
X139955680Y-68243727D01*
X140063853Y-67982574D01*
X140119000Y-67705335D01*
X140119000Y-67422665D01*
X140063853Y-67145426D01*
X139955680Y-66884273D01*
X139798637Y-66649241D01*
X139598759Y-66449363D01*
X139366241Y-66294000D01*
X139598759Y-66138637D01*
X139798637Y-65938759D01*
X139955680Y-65703727D01*
X140063853Y-65442574D01*
X140119000Y-65165335D01*
X140119000Y-64882665D01*
X140063853Y-64605426D01*
X139955680Y-64344273D01*
X139798637Y-64109241D01*
X139598759Y-63909363D01*
X139366241Y-63754000D01*
X139598759Y-63598637D01*
X139798637Y-63398759D01*
X139955680Y-63163727D01*
X140063853Y-62902574D01*
X140119000Y-62625335D01*
X140119000Y-62342665D01*
X140063853Y-62065426D01*
X139955680Y-61804273D01*
X139798637Y-61569241D01*
X139598759Y-61369363D01*
X139366241Y-61214000D01*
X139598759Y-61058637D01*
X139798637Y-60858759D01*
X139955680Y-60623727D01*
X140063853Y-60362574D01*
X140119000Y-60085335D01*
X140119000Y-59802665D01*
X140063853Y-59525426D01*
X139955680Y-59264273D01*
X139798637Y-59029241D01*
X139598759Y-58829363D01*
X139366241Y-58674000D01*
X139598759Y-58518637D01*
X139798637Y-58318759D01*
X139955680Y-58083727D01*
X140063853Y-57822574D01*
X140119000Y-57545335D01*
X140119000Y-57262665D01*
X140063853Y-56985426D01*
X139955680Y-56724273D01*
X139798637Y-56489241D01*
X139598759Y-56289363D01*
X139363727Y-56132320D01*
X139353135Y-56127933D01*
X139539131Y-56016385D01*
X139747519Y-55827414D01*
X139915037Y-55601420D01*
X140035246Y-55347087D01*
X140075904Y-55213039D01*
X139953915Y-54991000D01*
X138811000Y-54991000D01*
X138811000Y-55011000D01*
X138557000Y-55011000D01*
X138557000Y-54991000D01*
X137414085Y-54991000D01*
X137292096Y-55213039D01*
X137332754Y-55347087D01*
X137452963Y-55601420D01*
X137620481Y-55827414D01*
X137828869Y-56016385D01*
X138014865Y-56127933D01*
X138004273Y-56132320D01*
X137769241Y-56289363D01*
X137569363Y-56489241D01*
X137412320Y-56724273D01*
X137304147Y-56985426D01*
X137249000Y-57262665D01*
X132802950Y-57262665D01*
X132962886Y-57155799D01*
X133155799Y-56962886D01*
X133307371Y-56736043D01*
X133411775Y-56483989D01*
X133465000Y-56216411D01*
X133465000Y-55943589D01*
X133411775Y-55676011D01*
X133307371Y-55423957D01*
X133155799Y-55197114D01*
X132962886Y-55004201D01*
X132736043Y-54852629D01*
X132483989Y-54748225D01*
X132216411Y-54695000D01*
X131943589Y-54695000D01*
X131676011Y-54748225D01*
X131423957Y-54852629D01*
X131197114Y-55004201D01*
X131004201Y-55197114D01*
X130852629Y-55423957D01*
X130748225Y-55676011D01*
X130695000Y-55943589D01*
X122021278Y-55943589D01*
X124805868Y-53159000D01*
X137516070Y-53159000D01*
X137569363Y-53238759D01*
X137769241Y-53438637D01*
X138004273Y-53595680D01*
X138014865Y-53600067D01*
X137828869Y-53711615D01*
X137620481Y-53900586D01*
X137452963Y-54126580D01*
X137332754Y-54380913D01*
X137292096Y-54514961D01*
X137414085Y-54737000D01*
X138557000Y-54737000D01*
X138557000Y-54717000D01*
X138811000Y-54717000D01*
X138811000Y-54737000D01*
X139953915Y-54737000D01*
X140075904Y-54514961D01*
X140035246Y-54380913D01*
X139915037Y-54126580D01*
X139747519Y-53900586D01*
X139539131Y-53711615D01*
X139353135Y-53600067D01*
X139363727Y-53595680D01*
X139598759Y-53438637D01*
X139798637Y-53238759D01*
X139851930Y-53159000D01*
X140370133Y-53159000D01*
X142636559Y-55425427D01*
X142662709Y-55457291D01*
X142789854Y-55561636D01*
X142934913Y-55639172D01*
X143092311Y-55686918D01*
X143214981Y-55699000D01*
X143214991Y-55699000D01*
X143255999Y-55703039D01*
X143297007Y-55699000D01*
X145136070Y-55699000D01*
X145189363Y-55778759D01*
X145389241Y-55978637D01*
X145469000Y-56031930D01*
X145469001Y-56236070D01*
X145389241Y-56289363D01*
X145189363Y-56489241D01*
X145032320Y-56724273D01*
X144924147Y-56985426D01*
X144869000Y-57262665D01*
X144869000Y-57545335D01*
X144924147Y-57822574D01*
X145032320Y-58083727D01*
X145189363Y-58318759D01*
X145389241Y-58518637D01*
X145621759Y-58674000D01*
X145389241Y-58829363D01*
X145189363Y-59029241D01*
X145032320Y-59264273D01*
X144924147Y-59525426D01*
X144869000Y-59802665D01*
X144869000Y-60085335D01*
X144924147Y-60362574D01*
X145032320Y-60623727D01*
X145189363Y-60858759D01*
X145389241Y-61058637D01*
X145621759Y-61214000D01*
X145389241Y-61369363D01*
X145189363Y-61569241D01*
X145032320Y-61804273D01*
X144924147Y-62065426D01*
X144869000Y-62342665D01*
X144869000Y-62625335D01*
X144924147Y-62902574D01*
X145032320Y-63163727D01*
X145189363Y-63398759D01*
X145389241Y-63598637D01*
X145621759Y-63754000D01*
X145389241Y-63909363D01*
X145189363Y-64109241D01*
X145032320Y-64344273D01*
X144924147Y-64605426D01*
X144869000Y-64882665D01*
X144869000Y-65165335D01*
X144924147Y-65442574D01*
X145032320Y-65703727D01*
X145189363Y-65938759D01*
X145389241Y-66138637D01*
X145621759Y-66294000D01*
X145389241Y-66449363D01*
X145189363Y-66649241D01*
X145032320Y-66884273D01*
X144924147Y-67145426D01*
X144869000Y-67422665D01*
X144869000Y-67705335D01*
X144924147Y-67982574D01*
X145032320Y-68243727D01*
X145189363Y-68478759D01*
X145389241Y-68678637D01*
X145621759Y-68834000D01*
X145389241Y-68989363D01*
X145189363Y-69189241D01*
X145032320Y-69424273D01*
X144924147Y-69685426D01*
X144869000Y-69962665D01*
X144869000Y-70245335D01*
X144924147Y-70522574D01*
X145032320Y-70783727D01*
X145189363Y-71018759D01*
X145389241Y-71218637D01*
X145624273Y-71375680D01*
X145885426Y-71483853D01*
X146162665Y-71539000D01*
X146445335Y-71539000D01*
X146722574Y-71483853D01*
X146983727Y-71375680D01*
X147218759Y-71218637D01*
X147418637Y-71018759D01*
X147575680Y-70783727D01*
X147683853Y-70522574D01*
X147739000Y-70245335D01*
X147739000Y-69962665D01*
X147683853Y-69685426D01*
X147636745Y-69571695D01*
X166326520Y-69571695D01*
X166395822Y-70323938D01*
X166610548Y-71048208D01*
X166962445Y-71716670D01*
X166989452Y-71757088D01*
X167479119Y-72117276D01*
X170000395Y-69596000D01*
X167479119Y-67074724D01*
X166989452Y-67434912D01*
X166629151Y-68098882D01*
X166405306Y-68820385D01*
X166326520Y-69571695D01*
X147636745Y-69571695D01*
X147575680Y-69424273D01*
X147418637Y-69189241D01*
X147218759Y-68989363D01*
X146986241Y-68834000D01*
X147218759Y-68678637D01*
X147418637Y-68478759D01*
X147575680Y-68243727D01*
X147683853Y-67982574D01*
X147739000Y-67705335D01*
X147739000Y-67422665D01*
X147683853Y-67145426D01*
X147575680Y-66884273D01*
X147418637Y-66649241D01*
X147218759Y-66449363D01*
X146986241Y-66294000D01*
X147218759Y-66138637D01*
X147418637Y-65938759D01*
X147575680Y-65703727D01*
X147683853Y-65442574D01*
X147739000Y-65165335D01*
X147739000Y-64882665D01*
X147683853Y-64605426D01*
X147575680Y-64344273D01*
X147418637Y-64109241D01*
X147218759Y-63909363D01*
X146986241Y-63754000D01*
X147218759Y-63598637D01*
X147418637Y-63398759D01*
X147575680Y-63163727D01*
X147683853Y-62902574D01*
X147739000Y-62625335D01*
X147739000Y-62342665D01*
X147683853Y-62065426D01*
X147575680Y-61804273D01*
X147418637Y-61569241D01*
X147218759Y-61369363D01*
X146986241Y-61214000D01*
X147218759Y-61058637D01*
X147418637Y-60858759D01*
X147575680Y-60623727D01*
X147683853Y-60362574D01*
X147739000Y-60085335D01*
X147739000Y-59802665D01*
X147683853Y-59525426D01*
X147575680Y-59264273D01*
X147418637Y-59029241D01*
X147218759Y-58829363D01*
X146986241Y-58674000D01*
X147218759Y-58518637D01*
X147418637Y-58318759D01*
X147575680Y-58083727D01*
X147683853Y-57822574D01*
X147739000Y-57545335D01*
X147739000Y-57262665D01*
X147683853Y-56985426D01*
X147575680Y-56724273D01*
X147418637Y-56489241D01*
X147218759Y-56289363D01*
X147139000Y-56236070D01*
X147139000Y-56031930D01*
X147218759Y-55978637D01*
X147418637Y-55778759D01*
X147471930Y-55699000D01*
X159978982Y-55699000D01*
X160020000Y-55703040D01*
X160061018Y-55699000D01*
X160061019Y-55699000D01*
X160183689Y-55686918D01*
X160341087Y-55639172D01*
X160486146Y-55561636D01*
X160613291Y-55457291D01*
X160639446Y-55425421D01*
X161851428Y-54213440D01*
X161883291Y-54187291D01*
X161987636Y-54060146D01*
X162065172Y-53915087D01*
X162112918Y-53757689D01*
X162125000Y-53635019D01*
X162125000Y-53635017D01*
X162129040Y-53594001D01*
X162125000Y-53552985D01*
X162125000Y-51072199D01*
X162268505Y-50976312D01*
X162482312Y-50762505D01*
X162650299Y-50511095D01*
X162766011Y-50231743D01*
X162825000Y-49935184D01*
X162825000Y-49632816D01*
X162766011Y-49336257D01*
X162650299Y-49056905D01*
X162482312Y-48805495D01*
X162268505Y-48591688D01*
X162125000Y-48495801D01*
X162125000Y-45992199D01*
X162268505Y-45896312D01*
X162482312Y-45682505D01*
X162650299Y-45431095D01*
X162766011Y-45151743D01*
X162825000Y-44855184D01*
X162825000Y-44552816D01*
X162766011Y-44256257D01*
X162650299Y-43976905D01*
X162482312Y-43725495D01*
X162268505Y-43511688D01*
X162127699Y-43417604D01*
X162125000Y-43390199D01*
X162125000Y-43390189D01*
X162112918Y-43267519D01*
X162065172Y-43110121D01*
X161987636Y-42965062D01*
X161883291Y-42837917D01*
X161851427Y-42811767D01*
X159585000Y-40545341D01*
X159585000Y-39588072D01*
X159600000Y-39588072D01*
X159724482Y-39575812D01*
X159844180Y-39539502D01*
X159954494Y-39480537D01*
X160051185Y-39401185D01*
X160130537Y-39304494D01*
X160189502Y-39194180D01*
X160211513Y-39121620D01*
X160343368Y-39253475D01*
X160586589Y-39415990D01*
X160856842Y-39527932D01*
X161143740Y-39585000D01*
X161436260Y-39585000D01*
X161723158Y-39527932D01*
X161993411Y-39415990D01*
X162236632Y-39253475D01*
X162443475Y-39046632D01*
X162605990Y-38803411D01*
X162717932Y-38533158D01*
X162775000Y-38246260D01*
X162775000Y-37953740D01*
X162717932Y-37666842D01*
X162605990Y-37396589D01*
X162443475Y-37153368D01*
X162236632Y-36946525D01*
X161993411Y-36784010D01*
X161836460Y-36718999D01*
X163116200Y-36718999D01*
X164340000Y-37942800D01*
X164340001Y-40856668D01*
X164336324Y-40894000D01*
X164340001Y-40931333D01*
X164350998Y-41042986D01*
X164364180Y-41086442D01*
X164394454Y-41186246D01*
X164465026Y-41318276D01*
X164531273Y-41398997D01*
X164560000Y-41434001D01*
X164588998Y-41457799D01*
X165552200Y-42421002D01*
X165575999Y-42450001D01*
X165604997Y-42473799D01*
X165691723Y-42544974D01*
X165780016Y-42592168D01*
X165823753Y-42615546D01*
X165967014Y-42659003D01*
X166078667Y-42670000D01*
X166078677Y-42670000D01*
X166116000Y-42673676D01*
X166153322Y-42670000D01*
X166243897Y-42670000D01*
X166212068Y-42746842D01*
X166155000Y-43033740D01*
X166155000Y-43326260D01*
X166212068Y-43613158D01*
X166324010Y-43883411D01*
X166486525Y-44126632D01*
X166693368Y-44333475D01*
X166867760Y-44450000D01*
X166693368Y-44566525D01*
X166486525Y-44773368D01*
X166324010Y-45016589D01*
X166212068Y-45286842D01*
X166155000Y-45573740D01*
X166155000Y-45866260D01*
X166212068Y-46153158D01*
X166324010Y-46423411D01*
X166486525Y-46666632D01*
X166693368Y-46873475D01*
X166867760Y-46990000D01*
X166693368Y-47106525D01*
X166486525Y-47313368D01*
X166324010Y-47556589D01*
X166212068Y-47826842D01*
X166155000Y-48113740D01*
X166155000Y-48406260D01*
X166212068Y-48693158D01*
X166324010Y-48963411D01*
X166486525Y-49206632D01*
X166693368Y-49413475D01*
X166936589Y-49575990D01*
X167206842Y-49687932D01*
X167493740Y-49745000D01*
X167786260Y-49745000D01*
X168073158Y-49687932D01*
X168343411Y-49575990D01*
X168586632Y-49413475D01*
X168793475Y-49206632D01*
X168911100Y-49030594D01*
X169082412Y-49260269D01*
X169298645Y-49455178D01*
X169548748Y-49604157D01*
X169823109Y-49701481D01*
X170053000Y-49580814D01*
X170053000Y-48387000D01*
X170307000Y-48387000D01*
X170307000Y-49580814D01*
X170536891Y-49701481D01*
X170811252Y-49604157D01*
X171061355Y-49455178D01*
X171277588Y-49260269D01*
X171451641Y-49026920D01*
X171576825Y-48764099D01*
X171621476Y-48616890D01*
X171500155Y-48387000D01*
X170307000Y-48387000D01*
X170053000Y-48387000D01*
X170033000Y-48387000D01*
X170033000Y-48133000D01*
X170053000Y-48133000D01*
X170053000Y-45847000D01*
X170307000Y-45847000D01*
X170307000Y-48133000D01*
X171500155Y-48133000D01*
X171621476Y-47903110D01*
X171576825Y-47755901D01*
X171451641Y-47493080D01*
X171277588Y-47259731D01*
X171061355Y-47064822D01*
X170935745Y-46990000D01*
X171061355Y-46915178D01*
X171277588Y-46720269D01*
X171451641Y-46486920D01*
X171576825Y-46224099D01*
X171621476Y-46076890D01*
X171500155Y-45847000D01*
X170307000Y-45847000D01*
X170053000Y-45847000D01*
X170033000Y-45847000D01*
X170033000Y-45593000D01*
X170053000Y-45593000D01*
X170053000Y-45573000D01*
X170307000Y-45573000D01*
X170307000Y-45593000D01*
X171500155Y-45593000D01*
X171621476Y-45363110D01*
X171576825Y-45215901D01*
X171451641Y-44953080D01*
X171277588Y-44719731D01*
X171061355Y-44524822D01*
X170944466Y-44455195D01*
X171126632Y-44333475D01*
X171333475Y-44126632D01*
X171495990Y-43883411D01*
X171607932Y-43613158D01*
X171665000Y-43326260D01*
X171665000Y-43033740D01*
X171607932Y-42746842D01*
X171495990Y-42476589D01*
X171333475Y-42233368D01*
X171126632Y-42026525D01*
X170952240Y-41910000D01*
X171126632Y-41793475D01*
X171333475Y-41586632D01*
X171495990Y-41343411D01*
X171607932Y-41073158D01*
X171665000Y-40786260D01*
X171665000Y-40493740D01*
X171607932Y-40206842D01*
X171495990Y-39936589D01*
X171333475Y-39693368D01*
X171126632Y-39486525D01*
X170952240Y-39370000D01*
X171126632Y-39253475D01*
X171333475Y-39046632D01*
X171495990Y-38803411D01*
X171607932Y-38533158D01*
X171665000Y-38246260D01*
X171665000Y-37953740D01*
X171607932Y-37666842D01*
X171528660Y-37475462D01*
X171960001Y-37906803D01*
X171960000Y-58359198D01*
X165986003Y-64333196D01*
X165985997Y-64333201D01*
X164531199Y-65788000D01*
X163382803Y-65788000D01*
X162107803Y-64513002D01*
X162084001Y-64483999D01*
X161968276Y-64389026D01*
X161836247Y-64318454D01*
X161692986Y-64274997D01*
X161581333Y-64264000D01*
X161581322Y-64264000D01*
X161544000Y-64260324D01*
X161506678Y-64264000D01*
X160469711Y-64264000D01*
X160425774Y-64220063D01*
X160256256Y-64106795D01*
X160067898Y-64028774D01*
X159867939Y-63989000D01*
X159664061Y-63989000D01*
X159464102Y-64028774D01*
X159275744Y-64106795D01*
X159106226Y-64220063D01*
X158962063Y-64364226D01*
X158848795Y-64533744D01*
X158770774Y-64722102D01*
X158769136Y-64730334D01*
X156716000Y-62677199D01*
X156716000Y-58107711D01*
X156759937Y-58063774D01*
X156873205Y-57894256D01*
X156951226Y-57705898D01*
X156991000Y-57505939D01*
X156991000Y-57302061D01*
X156951226Y-57102102D01*
X156873205Y-56913744D01*
X156759937Y-56744226D01*
X156615774Y-56600063D01*
X156446256Y-56486795D01*
X156257898Y-56408774D01*
X156057939Y-56369000D01*
X155854061Y-56369000D01*
X155654102Y-56408774D01*
X155465744Y-56486795D01*
X155296226Y-56600063D01*
X155152063Y-56744226D01*
X155038795Y-56913744D01*
X154960774Y-57102102D01*
X154921000Y-57302061D01*
X154921000Y-57505939D01*
X154960774Y-57705898D01*
X155038795Y-57894256D01*
X155152063Y-58063774D01*
X155196000Y-58107711D01*
X155196001Y-62954668D01*
X155192324Y-62992000D01*
X155206998Y-63140985D01*
X155250454Y-63284246D01*
X155321026Y-63416276D01*
X155392201Y-63503002D01*
X155416000Y-63532001D01*
X155444998Y-63555799D01*
X157968198Y-66079000D01*
X157841740Y-66079000D01*
X157554842Y-66136068D01*
X157284589Y-66248010D01*
X157041368Y-66410525D01*
X156834525Y-66617368D01*
X156672010Y-66860589D01*
X156560068Y-67130842D01*
X156503000Y-67417740D01*
X156503000Y-67710260D01*
X156560068Y-67997158D01*
X156672010Y-68267411D01*
X156834525Y-68510632D01*
X157041368Y-68717475D01*
X157284589Y-68879990D01*
X157554842Y-68991932D01*
X157841740Y-69049000D01*
X158134260Y-69049000D01*
X158421158Y-68991932D01*
X158691411Y-68879990D01*
X158934632Y-68717475D01*
X159066487Y-68585620D01*
X159088498Y-68658180D01*
X159147463Y-68768494D01*
X159226815Y-68865185D01*
X159323506Y-68944537D01*
X159433820Y-69003502D01*
X159553518Y-69039812D01*
X159678000Y-69052072D01*
X159873675Y-69052072D01*
X159893026Y-69088275D01*
X159987999Y-69204001D01*
X160103724Y-69298974D01*
X160235753Y-69369546D01*
X160379014Y-69413003D01*
X160528000Y-69427677D01*
X160676985Y-69413003D01*
X160820246Y-69369546D01*
X160952275Y-69298974D01*
X161068001Y-69204001D01*
X161162974Y-69088276D01*
X161182326Y-69052072D01*
X161378000Y-69052072D01*
X161502482Y-69039812D01*
X161622180Y-69003502D01*
X161732494Y-68944537D01*
X161829185Y-68865185D01*
X161908537Y-68768494D01*
X161967502Y-68658180D01*
X162003812Y-68538482D01*
X162016072Y-68414000D01*
X162016072Y-68324000D01*
X164683088Y-68324000D01*
X164720410Y-68327676D01*
X164757732Y-68324000D01*
X164757743Y-68324000D01*
X164869396Y-68313003D01*
X165012657Y-68269546D01*
X165144686Y-68198974D01*
X165260411Y-68104001D01*
X165284214Y-68074997D01*
X166464092Y-66895119D01*
X167658724Y-66895119D01*
X170180000Y-69416395D01*
X172701276Y-66895119D01*
X172341088Y-66405452D01*
X171677118Y-66045151D01*
X170955615Y-65821306D01*
X170204305Y-65742520D01*
X169452062Y-65811822D01*
X168727792Y-66026548D01*
X168059330Y-66378445D01*
X168018912Y-66405452D01*
X167658724Y-66895119D01*
X166464092Y-66895119D01*
X173330001Y-60029211D01*
X173330001Y-67405086D01*
X172880881Y-67074724D01*
X170359605Y-69596000D01*
X172880881Y-72117276D01*
X173330001Y-71786913D01*
X173330001Y-73000000D01*
X171946500Y-73000000D01*
X172300670Y-72813555D01*
X172341088Y-72786548D01*
X172701276Y-72296881D01*
X170180000Y-69775605D01*
X167658724Y-72296881D01*
X168018912Y-72786548D01*
X168412266Y-73000000D01*
X102260000Y-73000000D01*
X102260000Y-69375872D01*
X103429000Y-69375872D01*
X103429000Y-69816128D01*
X103514890Y-70247925D01*
X103683369Y-70654669D01*
X103927962Y-71020729D01*
X104239271Y-71332038D01*
X104605331Y-71576631D01*
X105012075Y-71745110D01*
X105443872Y-71831000D01*
X105884128Y-71831000D01*
X106315925Y-71745110D01*
X106722669Y-71576631D01*
X107088729Y-71332038D01*
X107400038Y-71020729D01*
X107644631Y-70654669D01*
X107813110Y-70247925D01*
X107899000Y-69816128D01*
X107899000Y-69375872D01*
X107813110Y-68944075D01*
X107644631Y-68537331D01*
X107400038Y-68171271D01*
X107088729Y-67859962D01*
X106722669Y-67615369D01*
X106315925Y-67446890D01*
X105884128Y-67361000D01*
X105443872Y-67361000D01*
X105012075Y-67446890D01*
X104605331Y-67615369D01*
X104239271Y-67859962D01*
X103927962Y-68171271D01*
X103683369Y-68537331D01*
X103514890Y-68944075D01*
X103429000Y-69375872D01*
X102260000Y-69375872D01*
X102260000Y-62968702D01*
X105906903Y-62968702D01*
X105978486Y-63212671D01*
X106233996Y-63333571D01*
X106508184Y-63402300D01*
X106790512Y-63416217D01*
X107070130Y-63374787D01*
X107336292Y-63279603D01*
X107461514Y-63212671D01*
X107533097Y-62968702D01*
X106720000Y-62155605D01*
X105906903Y-62968702D01*
X102260000Y-62968702D01*
X102260000Y-62046512D01*
X105279783Y-62046512D01*
X105321213Y-62326130D01*
X105416397Y-62592292D01*
X105483329Y-62717514D01*
X105727298Y-62789097D01*
X106540395Y-61976000D01*
X106899605Y-61976000D01*
X107712702Y-62789097D01*
X107781928Y-62768785D01*
X107781928Y-62776000D01*
X107794188Y-62900482D01*
X107830498Y-63020180D01*
X107889463Y-63130494D01*
X107968815Y-63227185D01*
X108065506Y-63306537D01*
X108175820Y-63365502D01*
X108295518Y-63401812D01*
X108420000Y-63414072D01*
X110020000Y-63414072D01*
X110144482Y-63401812D01*
X110264180Y-63365502D01*
X110374494Y-63306537D01*
X110471185Y-63227185D01*
X110550537Y-63130494D01*
X110609502Y-63020180D01*
X110645812Y-62900482D01*
X110658072Y-62776000D01*
X110658072Y-61176000D01*
X110645812Y-61051518D01*
X110609502Y-60931820D01*
X110550537Y-60821506D01*
X110471185Y-60724815D01*
X110374494Y-60645463D01*
X110264180Y-60586498D01*
X110144482Y-60550188D01*
X110020000Y-60537928D01*
X108420000Y-60537928D01*
X108295518Y-60550188D01*
X108175820Y-60586498D01*
X108065506Y-60645463D01*
X107968815Y-60724815D01*
X107889463Y-60821506D01*
X107830498Y-60931820D01*
X107794188Y-61051518D01*
X107781928Y-61176000D01*
X107781928Y-61183215D01*
X107712702Y-61162903D01*
X106899605Y-61976000D01*
X106540395Y-61976000D01*
X105727298Y-61162903D01*
X105483329Y-61234486D01*
X105362429Y-61489996D01*
X105293700Y-61764184D01*
X105279783Y-62046512D01*
X102260000Y-62046512D01*
X102260000Y-60983298D01*
X105906903Y-60983298D01*
X106720000Y-61796395D01*
X107533097Y-60983298D01*
X107461514Y-60739329D01*
X107206004Y-60618429D01*
X106931816Y-60549700D01*
X106649488Y-60535783D01*
X106369870Y-60577213D01*
X106103708Y-60672397D01*
X105978486Y-60739329D01*
X105906903Y-60983298D01*
X102260000Y-60983298D01*
X102260000Y-54699609D01*
X105559997Y-54699609D01*
X105746073Y-55040766D01*
X106163409Y-55256513D01*
X106614815Y-55386696D01*
X107082946Y-55426313D01*
X107549811Y-55373842D01*
X107997468Y-55231297D01*
X108353927Y-55040766D01*
X108540003Y-54699609D01*
X107050000Y-53209605D01*
X105559997Y-54699609D01*
X102260000Y-54699609D01*
X102260000Y-53062946D01*
X104653687Y-53062946D01*
X104706158Y-53529811D01*
X104848703Y-53977468D01*
X105039234Y-54333927D01*
X105380391Y-54520003D01*
X106870395Y-53030000D01*
X107229605Y-53030000D01*
X108719609Y-54520003D01*
X109060766Y-54333927D01*
X109276513Y-53916591D01*
X109406696Y-53465185D01*
X109446313Y-52997054D01*
X109393842Y-52530189D01*
X109251297Y-52082532D01*
X109060766Y-51726073D01*
X108719609Y-51539997D01*
X107229605Y-53030000D01*
X106870395Y-53030000D01*
X105380391Y-51539997D01*
X105039234Y-51726073D01*
X104823487Y-52143409D01*
X104693304Y-52594815D01*
X104653687Y-53062946D01*
X102260000Y-53062946D01*
X102260000Y-51360391D01*
X105559997Y-51360391D01*
X107050000Y-52850395D01*
X108540003Y-51360391D01*
X108353927Y-51019234D01*
X107936591Y-50803487D01*
X107485185Y-50673304D01*
X107017054Y-50633687D01*
X106550189Y-50686158D01*
X106102532Y-50828703D01*
X105746073Y-51019234D01*
X105559997Y-51360391D01*
X102260000Y-51360391D01*
X102260000Y-48328531D01*
X108269389Y-48328531D01*
X108311401Y-48618019D01*
X108409081Y-48893747D01*
X108482528Y-49031157D01*
X108731603Y-49108792D01*
X109580395Y-48260000D01*
X108731603Y-47411208D01*
X108482528Y-47488843D01*
X108356629Y-47752883D01*
X108284661Y-48036411D01*
X108269389Y-48328531D01*
X102260000Y-48328531D01*
X102260000Y-45613740D01*
X108275000Y-45613740D01*
X108275000Y-45906260D01*
X108332068Y-46193158D01*
X108444010Y-46463411D01*
X108606525Y-46706632D01*
X108813368Y-46913475D01*
X108976410Y-47022416D01*
X108911208Y-47231603D01*
X109760000Y-48080395D01*
X109774143Y-48066253D01*
X109953748Y-48245858D01*
X109939605Y-48260000D01*
X109953748Y-48274143D01*
X109774143Y-48453748D01*
X109760000Y-48439605D01*
X108911208Y-49288397D01*
X108988843Y-49537472D01*
X109252883Y-49663371D01*
X109536411Y-49735339D01*
X109828531Y-49750611D01*
X110118019Y-49708599D01*
X110393747Y-49610919D01*
X110469850Y-49570241D01*
X110555506Y-49640537D01*
X110665820Y-49699502D01*
X110785518Y-49735812D01*
X110910000Y-49748072D01*
X112610000Y-49748072D01*
X112734482Y-49735812D01*
X112854180Y-49699502D01*
X112964494Y-49640537D01*
X113061185Y-49561185D01*
X113140537Y-49464494D01*
X113199502Y-49354180D01*
X113235812Y-49234482D01*
X113248072Y-49110000D01*
X113248072Y-47410000D01*
X113235812Y-47285518D01*
X113199502Y-47165820D01*
X113140537Y-47055506D01*
X113061185Y-46958815D01*
X112964494Y-46879463D01*
X112854180Y-46820498D01*
X112812310Y-46807797D01*
X112913475Y-46706632D01*
X113075990Y-46463411D01*
X113187932Y-46193158D01*
X113245000Y-45906260D01*
X113245000Y-45613740D01*
X113187932Y-45326842D01*
X113075990Y-45056589D01*
X112913475Y-44813368D01*
X112706632Y-44606525D01*
X112463411Y-44444010D01*
X112193158Y-44332068D01*
X111906260Y-44275000D01*
X111613740Y-44275000D01*
X111326842Y-44332068D01*
X111056589Y-44444010D01*
X110813368Y-44606525D01*
X110760000Y-44659893D01*
X110706632Y-44606525D01*
X110463411Y-44444010D01*
X110193158Y-44332068D01*
X109906260Y-44275000D01*
X109613740Y-44275000D01*
X109326842Y-44332068D01*
X109056589Y-44444010D01*
X108813368Y-44606525D01*
X108606525Y-44813368D01*
X108444010Y-45056589D01*
X108332068Y-45326842D01*
X108275000Y-45613740D01*
X102260000Y-45613740D01*
X102260000Y-42659609D01*
X105559997Y-42659609D01*
X105746073Y-43000766D01*
X106163409Y-43216513D01*
X106614815Y-43346696D01*
X107082946Y-43386313D01*
X107549811Y-43333842D01*
X107997468Y-43191297D01*
X108353927Y-43000766D01*
X108540003Y-42659609D01*
X107050000Y-41169605D01*
X105559997Y-42659609D01*
X102260000Y-42659609D01*
X102260000Y-41022946D01*
X104653687Y-41022946D01*
X104706158Y-41489811D01*
X104848703Y-41937468D01*
X105039234Y-42293927D01*
X105380391Y-42480003D01*
X106870395Y-40990000D01*
X107229605Y-40990000D01*
X108719609Y-42480003D01*
X109060766Y-42293927D01*
X109276513Y-41876591D01*
X109406696Y-41425185D01*
X109446313Y-40957054D01*
X109393842Y-40490189D01*
X109251297Y-40042532D01*
X109060766Y-39686073D01*
X108719609Y-39499997D01*
X107229605Y-40990000D01*
X106870395Y-40990000D01*
X105380391Y-39499997D01*
X105039234Y-39686073D01*
X104823487Y-40103409D01*
X104693304Y-40554815D01*
X104653687Y-41022946D01*
X102260000Y-41022946D01*
X102260000Y-39320391D01*
X105559997Y-39320391D01*
X107050000Y-40810395D01*
X108540003Y-39320391D01*
X108353927Y-38979234D01*
X107936591Y-38763487D01*
X107485185Y-38633304D01*
X107017054Y-38593687D01*
X106550189Y-38646158D01*
X106102532Y-38788703D01*
X105746073Y-38979234D01*
X105559997Y-39320391D01*
X102260000Y-39320391D01*
X102260000Y-36863872D01*
X128829000Y-36863872D01*
X128829000Y-37304128D01*
X128914890Y-37735925D01*
X129083369Y-38142669D01*
X129327962Y-38508729D01*
X129639271Y-38820038D01*
X130005331Y-39064631D01*
X130412075Y-39233110D01*
X130843872Y-39319000D01*
X131284128Y-39319000D01*
X131715925Y-39233110D01*
X132122669Y-39064631D01*
X132488729Y-38820038D01*
X132800038Y-38508729D01*
X133044631Y-38142669D01*
X133213110Y-37735925D01*
X133299000Y-37304128D01*
X133299000Y-36863872D01*
X133213110Y-36432075D01*
X133044631Y-36025331D01*
X132800038Y-35659271D01*
X132488729Y-35347962D01*
X132122669Y-35103369D01*
X131715925Y-34934890D01*
X131284128Y-34849000D01*
X130843872Y-34849000D01*
X130412075Y-34934890D01*
X130005331Y-35103369D01*
X129639271Y-35347962D01*
X129327962Y-35659271D01*
X129083369Y-36025331D01*
X128914890Y-36432075D01*
X128829000Y-36863872D01*
X102260000Y-36863872D01*
X102260000Y-33680000D01*
X173330000Y-33680000D01*
X173330000Y-36111198D01*
G37*
X173330000Y-36111198D02*
X171759804Y-34541003D01*
X171736001Y-34511999D01*
X171620276Y-34417026D01*
X171488247Y-34346454D01*
X171344986Y-34302997D01*
X171233333Y-34292000D01*
X171233322Y-34292000D01*
X171196000Y-34288324D01*
X171158678Y-34292000D01*
X143293323Y-34292000D01*
X143256000Y-34288324D01*
X143218677Y-34292000D01*
X143218667Y-34292000D01*
X143107014Y-34302997D01*
X142963753Y-34346454D01*
X142831723Y-34417026D01*
X142748083Y-34485668D01*
X142715999Y-34511999D01*
X142692201Y-34540997D01*
X140909199Y-36324000D01*
X140122072Y-36324000D01*
X140122072Y-36284000D01*
X140109812Y-36159518D01*
X140073502Y-36039820D01*
X140014537Y-35929506D01*
X139935185Y-35832815D01*
X139838494Y-35753463D01*
X139728180Y-35694498D01*
X139608482Y-35658188D01*
X139484000Y-35645928D01*
X137884000Y-35645928D01*
X137759518Y-35658188D01*
X137639820Y-35694498D01*
X137529506Y-35753463D01*
X137432815Y-35832815D01*
X137353463Y-35929506D01*
X137294498Y-36039820D01*
X137258188Y-36159518D01*
X137245928Y-36284000D01*
X137245928Y-37884000D01*
X137258188Y-38008482D01*
X137294498Y-38128180D01*
X137353463Y-38238494D01*
X137432815Y-38335185D01*
X137529506Y-38414537D01*
X137639820Y-38473502D01*
X137759518Y-38509812D01*
X137767961Y-38510643D01*
X137569363Y-38709241D01*
X137412320Y-38944273D01*
X137304147Y-39205426D01*
X137249000Y-39482665D01*
X137249000Y-39765335D01*
X137304147Y-40042574D01*
X137412320Y-40303727D01*
X137569363Y-40538759D01*
X137769241Y-40738637D01*
X138001759Y-40894000D01*
X137769241Y-41049363D01*
X137569363Y-41249241D01*
X137412320Y-41484273D01*
X137304147Y-41745426D01*
X137249000Y-42022665D01*
X137249000Y-42305335D01*
X137304147Y-42582574D01*
X137412320Y-42843727D01*
X137569363Y-43078759D01*
X137769241Y-43278637D01*
X138001759Y-43434000D01*
X137769241Y-43589363D01*
X137569363Y-43789241D01*
X137412320Y-44024273D01*
X137304147Y-44285426D01*
X137249000Y-44562665D01*
X137249000Y-44845335D01*
X137304147Y-45122574D01*
X137412320Y-45383727D01*
X137569363Y-45618759D01*
X137769241Y-45818637D01*
X138001759Y-45974000D01*
X137769241Y-46129363D01*
X137569363Y-46329241D01*
X137412320Y-46564273D01*
X137304147Y-46825426D01*
X137249000Y-47102665D01*
X137249000Y-47385335D01*
X137304147Y-47662574D01*
X137412320Y-47923727D01*
X137569363Y-48158759D01*
X137769241Y-48358637D01*
X138001759Y-48514000D01*
X137769241Y-48669363D01*
X137569363Y-48869241D01*
X137412320Y-49104273D01*
X137304147Y-49365426D01*
X137249000Y-49642665D01*
X137249000Y-49925335D01*
X137304147Y-50202574D01*
X137412320Y-50463727D01*
X137569363Y-50698759D01*
X137769241Y-50898637D01*
X138001759Y-51054000D01*
X137769241Y-51209363D01*
X137569363Y-51409241D01*
X137516070Y-51489000D01*
X124501018Y-51489000D01*
X124459999Y-51484960D01*
X124418981Y-51489000D01*
X124296311Y-51501082D01*
X124138913Y-51548828D01*
X123993854Y-51626364D01*
X123866709Y-51730709D01*
X123840559Y-51762573D01*
X117548579Y-58054554D01*
X117516709Y-58080709D01*
X117412365Y-58207854D01*
X117412364Y-58207855D01*
X117334828Y-58352914D01*
X117287082Y-58510312D01*
X117270960Y-58674000D01*
X117275000Y-58715019D01*
X117275001Y-68875934D01*
X117163368Y-68950525D01*
X116956525Y-69157368D01*
X116840000Y-69331760D01*
X116723475Y-69157368D01*
X116516632Y-68950525D01*
X116273411Y-68788010D01*
X116003158Y-68676068D01*
X115716260Y-68619000D01*
X115423740Y-68619000D01*
X115136842Y-68676068D01*
X114866589Y-68788010D01*
X114623368Y-68950525D01*
X114416525Y-69157368D01*
X114254010Y-69400589D01*
X114142068Y-69670842D01*
X114085000Y-69957740D01*
X114085000Y-70250260D01*
X114142068Y-70537158D01*
X114254010Y-70807411D01*
X114416525Y-71050632D01*
X114623368Y-71257475D01*
X114866589Y-71419990D01*
X115136842Y-71531932D01*
X115423740Y-71589000D01*
X115716260Y-71589000D01*
X116003158Y-71531932D01*
X116273411Y-71419990D01*
X116516632Y-71257475D01*
X116723475Y-71050632D01*
X116840000Y-70876240D01*
X116956525Y-71050632D01*
X117163368Y-71257475D01*
X117406589Y-71419990D01*
X117676842Y-71531932D01*
X117963740Y-71589000D01*
X118256260Y-71589000D01*
X118543158Y-71531932D01*
X118813411Y-71419990D01*
X119056632Y-71257475D01*
X119188487Y-71125620D01*
X119210498Y-71198180D01*
X119269463Y-71308494D01*
X119348815Y-71405185D01*
X119445506Y-71484537D01*
X119555820Y-71543502D01*
X119675518Y-71579812D01*
X119800000Y-71592072D01*
X121500000Y-71592072D01*
X121624482Y-71579812D01*
X121744180Y-71543502D01*
X121854494Y-71484537D01*
X121951185Y-71405185D01*
X122030537Y-71308494D01*
X122089502Y-71198180D01*
X122125812Y-71078482D01*
X122138072Y-70954000D01*
X122138072Y-69254000D01*
X122125812Y-69129518D01*
X122089502Y-69009820D01*
X122030537Y-68899506D01*
X121951185Y-68802815D01*
X121854494Y-68723463D01*
X121744180Y-68664498D01*
X121624482Y-68628188D01*
X121500000Y-68615928D01*
X119800000Y-68615928D01*
X119675518Y-68628188D01*
X119555820Y-68664498D01*
X119445506Y-68723463D01*
X119348815Y-68802815D01*
X119269463Y-68899506D01*
X119210498Y-69009820D01*
X119188487Y-69082380D01*
X119056632Y-68950525D01*
X118945000Y-68875935D01*
X118945000Y-60823589D01*
X130695000Y-60823589D01*
X130695000Y-61096411D01*
X130748225Y-61363989D01*
X130852629Y-61616043D01*
X131004201Y-61842886D01*
X131197114Y-62035799D01*
X131423957Y-62187371D01*
X131676011Y-62291775D01*
X131943589Y-62345000D01*
X132216411Y-62345000D01*
X132483989Y-62291775D01*
X132736043Y-62187371D01*
X132962886Y-62035799D01*
X133155799Y-61842886D01*
X133307371Y-61616043D01*
X133411775Y-61363989D01*
X133465000Y-61096411D01*
X133465000Y-60823589D01*
X133411775Y-60556011D01*
X133307371Y-60303957D01*
X133155799Y-60077114D01*
X132962886Y-59884201D01*
X132736043Y-59732629D01*
X132483989Y-59628225D01*
X132216411Y-59575000D01*
X131943589Y-59575000D01*
X131676011Y-59628225D01*
X131423957Y-59732629D01*
X131197114Y-59884201D01*
X131004201Y-60077114D01*
X130852629Y-60303957D01*
X130748225Y-60556011D01*
X130695000Y-60823589D01*
X118945000Y-60823589D01*
X118945000Y-59019867D01*
X122021278Y-55943589D01*
X130695000Y-55943589D01*
X130695000Y-56216411D01*
X130748225Y-56483989D01*
X130852629Y-56736043D01*
X131004201Y-56962886D01*
X131197114Y-57155799D01*
X131423957Y-57307371D01*
X131676011Y-57411775D01*
X131943589Y-57465000D01*
X132216411Y-57465000D01*
X132483989Y-57411775D01*
X132736043Y-57307371D01*
X132802950Y-57262665D01*
X137249000Y-57262665D01*
X137249000Y-57545335D01*
X137304147Y-57822574D01*
X137412320Y-58083727D01*
X137569363Y-58318759D01*
X137769241Y-58518637D01*
X138001759Y-58674000D01*
X137769241Y-58829363D01*
X137569363Y-59029241D01*
X137412320Y-59264273D01*
X137304147Y-59525426D01*
X137249000Y-59802665D01*
X137249000Y-60085335D01*
X137304147Y-60362574D01*
X137412320Y-60623727D01*
X137569363Y-60858759D01*
X137769241Y-61058637D01*
X138001759Y-61214000D01*
X137769241Y-61369363D01*
X137569363Y-61569241D01*
X137412320Y-61804273D01*
X137304147Y-62065426D01*
X137249000Y-62342665D01*
X137249000Y-62625335D01*
X137304147Y-62902574D01*
X137412320Y-63163727D01*
X137569363Y-63398759D01*
X137769241Y-63598637D01*
X138001759Y-63754000D01*
X137769241Y-63909363D01*
X137569363Y-64109241D01*
X137412320Y-64344273D01*
X137304147Y-64605426D01*
X137249000Y-64882665D01*
X137249000Y-65165335D01*
X137304147Y-65442574D01*
X137412320Y-65703727D01*
X137569363Y-65938759D01*
X137769241Y-66138637D01*
X138001759Y-66294000D01*
X137769241Y-66449363D01*
X137569363Y-66649241D01*
X137412320Y-66884273D01*
X137304147Y-67145426D01*
X137249000Y-67422665D01*
X137249000Y-67705335D01*
X137304147Y-67982574D01*
X137412320Y-68243727D01*
X137569363Y-68478759D01*
X137769241Y-68678637D01*
X138001759Y-68834000D01*
X137769241Y-68989363D01*
X137569363Y-69189241D01*
X137412320Y-69424273D01*
X137304147Y-69685426D01*
X137249000Y-69962665D01*
X137249000Y-70245335D01*
X137304147Y-70522574D01*
X137412320Y-70783727D01*
X137569363Y-71018759D01*
X137769241Y-71218637D01*
X138004273Y-71375680D01*
X138265426Y-71483853D01*
X138542665Y-71539000D01*
X138825335Y-71539000D01*
X139102574Y-71483853D01*
X139363727Y-71375680D01*
X139598759Y-71218637D01*
X139798637Y-71018759D01*
X139955680Y-70783727D01*
X140063853Y-70522574D01*
X140119000Y-70245335D01*
X140119000Y-69962665D01*
X140063853Y-69685426D01*
X139955680Y-69424273D01*
X139798637Y-69189241D01*
X139598759Y-68989363D01*
X139366241Y-68834000D01*
X139598759Y-68678637D01*
X139798637Y-68478759D01*
X139955680Y-68243727D01*
X140063853Y-67982574D01*
X140119000Y-67705335D01*
X140119000Y-67422665D01*
X140063853Y-67145426D01*
X139955680Y-66884273D01*
X139798637Y-66649241D01*
X139598759Y-66449363D01*
X139366241Y-66294000D01*
X139598759Y-66138637D01*
X139798637Y-65938759D01*
X139955680Y-65703727D01*
X140063853Y-65442574D01*
X140119000Y-65165335D01*
X140119000Y-64882665D01*
X140063853Y-64605426D01*
X139955680Y-64344273D01*
X139798637Y-64109241D01*
X139598759Y-63909363D01*
X139366241Y-63754000D01*
X139598759Y-63598637D01*
X139798637Y-63398759D01*
X139955680Y-63163727D01*
X140063853Y-62902574D01*
X140119000Y-62625335D01*
X140119000Y-62342665D01*
X140063853Y-62065426D01*
X139955680Y-61804273D01*
X139798637Y-61569241D01*
X139598759Y-61369363D01*
X139366241Y-61214000D01*
X139598759Y-61058637D01*
X139798637Y-60858759D01*
X139955680Y-60623727D01*
X140063853Y-60362574D01*
X140119000Y-60085335D01*
X140119000Y-59802665D01*
X140063853Y-59525426D01*
X139955680Y-59264273D01*
X139798637Y-59029241D01*
X139598759Y-58829363D01*
X139366241Y-58674000D01*
X139598759Y-58518637D01*
X139798637Y-58318759D01*
X139955680Y-58083727D01*
X140063853Y-57822574D01*
X140119000Y-57545335D01*
X140119000Y-57262665D01*
X140063853Y-56985426D01*
X139955680Y-56724273D01*
X139798637Y-56489241D01*
X139598759Y-56289363D01*
X139363727Y-56132320D01*
X139353135Y-56127933D01*
X139539131Y-56016385D01*
X139747519Y-55827414D01*
X139915037Y-55601420D01*
X140035246Y-55347087D01*
X140075904Y-55213039D01*
X139953915Y-54991000D01*
X138811000Y-54991000D01*
X138811000Y-55011000D01*
X138557000Y-55011000D01*
X138557000Y-54991000D01*
X137414085Y-54991000D01*
X137292096Y-55213039D01*
X137332754Y-55347087D01*
X137452963Y-55601420D01*
X137620481Y-55827414D01*
X137828869Y-56016385D01*
X138014865Y-56127933D01*
X138004273Y-56132320D01*
X137769241Y-56289363D01*
X137569363Y-56489241D01*
X137412320Y-56724273D01*
X137304147Y-56985426D01*
X137249000Y-57262665D01*
X132802950Y-57262665D01*
X132962886Y-57155799D01*
X133155799Y-56962886D01*
X133307371Y-56736043D01*
X133411775Y-56483989D01*
X133465000Y-56216411D01*
X133465000Y-55943589D01*
X133411775Y-55676011D01*
X133307371Y-55423957D01*
X133155799Y-55197114D01*
X132962886Y-55004201D01*
X132736043Y-54852629D01*
X132483989Y-54748225D01*
X132216411Y-54695000D01*
X131943589Y-54695000D01*
X131676011Y-54748225D01*
X131423957Y-54852629D01*
X131197114Y-55004201D01*
X131004201Y-55197114D01*
X130852629Y-55423957D01*
X130748225Y-55676011D01*
X130695000Y-55943589D01*
X122021278Y-55943589D01*
X124805868Y-53159000D01*
X137516070Y-53159000D01*
X137569363Y-53238759D01*
X137769241Y-53438637D01*
X138004273Y-53595680D01*
X138014865Y-53600067D01*
X137828869Y-53711615D01*
X137620481Y-53900586D01*
X137452963Y-54126580D01*
X137332754Y-54380913D01*
X137292096Y-54514961D01*
X137414085Y-54737000D01*
X138557000Y-54737000D01*
X138557000Y-54717000D01*
X138811000Y-54717000D01*
X138811000Y-54737000D01*
X139953915Y-54737000D01*
X140075904Y-54514961D01*
X140035246Y-54380913D01*
X139915037Y-54126580D01*
X139747519Y-53900586D01*
X139539131Y-53711615D01*
X139353135Y-53600067D01*
X139363727Y-53595680D01*
X139598759Y-53438637D01*
X139798637Y-53238759D01*
X139851930Y-53159000D01*
X140370133Y-53159000D01*
X142636559Y-55425427D01*
X142662709Y-55457291D01*
X142789854Y-55561636D01*
X142934913Y-55639172D01*
X143092311Y-55686918D01*
X143214981Y-55699000D01*
X143214991Y-55699000D01*
X143255999Y-55703039D01*
X143297007Y-55699000D01*
X145136070Y-55699000D01*
X145189363Y-55778759D01*
X145389241Y-55978637D01*
X145469000Y-56031930D01*
X145469001Y-56236070D01*
X145389241Y-56289363D01*
X145189363Y-56489241D01*
X145032320Y-56724273D01*
X144924147Y-56985426D01*
X144869000Y-57262665D01*
X144869000Y-57545335D01*
X144924147Y-57822574D01*
X145032320Y-58083727D01*
X145189363Y-58318759D01*
X145389241Y-58518637D01*
X145621759Y-58674000D01*
X145389241Y-58829363D01*
X145189363Y-59029241D01*
X145032320Y-59264273D01*
X144924147Y-59525426D01*
X144869000Y-59802665D01*
X144869000Y-60085335D01*
X144924147Y-60362574D01*
X145032320Y-60623727D01*
X145189363Y-60858759D01*
X145389241Y-61058637D01*
X145621759Y-61214000D01*
X145389241Y-61369363D01*
X145189363Y-61569241D01*
X145032320Y-61804273D01*
X144924147Y-62065426D01*
X144869000Y-62342665D01*
X144869000Y-62625335D01*
X144924147Y-62902574D01*
X145032320Y-63163727D01*
X145189363Y-63398759D01*
X145389241Y-63598637D01*
X145621759Y-63754000D01*
X145389241Y-63909363D01*
X145189363Y-64109241D01*
X145032320Y-64344273D01*
X144924147Y-64605426D01*
X144869000Y-64882665D01*
X144869000Y-65165335D01*
X144924147Y-65442574D01*
X145032320Y-65703727D01*
X145189363Y-65938759D01*
X145389241Y-66138637D01*
X145621759Y-66294000D01*
X145389241Y-66449363D01*
X145189363Y-66649241D01*
X145032320Y-66884273D01*
X144924147Y-67145426D01*
X144869000Y-67422665D01*
X144869000Y-67705335D01*
X144924147Y-67982574D01*
X145032320Y-68243727D01*
X145189363Y-68478759D01*
X145389241Y-68678637D01*
X145621759Y-68834000D01*
X145389241Y-68989363D01*
X145189363Y-69189241D01*
X145032320Y-69424273D01*
X144924147Y-69685426D01*
X144869000Y-69962665D01*
X144869000Y-70245335D01*
X144924147Y-70522574D01*
X145032320Y-70783727D01*
X145189363Y-71018759D01*
X145389241Y-71218637D01*
X145624273Y-71375680D01*
X145885426Y-71483853D01*
X146162665Y-71539000D01*
X146445335Y-71539000D01*
X146722574Y-71483853D01*
X146983727Y-71375680D01*
X147218759Y-71218637D01*
X147418637Y-71018759D01*
X147575680Y-70783727D01*
X147683853Y-70522574D01*
X147739000Y-70245335D01*
X147739000Y-69962665D01*
X147683853Y-69685426D01*
X147636745Y-69571695D01*
X166326520Y-69571695D01*
X166395822Y-70323938D01*
X166610548Y-71048208D01*
X166962445Y-71716670D01*
X166989452Y-71757088D01*
X167479119Y-72117276D01*
X170000395Y-69596000D01*
X167479119Y-67074724D01*
X166989452Y-67434912D01*
X166629151Y-68098882D01*
X166405306Y-68820385D01*
X166326520Y-69571695D01*
X147636745Y-69571695D01*
X147575680Y-69424273D01*
X147418637Y-69189241D01*
X147218759Y-68989363D01*
X146986241Y-68834000D01*
X147218759Y-68678637D01*
X147418637Y-68478759D01*
X147575680Y-68243727D01*
X147683853Y-67982574D01*
X147739000Y-67705335D01*
X147739000Y-67422665D01*
X147683853Y-67145426D01*
X147575680Y-66884273D01*
X147418637Y-66649241D01*
X147218759Y-66449363D01*
X146986241Y-66294000D01*
X147218759Y-66138637D01*
X147418637Y-65938759D01*
X147575680Y-65703727D01*
X147683853Y-65442574D01*
X147739000Y-65165335D01*
X147739000Y-64882665D01*
X147683853Y-64605426D01*
X147575680Y-64344273D01*
X147418637Y-64109241D01*
X147218759Y-63909363D01*
X146986241Y-63754000D01*
X147218759Y-63598637D01*
X147418637Y-63398759D01*
X147575680Y-63163727D01*
X147683853Y-62902574D01*
X147739000Y-62625335D01*
X147739000Y-62342665D01*
X147683853Y-62065426D01*
X147575680Y-61804273D01*
X147418637Y-61569241D01*
X147218759Y-61369363D01*
X146986241Y-61214000D01*
X147218759Y-61058637D01*
X147418637Y-60858759D01*
X147575680Y-60623727D01*
X147683853Y-60362574D01*
X147739000Y-60085335D01*
X147739000Y-59802665D01*
X147683853Y-59525426D01*
X147575680Y-59264273D01*
X147418637Y-59029241D01*
X147218759Y-58829363D01*
X146986241Y-58674000D01*
X147218759Y-58518637D01*
X147418637Y-58318759D01*
X147575680Y-58083727D01*
X147683853Y-57822574D01*
X147739000Y-57545335D01*
X147739000Y-57262665D01*
X147683853Y-56985426D01*
X147575680Y-56724273D01*
X147418637Y-56489241D01*
X147218759Y-56289363D01*
X147139000Y-56236070D01*
X147139000Y-56031930D01*
X147218759Y-55978637D01*
X147418637Y-55778759D01*
X147471930Y-55699000D01*
X159978982Y-55699000D01*
X160020000Y-55703040D01*
X160061018Y-55699000D01*
X160061019Y-55699000D01*
X160183689Y-55686918D01*
X160341087Y-55639172D01*
X160486146Y-55561636D01*
X160613291Y-55457291D01*
X160639446Y-55425421D01*
X161851428Y-54213440D01*
X161883291Y-54187291D01*
X161987636Y-54060146D01*
X162065172Y-53915087D01*
X162112918Y-53757689D01*
X162125000Y-53635019D01*
X162125000Y-53635017D01*
X162129040Y-53594001D01*
X162125000Y-53552985D01*
X162125000Y-51072199D01*
X162268505Y-50976312D01*
X162482312Y-50762505D01*
X162650299Y-50511095D01*
X162766011Y-50231743D01*
X162825000Y-49935184D01*
X162825000Y-49632816D01*
X162766011Y-49336257D01*
X162650299Y-49056905D01*
X162482312Y-48805495D01*
X162268505Y-48591688D01*
X162125000Y-48495801D01*
X162125000Y-45992199D01*
X162268505Y-45896312D01*
X162482312Y-45682505D01*
X162650299Y-45431095D01*
X162766011Y-45151743D01*
X162825000Y-44855184D01*
X162825000Y-44552816D01*
X162766011Y-44256257D01*
X162650299Y-43976905D01*
X162482312Y-43725495D01*
X162268505Y-43511688D01*
X162127699Y-43417604D01*
X162125000Y-43390199D01*
X162125000Y-43390189D01*
X162112918Y-43267519D01*
X162065172Y-43110121D01*
X161987636Y-42965062D01*
X161883291Y-42837917D01*
X161851427Y-42811767D01*
X159585000Y-40545341D01*
X159585000Y-39588072D01*
X159600000Y-39588072D01*
X159724482Y-39575812D01*
X159844180Y-39539502D01*
X159954494Y-39480537D01*
X160051185Y-39401185D01*
X160130537Y-39304494D01*
X160189502Y-39194180D01*
X160211513Y-39121620D01*
X160343368Y-39253475D01*
X160586589Y-39415990D01*
X160856842Y-39527932D01*
X161143740Y-39585000D01*
X161436260Y-39585000D01*
X161723158Y-39527932D01*
X161993411Y-39415990D01*
X162236632Y-39253475D01*
X162443475Y-39046632D01*
X162605990Y-38803411D01*
X162717932Y-38533158D01*
X162775000Y-38246260D01*
X162775000Y-37953740D01*
X162717932Y-37666842D01*
X162605990Y-37396589D01*
X162443475Y-37153368D01*
X162236632Y-36946525D01*
X161993411Y-36784010D01*
X161836460Y-36718999D01*
X163116200Y-36718999D01*
X164340000Y-37942800D01*
X164340001Y-40856668D01*
X164336324Y-40894000D01*
X164340001Y-40931333D01*
X164350998Y-41042986D01*
X164364180Y-41086442D01*
X164394454Y-41186246D01*
X164465026Y-41318276D01*
X164531273Y-41398997D01*
X164560000Y-41434001D01*
X164588998Y-41457799D01*
X165552200Y-42421002D01*
X165575999Y-42450001D01*
X165604997Y-42473799D01*
X165691723Y-42544974D01*
X165780016Y-42592168D01*
X165823753Y-42615546D01*
X165967014Y-42659003D01*
X166078667Y-42670000D01*
X166078677Y-42670000D01*
X166116000Y-42673676D01*
X166153322Y-42670000D01*
X166243897Y-42670000D01*
X166212068Y-42746842D01*
X166155000Y-43033740D01*
X166155000Y-43326260D01*
X166212068Y-43613158D01*
X166324010Y-43883411D01*
X166486525Y-44126632D01*
X166693368Y-44333475D01*
X166867760Y-44450000D01*
X166693368Y-44566525D01*
X166486525Y-44773368D01*
X166324010Y-45016589D01*
X166212068Y-45286842D01*
X166155000Y-45573740D01*
X166155000Y-45866260D01*
X166212068Y-46153158D01*
X166324010Y-46423411D01*
X166486525Y-46666632D01*
X166693368Y-46873475D01*
X166867760Y-46990000D01*
X166693368Y-47106525D01*
X166486525Y-47313368D01*
X166324010Y-47556589D01*
X166212068Y-47826842D01*
X166155000Y-48113740D01*
X166155000Y-48406260D01*
X166212068Y-48693158D01*
X166324010Y-48963411D01*
X166486525Y-49206632D01*
X166693368Y-49413475D01*
X166936589Y-49575990D01*
X167206842Y-49687932D01*
X167493740Y-49745000D01*
X167786260Y-49745000D01*
X168073158Y-49687932D01*
X168343411Y-49575990D01*
X168586632Y-49413475D01*
X168793475Y-49206632D01*
X168911100Y-49030594D01*
X169082412Y-49260269D01*
X169298645Y-49455178D01*
X169548748Y-49604157D01*
X169823109Y-49701481D01*
X170053000Y-49580814D01*
X170053000Y-48387000D01*
X170307000Y-48387000D01*
X170307000Y-49580814D01*
X170536891Y-49701481D01*
X170811252Y-49604157D01*
X171061355Y-49455178D01*
X171277588Y-49260269D01*
X171451641Y-49026920D01*
X171576825Y-48764099D01*
X171621476Y-48616890D01*
X171500155Y-48387000D01*
X170307000Y-48387000D01*
X170053000Y-48387000D01*
X170033000Y-48387000D01*
X170033000Y-48133000D01*
X170053000Y-48133000D01*
X170053000Y-45847000D01*
X170307000Y-45847000D01*
X170307000Y-48133000D01*
X171500155Y-48133000D01*
X171621476Y-47903110D01*
X171576825Y-47755901D01*
X171451641Y-47493080D01*
X171277588Y-47259731D01*
X171061355Y-47064822D01*
X170935745Y-46990000D01*
X171061355Y-46915178D01*
X171277588Y-46720269D01*
X171451641Y-46486920D01*
X171576825Y-46224099D01*
X171621476Y-46076890D01*
X171500155Y-45847000D01*
X170307000Y-45847000D01*
X170053000Y-45847000D01*
X170033000Y-45847000D01*
X170033000Y-45593000D01*
X170053000Y-45593000D01*
X170053000Y-45573000D01*
X170307000Y-45573000D01*
X170307000Y-45593000D01*
X171500155Y-45593000D01*
X171621476Y-45363110D01*
X171576825Y-45215901D01*
X171451641Y-44953080D01*
X171277588Y-44719731D01*
X171061355Y-44524822D01*
X170944466Y-44455195D01*
X171126632Y-44333475D01*
X171333475Y-44126632D01*
X171495990Y-43883411D01*
X171607932Y-43613158D01*
X171665000Y-43326260D01*
X171665000Y-43033740D01*
X171607932Y-42746842D01*
X171495990Y-42476589D01*
X171333475Y-42233368D01*
X171126632Y-42026525D01*
X170952240Y-41910000D01*
X171126632Y-41793475D01*
X171333475Y-41586632D01*
X171495990Y-41343411D01*
X171607932Y-41073158D01*
X171665000Y-40786260D01*
X171665000Y-40493740D01*
X171607932Y-40206842D01*
X171495990Y-39936589D01*
X171333475Y-39693368D01*
X171126632Y-39486525D01*
X170952240Y-39370000D01*
X171126632Y-39253475D01*
X171333475Y-39046632D01*
X171495990Y-38803411D01*
X171607932Y-38533158D01*
X171665000Y-38246260D01*
X171665000Y-37953740D01*
X171607932Y-37666842D01*
X171528660Y-37475462D01*
X171960001Y-37906803D01*
X171960000Y-58359198D01*
X165986003Y-64333196D01*
X165985997Y-64333201D01*
X164531199Y-65788000D01*
X163382803Y-65788000D01*
X162107803Y-64513002D01*
X162084001Y-64483999D01*
X161968276Y-64389026D01*
X161836247Y-64318454D01*
X161692986Y-64274997D01*
X161581333Y-64264000D01*
X161581322Y-64264000D01*
X161544000Y-64260324D01*
X161506678Y-64264000D01*
X160469711Y-64264000D01*
X160425774Y-64220063D01*
X160256256Y-64106795D01*
X160067898Y-64028774D01*
X159867939Y-63989000D01*
X159664061Y-63989000D01*
X159464102Y-64028774D01*
X159275744Y-64106795D01*
X159106226Y-64220063D01*
X158962063Y-64364226D01*
X158848795Y-64533744D01*
X158770774Y-64722102D01*
X158769136Y-64730334D01*
X156716000Y-62677199D01*
X156716000Y-58107711D01*
X156759937Y-58063774D01*
X156873205Y-57894256D01*
X156951226Y-57705898D01*
X156991000Y-57505939D01*
X156991000Y-57302061D01*
X156951226Y-57102102D01*
X156873205Y-56913744D01*
X156759937Y-56744226D01*
X156615774Y-56600063D01*
X156446256Y-56486795D01*
X156257898Y-56408774D01*
X156057939Y-56369000D01*
X155854061Y-56369000D01*
X155654102Y-56408774D01*
X155465744Y-56486795D01*
X155296226Y-56600063D01*
X155152063Y-56744226D01*
X155038795Y-56913744D01*
X154960774Y-57102102D01*
X154921000Y-57302061D01*
X154921000Y-57505939D01*
X154960774Y-57705898D01*
X155038795Y-57894256D01*
X155152063Y-58063774D01*
X155196000Y-58107711D01*
X155196001Y-62954668D01*
X155192324Y-62992000D01*
X155206998Y-63140985D01*
X155250454Y-63284246D01*
X155321026Y-63416276D01*
X155392201Y-63503002D01*
X155416000Y-63532001D01*
X155444998Y-63555799D01*
X157968198Y-66079000D01*
X157841740Y-66079000D01*
X157554842Y-66136068D01*
X157284589Y-66248010D01*
X157041368Y-66410525D01*
X156834525Y-66617368D01*
X156672010Y-66860589D01*
X156560068Y-67130842D01*
X156503000Y-67417740D01*
X156503000Y-67710260D01*
X156560068Y-67997158D01*
X156672010Y-68267411D01*
X156834525Y-68510632D01*
X157041368Y-68717475D01*
X157284589Y-68879990D01*
X157554842Y-68991932D01*
X157841740Y-69049000D01*
X158134260Y-69049000D01*
X158421158Y-68991932D01*
X158691411Y-68879990D01*
X158934632Y-68717475D01*
X159066487Y-68585620D01*
X159088498Y-68658180D01*
X159147463Y-68768494D01*
X159226815Y-68865185D01*
X159323506Y-68944537D01*
X159433820Y-69003502D01*
X159553518Y-69039812D01*
X159678000Y-69052072D01*
X159873675Y-69052072D01*
X159893026Y-69088275D01*
X159987999Y-69204001D01*
X160103724Y-69298974D01*
X160235753Y-69369546D01*
X160379014Y-69413003D01*
X160528000Y-69427677D01*
X160676985Y-69413003D01*
X160820246Y-69369546D01*
X160952275Y-69298974D01*
X161068001Y-69204001D01*
X161162974Y-69088276D01*
X161182326Y-69052072D01*
X161378000Y-69052072D01*
X161502482Y-69039812D01*
X161622180Y-69003502D01*
X161732494Y-68944537D01*
X161829185Y-68865185D01*
X161908537Y-68768494D01*
X161967502Y-68658180D01*
X162003812Y-68538482D01*
X162016072Y-68414000D01*
X162016072Y-68324000D01*
X164683088Y-68324000D01*
X164720410Y-68327676D01*
X164757732Y-68324000D01*
X164757743Y-68324000D01*
X164869396Y-68313003D01*
X165012657Y-68269546D01*
X165144686Y-68198974D01*
X165260411Y-68104001D01*
X165284214Y-68074997D01*
X166464092Y-66895119D01*
X167658724Y-66895119D01*
X170180000Y-69416395D01*
X172701276Y-66895119D01*
X172341088Y-66405452D01*
X171677118Y-66045151D01*
X170955615Y-65821306D01*
X170204305Y-65742520D01*
X169452062Y-65811822D01*
X168727792Y-66026548D01*
X168059330Y-66378445D01*
X168018912Y-66405452D01*
X167658724Y-66895119D01*
X166464092Y-66895119D01*
X173330001Y-60029211D01*
X173330001Y-67405086D01*
X172880881Y-67074724D01*
X170359605Y-69596000D01*
X172880881Y-72117276D01*
X173330001Y-71786913D01*
X173330001Y-73000000D01*
X171946500Y-73000000D01*
X172300670Y-72813555D01*
X172341088Y-72786548D01*
X172701276Y-72296881D01*
X170180000Y-69775605D01*
X167658724Y-72296881D01*
X168018912Y-72786548D01*
X168412266Y-73000000D01*
X102260000Y-73000000D01*
X102260000Y-69375872D01*
X103429000Y-69375872D01*
X103429000Y-69816128D01*
X103514890Y-70247925D01*
X103683369Y-70654669D01*
X103927962Y-71020729D01*
X104239271Y-71332038D01*
X104605331Y-71576631D01*
X105012075Y-71745110D01*
X105443872Y-71831000D01*
X105884128Y-71831000D01*
X106315925Y-71745110D01*
X106722669Y-71576631D01*
X107088729Y-71332038D01*
X107400038Y-71020729D01*
X107644631Y-70654669D01*
X107813110Y-70247925D01*
X107899000Y-69816128D01*
X107899000Y-69375872D01*
X107813110Y-68944075D01*
X107644631Y-68537331D01*
X107400038Y-68171271D01*
X107088729Y-67859962D01*
X106722669Y-67615369D01*
X106315925Y-67446890D01*
X105884128Y-67361000D01*
X105443872Y-67361000D01*
X105012075Y-67446890D01*
X104605331Y-67615369D01*
X104239271Y-67859962D01*
X103927962Y-68171271D01*
X103683369Y-68537331D01*
X103514890Y-68944075D01*
X103429000Y-69375872D01*
X102260000Y-69375872D01*
X102260000Y-62968702D01*
X105906903Y-62968702D01*
X105978486Y-63212671D01*
X106233996Y-63333571D01*
X106508184Y-63402300D01*
X106790512Y-63416217D01*
X107070130Y-63374787D01*
X107336292Y-63279603D01*
X107461514Y-63212671D01*
X107533097Y-62968702D01*
X106720000Y-62155605D01*
X105906903Y-62968702D01*
X102260000Y-62968702D01*
X102260000Y-62046512D01*
X105279783Y-62046512D01*
X105321213Y-62326130D01*
X105416397Y-62592292D01*
X105483329Y-62717514D01*
X105727298Y-62789097D01*
X106540395Y-61976000D01*
X106899605Y-61976000D01*
X107712702Y-62789097D01*
X107781928Y-62768785D01*
X107781928Y-62776000D01*
X107794188Y-62900482D01*
X107830498Y-63020180D01*
X107889463Y-63130494D01*
X107968815Y-63227185D01*
X108065506Y-63306537D01*
X108175820Y-63365502D01*
X108295518Y-63401812D01*
X108420000Y-63414072D01*
X110020000Y-63414072D01*
X110144482Y-63401812D01*
X110264180Y-63365502D01*
X110374494Y-63306537D01*
X110471185Y-63227185D01*
X110550537Y-63130494D01*
X110609502Y-63020180D01*
X110645812Y-62900482D01*
X110658072Y-62776000D01*
X110658072Y-61176000D01*
X110645812Y-61051518D01*
X110609502Y-60931820D01*
X110550537Y-60821506D01*
X110471185Y-60724815D01*
X110374494Y-60645463D01*
X110264180Y-60586498D01*
X110144482Y-60550188D01*
X110020000Y-60537928D01*
X108420000Y-60537928D01*
X108295518Y-60550188D01*
X108175820Y-60586498D01*
X108065506Y-60645463D01*
X107968815Y-60724815D01*
X107889463Y-60821506D01*
X107830498Y-60931820D01*
X107794188Y-61051518D01*
X107781928Y-61176000D01*
X107781928Y-61183215D01*
X107712702Y-61162903D01*
X106899605Y-61976000D01*
X106540395Y-61976000D01*
X105727298Y-61162903D01*
X105483329Y-61234486D01*
X105362429Y-61489996D01*
X105293700Y-61764184D01*
X105279783Y-62046512D01*
X102260000Y-62046512D01*
X102260000Y-60983298D01*
X105906903Y-60983298D01*
X106720000Y-61796395D01*
X107533097Y-60983298D01*
X107461514Y-60739329D01*
X107206004Y-60618429D01*
X106931816Y-60549700D01*
X106649488Y-60535783D01*
X106369870Y-60577213D01*
X106103708Y-60672397D01*
X105978486Y-60739329D01*
X105906903Y-60983298D01*
X102260000Y-60983298D01*
X102260000Y-54699609D01*
X105559997Y-54699609D01*
X105746073Y-55040766D01*
X106163409Y-55256513D01*
X106614815Y-55386696D01*
X107082946Y-55426313D01*
X107549811Y-55373842D01*
X107997468Y-55231297D01*
X108353927Y-55040766D01*
X108540003Y-54699609D01*
X107050000Y-53209605D01*
X105559997Y-54699609D01*
X102260000Y-54699609D01*
X102260000Y-53062946D01*
X104653687Y-53062946D01*
X104706158Y-53529811D01*
X104848703Y-53977468D01*
X105039234Y-54333927D01*
X105380391Y-54520003D01*
X106870395Y-53030000D01*
X107229605Y-53030000D01*
X108719609Y-54520003D01*
X109060766Y-54333927D01*
X109276513Y-53916591D01*
X109406696Y-53465185D01*
X109446313Y-52997054D01*
X109393842Y-52530189D01*
X109251297Y-52082532D01*
X109060766Y-51726073D01*
X108719609Y-51539997D01*
X107229605Y-53030000D01*
X106870395Y-53030000D01*
X105380391Y-51539997D01*
X105039234Y-51726073D01*
X104823487Y-52143409D01*
X104693304Y-52594815D01*
X104653687Y-53062946D01*
X102260000Y-53062946D01*
X102260000Y-51360391D01*
X105559997Y-51360391D01*
X107050000Y-52850395D01*
X108540003Y-51360391D01*
X108353927Y-51019234D01*
X107936591Y-50803487D01*
X107485185Y-50673304D01*
X107017054Y-50633687D01*
X106550189Y-50686158D01*
X106102532Y-50828703D01*
X105746073Y-51019234D01*
X105559997Y-51360391D01*
X102260000Y-51360391D01*
X102260000Y-48328531D01*
X108269389Y-48328531D01*
X108311401Y-48618019D01*
X108409081Y-48893747D01*
X108482528Y-49031157D01*
X108731603Y-49108792D01*
X109580395Y-48260000D01*
X108731603Y-47411208D01*
X108482528Y-47488843D01*
X108356629Y-47752883D01*
X108284661Y-48036411D01*
X108269389Y-48328531D01*
X102260000Y-48328531D01*
X102260000Y-45613740D01*
X108275000Y-45613740D01*
X108275000Y-45906260D01*
X108332068Y-46193158D01*
X108444010Y-46463411D01*
X108606525Y-46706632D01*
X108813368Y-46913475D01*
X108976410Y-47022416D01*
X108911208Y-47231603D01*
X109760000Y-48080395D01*
X109774143Y-48066253D01*
X109953748Y-48245858D01*
X109939605Y-48260000D01*
X109953748Y-48274143D01*
X109774143Y-48453748D01*
X109760000Y-48439605D01*
X108911208Y-49288397D01*
X108988843Y-49537472D01*
X109252883Y-49663371D01*
X109536411Y-49735339D01*
X109828531Y-49750611D01*
X110118019Y-49708599D01*
X110393747Y-49610919D01*
X110469850Y-49570241D01*
X110555506Y-49640537D01*
X110665820Y-49699502D01*
X110785518Y-49735812D01*
X110910000Y-49748072D01*
X112610000Y-49748072D01*
X112734482Y-49735812D01*
X112854180Y-49699502D01*
X112964494Y-49640537D01*
X113061185Y-49561185D01*
X113140537Y-49464494D01*
X113199502Y-49354180D01*
X113235812Y-49234482D01*
X113248072Y-49110000D01*
X113248072Y-47410000D01*
X113235812Y-47285518D01*
X113199502Y-47165820D01*
X113140537Y-47055506D01*
X113061185Y-46958815D01*
X112964494Y-46879463D01*
X112854180Y-46820498D01*
X112812310Y-46807797D01*
X112913475Y-46706632D01*
X113075990Y-46463411D01*
X113187932Y-46193158D01*
X113245000Y-45906260D01*
X113245000Y-45613740D01*
X113187932Y-45326842D01*
X113075990Y-45056589D01*
X112913475Y-44813368D01*
X112706632Y-44606525D01*
X112463411Y-44444010D01*
X112193158Y-44332068D01*
X111906260Y-44275000D01*
X111613740Y-44275000D01*
X111326842Y-44332068D01*
X111056589Y-44444010D01*
X110813368Y-44606525D01*
X110760000Y-44659893D01*
X110706632Y-44606525D01*
X110463411Y-44444010D01*
X110193158Y-44332068D01*
X109906260Y-44275000D01*
X109613740Y-44275000D01*
X109326842Y-44332068D01*
X109056589Y-44444010D01*
X108813368Y-44606525D01*
X108606525Y-44813368D01*
X108444010Y-45056589D01*
X108332068Y-45326842D01*
X108275000Y-45613740D01*
X102260000Y-45613740D01*
X102260000Y-42659609D01*
X105559997Y-42659609D01*
X105746073Y-43000766D01*
X106163409Y-43216513D01*
X106614815Y-43346696D01*
X107082946Y-43386313D01*
X107549811Y-43333842D01*
X107997468Y-43191297D01*
X108353927Y-43000766D01*
X108540003Y-42659609D01*
X107050000Y-41169605D01*
X105559997Y-42659609D01*
X102260000Y-42659609D01*
X102260000Y-41022946D01*
X104653687Y-41022946D01*
X104706158Y-41489811D01*
X104848703Y-41937468D01*
X105039234Y-42293927D01*
X105380391Y-42480003D01*
X106870395Y-40990000D01*
X107229605Y-40990000D01*
X108719609Y-42480003D01*
X109060766Y-42293927D01*
X109276513Y-41876591D01*
X109406696Y-41425185D01*
X109446313Y-40957054D01*
X109393842Y-40490189D01*
X109251297Y-40042532D01*
X109060766Y-39686073D01*
X108719609Y-39499997D01*
X107229605Y-40990000D01*
X106870395Y-40990000D01*
X105380391Y-39499997D01*
X105039234Y-39686073D01*
X104823487Y-40103409D01*
X104693304Y-40554815D01*
X104653687Y-41022946D01*
X102260000Y-41022946D01*
X102260000Y-39320391D01*
X105559997Y-39320391D01*
X107050000Y-40810395D01*
X108540003Y-39320391D01*
X108353927Y-38979234D01*
X107936591Y-38763487D01*
X107485185Y-38633304D01*
X107017054Y-38593687D01*
X106550189Y-38646158D01*
X106102532Y-38788703D01*
X105746073Y-38979234D01*
X105559997Y-39320391D01*
X102260000Y-39320391D01*
X102260000Y-36863872D01*
X128829000Y-36863872D01*
X128829000Y-37304128D01*
X128914890Y-37735925D01*
X129083369Y-38142669D01*
X129327962Y-38508729D01*
X129639271Y-38820038D01*
X130005331Y-39064631D01*
X130412075Y-39233110D01*
X130843872Y-39319000D01*
X131284128Y-39319000D01*
X131715925Y-39233110D01*
X132122669Y-39064631D01*
X132488729Y-38820038D01*
X132800038Y-38508729D01*
X133044631Y-38142669D01*
X133213110Y-37735925D01*
X133299000Y-37304128D01*
X133299000Y-36863872D01*
X133213110Y-36432075D01*
X133044631Y-36025331D01*
X132800038Y-35659271D01*
X132488729Y-35347962D01*
X132122669Y-35103369D01*
X131715925Y-34934890D01*
X131284128Y-34849000D01*
X130843872Y-34849000D01*
X130412075Y-34934890D01*
X130005331Y-35103369D01*
X129639271Y-35347962D01*
X129327962Y-35659271D01*
X129083369Y-36025331D01*
X128914890Y-36432075D01*
X128829000Y-36863872D01*
X102260000Y-36863872D01*
X102260000Y-33680000D01*
X173330000Y-33680000D01*
X173330000Y-36111198D01*
G36*
X144869000Y-36942665D02*
G01*
X144869000Y-37225335D01*
X144924147Y-37502574D01*
X145032320Y-37763727D01*
X145189363Y-37998759D01*
X145389241Y-38198637D01*
X145621759Y-38354000D01*
X145389241Y-38509363D01*
X145189363Y-38709241D01*
X145032320Y-38944273D01*
X144924147Y-39205426D01*
X144869000Y-39482665D01*
X144869000Y-39765335D01*
X144924147Y-40042574D01*
X145032320Y-40303727D01*
X145189363Y-40538759D01*
X145389241Y-40738637D01*
X145621759Y-40894000D01*
X145389241Y-41049363D01*
X145189363Y-41249241D01*
X145032320Y-41484273D01*
X144924147Y-41745426D01*
X144869000Y-42022665D01*
X144869000Y-42305335D01*
X144924147Y-42582574D01*
X145032320Y-42843727D01*
X145189363Y-43078759D01*
X145389241Y-43278637D01*
X145621759Y-43434000D01*
X145389241Y-43589363D01*
X145189363Y-43789241D01*
X145032320Y-44024273D01*
X144924147Y-44285426D01*
X144869000Y-44562665D01*
X144869000Y-44845335D01*
X144924147Y-45122574D01*
X145032320Y-45383727D01*
X145189363Y-45618759D01*
X145389241Y-45818637D01*
X145621759Y-45974000D01*
X145389241Y-46129363D01*
X145189363Y-46329241D01*
X145032320Y-46564273D01*
X144924147Y-46825426D01*
X144869000Y-47102665D01*
X144869000Y-47385335D01*
X144924147Y-47662574D01*
X145032320Y-47923727D01*
X145189363Y-48158759D01*
X145389241Y-48358637D01*
X145621759Y-48514000D01*
X145389241Y-48669363D01*
X145189363Y-48869241D01*
X145032320Y-49104273D01*
X144924147Y-49365426D01*
X144869000Y-49642665D01*
X144869000Y-49925335D01*
X144924147Y-50202574D01*
X145032320Y-50463727D01*
X145189363Y-50698759D01*
X145389241Y-50898637D01*
X145624273Y-51055680D01*
X145634865Y-51060067D01*
X145448869Y-51171615D01*
X145240481Y-51360586D01*
X145072963Y-51586580D01*
X144952754Y-51840913D01*
X144912096Y-51974961D01*
X145034085Y-52197000D01*
X146177000Y-52197000D01*
X146177000Y-52177000D01*
X146431000Y-52177000D01*
X146431000Y-52197000D01*
X147573915Y-52197000D01*
X147695904Y-51974961D01*
X147655246Y-51840913D01*
X147535037Y-51586580D01*
X147367519Y-51360586D01*
X147159131Y-51171615D01*
X146973135Y-51060067D01*
X146983727Y-51055680D01*
X147218759Y-50898637D01*
X147418637Y-50698759D01*
X147575680Y-50463727D01*
X147683853Y-50202574D01*
X147739000Y-49925335D01*
X147739000Y-49642665D01*
X147683853Y-49365426D01*
X147575680Y-49104273D01*
X147418637Y-48869241D01*
X147218759Y-48669363D01*
X146986241Y-48514000D01*
X147218759Y-48358637D01*
X147418637Y-48158759D01*
X147575680Y-47923727D01*
X147683853Y-47662574D01*
X147739000Y-47385335D01*
X147739000Y-47102665D01*
X147683853Y-46825426D01*
X147575680Y-46564273D01*
X147418637Y-46329241D01*
X147218759Y-46129363D01*
X146986241Y-45974000D01*
X147218759Y-45818637D01*
X147418637Y-45618759D01*
X147575680Y-45383727D01*
X147683853Y-45122574D01*
X147739000Y-44845335D01*
X147739000Y-44562665D01*
X147683853Y-44285426D01*
X147575680Y-44024273D01*
X147418637Y-43789241D01*
X147218759Y-43589363D01*
X146986241Y-43434000D01*
X147117942Y-43346000D01*
X148879928Y-43346000D01*
X148879928Y-45046000D01*
X148892188Y-45170482D01*
X148928498Y-45290180D01*
X148987463Y-45400494D01*
X149066815Y-45497185D01*
X149163506Y-45576537D01*
X149273820Y-45635502D01*
X149393518Y-45671812D01*
X149518000Y-45684072D01*
X151218000Y-45684072D01*
X151342482Y-45671812D01*
X151462180Y-45635502D01*
X151572494Y-45576537D01*
X151669185Y-45497185D01*
X151748537Y-45400494D01*
X151807502Y-45290180D01*
X151831966Y-45209534D01*
X151907731Y-45293588D01*
X152141080Y-45467641D01*
X152403901Y-45592825D01*
X152551110Y-45637476D01*
X152781000Y-45516155D01*
X152781000Y-44323000D01*
X153035000Y-44323000D01*
X153035000Y-45516155D01*
X153264890Y-45637476D01*
X153412099Y-45592825D01*
X153674920Y-45467641D01*
X153908269Y-45293588D01*
X154103178Y-45077355D01*
X154252157Y-44827252D01*
X154349481Y-44552891D01*
X154228814Y-44323000D01*
X153035000Y-44323000D01*
X152781000Y-44323000D01*
X152761000Y-44323000D01*
X152761000Y-44069000D01*
X152781000Y-44069000D01*
X152781000Y-42875845D01*
X153035000Y-42875845D01*
X153035000Y-44069000D01*
X154228814Y-44069000D01*
X154349481Y-43839109D01*
X154252157Y-43564748D01*
X154103178Y-43314645D01*
X153908269Y-43098412D01*
X153674920Y-42924359D01*
X153412099Y-42799175D01*
X153264890Y-42754524D01*
X153035000Y-42875845D01*
X152781000Y-42875845D01*
X152551110Y-42754524D01*
X152403901Y-42799175D01*
X152141080Y-42924359D01*
X151907731Y-43098412D01*
X151831966Y-43182466D01*
X151807502Y-43101820D01*
X151748537Y-42991506D01*
X151669185Y-42894815D01*
X151572494Y-42815463D01*
X151462180Y-42756498D01*
X151342482Y-42720188D01*
X151218000Y-42707928D01*
X149518000Y-42707928D01*
X149393518Y-42720188D01*
X149273820Y-42756498D01*
X149163506Y-42815463D01*
X149066815Y-42894815D01*
X148987463Y-42991506D01*
X148928498Y-43101820D01*
X148892188Y-43221518D01*
X148879928Y-43346000D01*
X147117942Y-43346000D01*
X147218759Y-43278637D01*
X147418637Y-43078759D01*
X147575680Y-42843727D01*
X147683853Y-42582574D01*
X147739000Y-42305335D01*
X147739000Y-42022665D01*
X147683853Y-41745426D01*
X147575680Y-41484273D01*
X147418637Y-41249241D01*
X147218759Y-41049363D01*
X146986241Y-40894000D01*
X147218759Y-40738637D01*
X147418637Y-40538759D01*
X147575680Y-40303727D01*
X147683853Y-40042574D01*
X147739000Y-39765335D01*
X147739000Y-39482665D01*
X147683853Y-39205426D01*
X147575680Y-38944273D01*
X147418637Y-38709241D01*
X147218759Y-38509363D01*
X146986241Y-38354000D01*
X147218759Y-38198637D01*
X147418637Y-37998759D01*
X147575680Y-37763727D01*
X147683853Y-37502574D01*
X147739000Y-37225335D01*
X147739000Y-36942665D01*
X147694509Y-36718999D01*
X157546374Y-36718999D01*
X157545506Y-36719463D01*
X157448815Y-36798815D01*
X157369463Y-36895506D01*
X157310498Y-37005820D01*
X157274188Y-37125518D01*
X157261928Y-37250000D01*
X157261928Y-38950000D01*
X157274188Y-39074482D01*
X157310498Y-39194180D01*
X157369463Y-39304494D01*
X157448815Y-39401185D01*
X157545506Y-39480537D01*
X157655820Y-39539502D01*
X157775518Y-39575812D01*
X157900000Y-39588072D01*
X157915000Y-39588072D01*
X157915000Y-40850189D01*
X157910960Y-40891208D01*
X157915000Y-40932226D01*
X157927082Y-41054896D01*
X157974828Y-41212294D01*
X158052364Y-41357353D01*
X158156709Y-41484499D01*
X158188579Y-41510654D01*
X159891657Y-43213733D01*
X159774482Y-43178188D01*
X159650000Y-43165928D01*
X157850000Y-43165928D01*
X157725518Y-43178188D01*
X157605820Y-43214498D01*
X157495506Y-43273463D01*
X157398815Y-43352815D01*
X157319463Y-43449506D01*
X157260498Y-43559820D01*
X157224188Y-43679518D01*
X157211928Y-43804000D01*
X157211928Y-45604000D01*
X157224188Y-45728482D01*
X157260498Y-45848180D01*
X157319463Y-45958494D01*
X157398815Y-46055185D01*
X157495506Y-46134537D01*
X157605820Y-46193502D01*
X157725518Y-46229812D01*
X157850000Y-46242072D01*
X159650000Y-46242072D01*
X159774482Y-46229812D01*
X159894180Y-46193502D01*
X160004494Y-46134537D01*
X160101185Y-46055185D01*
X160180537Y-45958494D01*
X160239502Y-45848180D01*
X160245056Y-45829873D01*
X160311495Y-45896312D01*
X160455001Y-45992200D01*
X160455000Y-48495801D01*
X160311495Y-48591688D01*
X160245056Y-48658127D01*
X160239502Y-48639820D01*
X160180537Y-48529506D01*
X160101185Y-48432815D01*
X160004494Y-48353463D01*
X159894180Y-48294498D01*
X159774482Y-48258188D01*
X159650000Y-48245928D01*
X157850000Y-48245928D01*
X157725518Y-48258188D01*
X157605820Y-48294498D01*
X157495506Y-48353463D01*
X157398815Y-48432815D01*
X157319463Y-48529506D01*
X157260498Y-48639820D01*
X157224188Y-48759518D01*
X157211928Y-48884000D01*
X157211928Y-50684000D01*
X157224188Y-50808482D01*
X157260498Y-50928180D01*
X157319463Y-51038494D01*
X157398815Y-51135185D01*
X157495506Y-51214537D01*
X157605820Y-51273502D01*
X157725518Y-51309812D01*
X157850000Y-51322072D01*
X159650000Y-51322072D01*
X159774482Y-51309812D01*
X159894180Y-51273502D01*
X160004494Y-51214537D01*
X160101185Y-51135185D01*
X160180537Y-51038494D01*
X160239502Y-50928180D01*
X160245056Y-50909873D01*
X160311495Y-50976312D01*
X160455001Y-51072200D01*
X160455000Y-53248132D01*
X159674133Y-54029000D01*
X147471930Y-54029000D01*
X147418637Y-53949241D01*
X147218759Y-53749363D01*
X146983727Y-53592320D01*
X146973135Y-53587933D01*
X147159131Y-53476385D01*
X147367519Y-53287414D01*
X147535037Y-53061420D01*
X147655246Y-52807087D01*
X147695904Y-52673039D01*
X147573915Y-52451000D01*
X146431000Y-52451000D01*
X146431000Y-52471000D01*
X146177000Y-52471000D01*
X146177000Y-52451000D01*
X145034085Y-52451000D01*
X144912096Y-52673039D01*
X144952754Y-52807087D01*
X145072963Y-53061420D01*
X145240481Y-53287414D01*
X145448869Y-53476385D01*
X145634865Y-53587933D01*
X145624273Y-53592320D01*
X145389241Y-53749363D01*
X145189363Y-53949241D01*
X145136070Y-54029000D01*
X143601868Y-54029000D01*
X141335446Y-51762579D01*
X141309291Y-51730709D01*
X141182146Y-51626364D01*
X141037087Y-51548828D01*
X140879689Y-51501082D01*
X140757019Y-51489000D01*
X140757018Y-51489000D01*
X140716000Y-51484960D01*
X140674982Y-51489000D01*
X139851930Y-51489000D01*
X139798637Y-51409241D01*
X139598759Y-51209363D01*
X139366241Y-51054000D01*
X139598759Y-50898637D01*
X139798637Y-50698759D01*
X139955680Y-50463727D01*
X140063853Y-50202574D01*
X140119000Y-49925335D01*
X140119000Y-49642665D01*
X140063853Y-49365426D01*
X139955680Y-49104273D01*
X139798637Y-48869241D01*
X139598759Y-48669363D01*
X139366241Y-48514000D01*
X139598759Y-48358637D01*
X139798637Y-48158759D01*
X139955680Y-47923727D01*
X140063853Y-47662574D01*
X140119000Y-47385335D01*
X140119000Y-47102665D01*
X140063853Y-46825426D01*
X139955680Y-46564273D01*
X139798637Y-46329241D01*
X139598759Y-46129363D01*
X139366241Y-45974000D01*
X139598759Y-45818637D01*
X139798637Y-45618759D01*
X139955680Y-45383727D01*
X140063853Y-45122574D01*
X140119000Y-44845335D01*
X140119000Y-44562665D01*
X140063853Y-44285426D01*
X139955680Y-44024273D01*
X139798637Y-43789241D01*
X139598759Y-43589363D01*
X139366241Y-43434000D01*
X139598759Y-43278637D01*
X139798637Y-43078759D01*
X139955680Y-42843727D01*
X140063853Y-42582574D01*
X140119000Y-42305335D01*
X140119000Y-42022665D01*
X140063853Y-41745426D01*
X139955680Y-41484273D01*
X139798637Y-41249241D01*
X139598759Y-41049363D01*
X139366241Y-40894000D01*
X139598759Y-40738637D01*
X139798637Y-40538759D01*
X139902043Y-40384000D01*
X140170678Y-40384000D01*
X140208000Y-40387676D01*
X140245322Y-40384000D01*
X140245333Y-40384000D01*
X140356986Y-40373003D01*
X140500247Y-40329546D01*
X140632276Y-40258974D01*
X140748001Y-40164001D01*
X140771804Y-40134997D01*
X144187803Y-36718999D01*
X144913491Y-36718999D01*
X144869000Y-36942665D01*
G37*
X144869000Y-36942665D02*
X144869000Y-37225335D01*
X144924147Y-37502574D01*
X145032320Y-37763727D01*
X145189363Y-37998759D01*
X145389241Y-38198637D01*
X145621759Y-38354000D01*
X145389241Y-38509363D01*
X145189363Y-38709241D01*
X145032320Y-38944273D01*
X144924147Y-39205426D01*
X144869000Y-39482665D01*
X144869000Y-39765335D01*
X144924147Y-40042574D01*
X145032320Y-40303727D01*
X145189363Y-40538759D01*
X145389241Y-40738637D01*
X145621759Y-40894000D01*
X145389241Y-41049363D01*
X145189363Y-41249241D01*
X145032320Y-41484273D01*
X144924147Y-41745426D01*
X144869000Y-42022665D01*
X144869000Y-42305335D01*
X144924147Y-42582574D01*
X145032320Y-42843727D01*
X145189363Y-43078759D01*
X145389241Y-43278637D01*
X145621759Y-43434000D01*
X145389241Y-43589363D01*
X145189363Y-43789241D01*
X145032320Y-44024273D01*
X144924147Y-44285426D01*
X144869000Y-44562665D01*
X144869000Y-44845335D01*
X144924147Y-45122574D01*
X145032320Y-45383727D01*
X145189363Y-45618759D01*
X145389241Y-45818637D01*
X145621759Y-45974000D01*
X145389241Y-46129363D01*
X145189363Y-46329241D01*
X145032320Y-46564273D01*
X144924147Y-46825426D01*
X144869000Y-47102665D01*
X144869000Y-47385335D01*
X144924147Y-47662574D01*
X145032320Y-47923727D01*
X145189363Y-48158759D01*
X145389241Y-48358637D01*
X145621759Y-48514000D01*
X145389241Y-48669363D01*
X145189363Y-48869241D01*
X145032320Y-49104273D01*
X144924147Y-49365426D01*
X144869000Y-49642665D01*
X144869000Y-49925335D01*
X144924147Y-50202574D01*
X145032320Y-50463727D01*
X145189363Y-50698759D01*
X145389241Y-50898637D01*
X145624273Y-51055680D01*
X145634865Y-51060067D01*
X145448869Y-51171615D01*
X145240481Y-51360586D01*
X145072963Y-51586580D01*
X144952754Y-51840913D01*
X144912096Y-51974961D01*
X145034085Y-52197000D01*
X146177000Y-52197000D01*
X146177000Y-52177000D01*
X146431000Y-52177000D01*
X146431000Y-52197000D01*
X147573915Y-52197000D01*
X147695904Y-51974961D01*
X147655246Y-51840913D01*
X147535037Y-51586580D01*
X147367519Y-51360586D01*
X147159131Y-51171615D01*
X146973135Y-51060067D01*
X146983727Y-51055680D01*
X147218759Y-50898637D01*
X147418637Y-50698759D01*
X147575680Y-50463727D01*
X147683853Y-50202574D01*
X147739000Y-49925335D01*
X147739000Y-49642665D01*
X147683853Y-49365426D01*
X147575680Y-49104273D01*
X147418637Y-48869241D01*
X147218759Y-48669363D01*
X146986241Y-48514000D01*
X147218759Y-48358637D01*
X147418637Y-48158759D01*
X147575680Y-47923727D01*
X147683853Y-47662574D01*
X147739000Y-47385335D01*
X147739000Y-47102665D01*
X147683853Y-46825426D01*
X147575680Y-46564273D01*
X147418637Y-46329241D01*
X147218759Y-46129363D01*
X146986241Y-45974000D01*
X147218759Y-45818637D01*
X147418637Y-45618759D01*
X147575680Y-45383727D01*
X147683853Y-45122574D01*
X147739000Y-44845335D01*
X147739000Y-44562665D01*
X147683853Y-44285426D01*
X147575680Y-44024273D01*
X147418637Y-43789241D01*
X147218759Y-43589363D01*
X146986241Y-43434000D01*
X147117942Y-43346000D01*
X148879928Y-43346000D01*
X148879928Y-45046000D01*
X148892188Y-45170482D01*
X148928498Y-45290180D01*
X148987463Y-45400494D01*
X149066815Y-45497185D01*
X149163506Y-45576537D01*
X149273820Y-45635502D01*
X149393518Y-45671812D01*
X149518000Y-45684072D01*
X151218000Y-45684072D01*
X151342482Y-45671812D01*
X151462180Y-45635502D01*
X151572494Y-45576537D01*
X151669185Y-45497185D01*
X151748537Y-45400494D01*
X151807502Y-45290180D01*
X151831966Y-45209534D01*
X151907731Y-45293588D01*
X152141080Y-45467641D01*
X152403901Y-45592825D01*
X152551110Y-45637476D01*
X152781000Y-45516155D01*
X152781000Y-44323000D01*
X153035000Y-44323000D01*
X153035000Y-45516155D01*
X153264890Y-45637476D01*
X153412099Y-45592825D01*
X153674920Y-45467641D01*
X153908269Y-45293588D01*
X154103178Y-45077355D01*
X154252157Y-44827252D01*
X154349481Y-44552891D01*
X154228814Y-44323000D01*
X153035000Y-44323000D01*
X152781000Y-44323000D01*
X152761000Y-44323000D01*
X152761000Y-44069000D01*
X152781000Y-44069000D01*
X152781000Y-42875845D01*
X153035000Y-42875845D01*
X153035000Y-44069000D01*
X154228814Y-44069000D01*
X154349481Y-43839109D01*
X154252157Y-43564748D01*
X154103178Y-43314645D01*
X153908269Y-43098412D01*
X153674920Y-42924359D01*
X153412099Y-42799175D01*
X153264890Y-42754524D01*
X153035000Y-42875845D01*
X152781000Y-42875845D01*
X152551110Y-42754524D01*
X152403901Y-42799175D01*
X152141080Y-42924359D01*
X151907731Y-43098412D01*
X151831966Y-43182466D01*
X151807502Y-43101820D01*
X151748537Y-42991506D01*
X151669185Y-42894815D01*
X151572494Y-42815463D01*
X151462180Y-42756498D01*
X151342482Y-42720188D01*
X151218000Y-42707928D01*
X149518000Y-42707928D01*
X149393518Y-42720188D01*
X149273820Y-42756498D01*
X149163506Y-42815463D01*
X149066815Y-42894815D01*
X148987463Y-42991506D01*
X148928498Y-43101820D01*
X148892188Y-43221518D01*
X148879928Y-43346000D01*
X147117942Y-43346000D01*
X147218759Y-43278637D01*
X147418637Y-43078759D01*
X147575680Y-42843727D01*
X147683853Y-42582574D01*
X147739000Y-42305335D01*
X147739000Y-42022665D01*
X147683853Y-41745426D01*
X147575680Y-41484273D01*
X147418637Y-41249241D01*
X147218759Y-41049363D01*
X146986241Y-40894000D01*
X147218759Y-40738637D01*
X147418637Y-40538759D01*
X147575680Y-40303727D01*
X147683853Y-40042574D01*
X147739000Y-39765335D01*
X147739000Y-39482665D01*
X147683853Y-39205426D01*
X147575680Y-38944273D01*
X147418637Y-38709241D01*
X147218759Y-38509363D01*
X146986241Y-38354000D01*
X147218759Y-38198637D01*
X147418637Y-37998759D01*
X147575680Y-37763727D01*
X147683853Y-37502574D01*
X147739000Y-37225335D01*
X147739000Y-36942665D01*
X147694509Y-36718999D01*
X157546374Y-36718999D01*
X157545506Y-36719463D01*
X157448815Y-36798815D01*
X157369463Y-36895506D01*
X157310498Y-37005820D01*
X157274188Y-37125518D01*
X157261928Y-37250000D01*
X157261928Y-38950000D01*
X157274188Y-39074482D01*
X157310498Y-39194180D01*
X157369463Y-39304494D01*
X157448815Y-39401185D01*
X157545506Y-39480537D01*
X157655820Y-39539502D01*
X157775518Y-39575812D01*
X157900000Y-39588072D01*
X157915000Y-39588072D01*
X157915000Y-40850189D01*
X157910960Y-40891208D01*
X157915000Y-40932226D01*
X157927082Y-41054896D01*
X157974828Y-41212294D01*
X158052364Y-41357353D01*
X158156709Y-41484499D01*
X158188579Y-41510654D01*
X159891657Y-43213733D01*
X159774482Y-43178188D01*
X159650000Y-43165928D01*
X157850000Y-43165928D01*
X157725518Y-43178188D01*
X157605820Y-43214498D01*
X157495506Y-43273463D01*
X157398815Y-43352815D01*
X157319463Y-43449506D01*
X157260498Y-43559820D01*
X157224188Y-43679518D01*
X157211928Y-43804000D01*
X157211928Y-45604000D01*
X157224188Y-45728482D01*
X157260498Y-45848180D01*
X157319463Y-45958494D01*
X157398815Y-46055185D01*
X157495506Y-46134537D01*
X157605820Y-46193502D01*
X157725518Y-46229812D01*
X157850000Y-46242072D01*
X159650000Y-46242072D01*
X159774482Y-46229812D01*
X159894180Y-46193502D01*
X160004494Y-46134537D01*
X160101185Y-46055185D01*
X160180537Y-45958494D01*
X160239502Y-45848180D01*
X160245056Y-45829873D01*
X160311495Y-45896312D01*
X160455001Y-45992200D01*
X160455000Y-48495801D01*
X160311495Y-48591688D01*
X160245056Y-48658127D01*
X160239502Y-48639820D01*
X160180537Y-48529506D01*
X160101185Y-48432815D01*
X160004494Y-48353463D01*
X159894180Y-48294498D01*
X159774482Y-48258188D01*
X159650000Y-48245928D01*
X157850000Y-48245928D01*
X157725518Y-48258188D01*
X157605820Y-48294498D01*
X157495506Y-48353463D01*
X157398815Y-48432815D01*
X157319463Y-48529506D01*
X157260498Y-48639820D01*
X157224188Y-48759518D01*
X157211928Y-48884000D01*
X157211928Y-50684000D01*
X157224188Y-50808482D01*
X157260498Y-50928180D01*
X157319463Y-51038494D01*
X157398815Y-51135185D01*
X157495506Y-51214537D01*
X157605820Y-51273502D01*
X157725518Y-51309812D01*
X157850000Y-51322072D01*
X159650000Y-51322072D01*
X159774482Y-51309812D01*
X159894180Y-51273502D01*
X160004494Y-51214537D01*
X160101185Y-51135185D01*
X160180537Y-51038494D01*
X160239502Y-50928180D01*
X160245056Y-50909873D01*
X160311495Y-50976312D01*
X160455001Y-51072200D01*
X160455000Y-53248132D01*
X159674133Y-54029000D01*
X147471930Y-54029000D01*
X147418637Y-53949241D01*
X147218759Y-53749363D01*
X146983727Y-53592320D01*
X146973135Y-53587933D01*
X147159131Y-53476385D01*
X147367519Y-53287414D01*
X147535037Y-53061420D01*
X147655246Y-52807087D01*
X147695904Y-52673039D01*
X147573915Y-52451000D01*
X146431000Y-52451000D01*
X146431000Y-52471000D01*
X146177000Y-52471000D01*
X146177000Y-52451000D01*
X145034085Y-52451000D01*
X144912096Y-52673039D01*
X144952754Y-52807087D01*
X145072963Y-53061420D01*
X145240481Y-53287414D01*
X145448869Y-53476385D01*
X145634865Y-53587933D01*
X145624273Y-53592320D01*
X145389241Y-53749363D01*
X145189363Y-53949241D01*
X145136070Y-54029000D01*
X143601868Y-54029000D01*
X141335446Y-51762579D01*
X141309291Y-51730709D01*
X141182146Y-51626364D01*
X141037087Y-51548828D01*
X140879689Y-51501082D01*
X140757019Y-51489000D01*
X140757018Y-51489000D01*
X140716000Y-51484960D01*
X140674982Y-51489000D01*
X139851930Y-51489000D01*
X139798637Y-51409241D01*
X139598759Y-51209363D01*
X139366241Y-51054000D01*
X139598759Y-50898637D01*
X139798637Y-50698759D01*
X139955680Y-50463727D01*
X140063853Y-50202574D01*
X140119000Y-49925335D01*
X140119000Y-49642665D01*
X140063853Y-49365426D01*
X139955680Y-49104273D01*
X139798637Y-48869241D01*
X139598759Y-48669363D01*
X139366241Y-48514000D01*
X139598759Y-48358637D01*
X139798637Y-48158759D01*
X139955680Y-47923727D01*
X140063853Y-47662574D01*
X140119000Y-47385335D01*
X140119000Y-47102665D01*
X140063853Y-46825426D01*
X139955680Y-46564273D01*
X139798637Y-46329241D01*
X139598759Y-46129363D01*
X139366241Y-45974000D01*
X139598759Y-45818637D01*
X139798637Y-45618759D01*
X139955680Y-45383727D01*
X140063853Y-45122574D01*
X140119000Y-44845335D01*
X140119000Y-44562665D01*
X140063853Y-44285426D01*
X139955680Y-44024273D01*
X139798637Y-43789241D01*
X139598759Y-43589363D01*
X139366241Y-43434000D01*
X139598759Y-43278637D01*
X139798637Y-43078759D01*
X139955680Y-42843727D01*
X140063853Y-42582574D01*
X140119000Y-42305335D01*
X140119000Y-42022665D01*
X140063853Y-41745426D01*
X139955680Y-41484273D01*
X139798637Y-41249241D01*
X139598759Y-41049363D01*
X139366241Y-40894000D01*
X139598759Y-40738637D01*
X139798637Y-40538759D01*
X139902043Y-40384000D01*
X140170678Y-40384000D01*
X140208000Y-40387676D01*
X140245322Y-40384000D01*
X140245333Y-40384000D01*
X140356986Y-40373003D01*
X140500247Y-40329546D01*
X140632276Y-40258974D01*
X140748001Y-40164001D01*
X140771804Y-40134997D01*
X144187803Y-36718999D01*
X144913491Y-36718999D01*
X144869000Y-36942665D01*
M02*
