G04 #@! TF.GenerationSoftware,KiCad,Pcbnew,(5.1.5-0-10_14)*
G04 #@! TF.CreationDate,2020-05-14T12:08:37+02:00*
G04 #@! TF.ProjectId,usbasp,75736261-7370-42e6-9b69-6361645f7063,rev?*
G04 #@! TF.SameCoordinates,Original*
G04 #@! TF.FileFunction,Soldermask,Top*
G04 #@! TF.FilePolarity,Negative*
%FSLAX46Y46*%
G04 Gerber Fmt 4.6, Leading zero omitted, Abs format (unit mm)*
G04 Created by KiCad (PCBNEW (5.1.5-0-10_14)) date 2020-05-14 12:08:37*
%MOMM*%
%LPD*%
G04 APERTURE LIST*
%ADD10C,0.100000*%
G04 APERTURE END LIST*
D10*
G36*
X170814239Y-66407467D02*
G01*
X171128282Y-66469934D01*
X171719926Y-66715001D01*
X172252392Y-67070784D01*
X172705216Y-67523608D01*
X173060999Y-68056074D01*
X173306066Y-68647718D01*
X173342846Y-68832624D01*
X173416519Y-69203000D01*
X173431000Y-69275804D01*
X173431000Y-69916196D01*
X173306066Y-70544282D01*
X173060999Y-71135926D01*
X172705216Y-71668392D01*
X172252392Y-72121216D01*
X171719926Y-72476999D01*
X171128282Y-72722066D01*
X170814239Y-72784533D01*
X170500197Y-72847000D01*
X169859803Y-72847000D01*
X169545761Y-72784533D01*
X169231718Y-72722066D01*
X168640074Y-72476999D01*
X168107608Y-72121216D01*
X167654784Y-71668392D01*
X167299001Y-71135926D01*
X167053934Y-70544282D01*
X166929000Y-69916196D01*
X166929000Y-69275804D01*
X166943482Y-69203000D01*
X167017154Y-68832624D01*
X167053934Y-68647718D01*
X167299001Y-68056074D01*
X167654784Y-67523608D01*
X168107608Y-67070784D01*
X168640074Y-66715001D01*
X169231718Y-66469934D01*
X169545761Y-66407467D01*
X169859803Y-66345000D01*
X170500197Y-66345000D01*
X170814239Y-66407467D01*
G37*
G36*
X124565062Y-69690181D02*
G01*
X124599981Y-69700774D01*
X124632163Y-69717976D01*
X124660373Y-69741127D01*
X124683524Y-69769337D01*
X124700726Y-69801519D01*
X124711319Y-69836438D01*
X124715500Y-69878895D01*
X124715500Y-71345105D01*
X124711319Y-71387562D01*
X124700726Y-71422481D01*
X124683524Y-71454663D01*
X124660373Y-71482873D01*
X124632163Y-71506024D01*
X124599981Y-71523226D01*
X124565062Y-71533819D01*
X124522605Y-71538000D01*
X123381395Y-71538000D01*
X123338938Y-71533819D01*
X123304019Y-71523226D01*
X123271837Y-71506024D01*
X123243627Y-71482873D01*
X123220476Y-71454663D01*
X123203274Y-71422481D01*
X123192681Y-71387562D01*
X123188500Y-71345105D01*
X123188500Y-69878895D01*
X123192681Y-69836438D01*
X123203274Y-69801519D01*
X123220476Y-69769337D01*
X123243627Y-69741127D01*
X123271837Y-69717976D01*
X123304019Y-69700774D01*
X123338938Y-69690181D01*
X123381395Y-69686000D01*
X124522605Y-69686000D01*
X124565062Y-69690181D01*
G37*
G36*
X127540062Y-69690181D02*
G01*
X127574981Y-69700774D01*
X127607163Y-69717976D01*
X127635373Y-69741127D01*
X127658524Y-69769337D01*
X127675726Y-69801519D01*
X127686319Y-69836438D01*
X127690500Y-69878895D01*
X127690500Y-71345105D01*
X127686319Y-71387562D01*
X127675726Y-71422481D01*
X127658524Y-71454663D01*
X127635373Y-71482873D01*
X127607163Y-71506024D01*
X127574981Y-71523226D01*
X127540062Y-71533819D01*
X127497605Y-71538000D01*
X126356395Y-71538000D01*
X126313938Y-71533819D01*
X126279019Y-71523226D01*
X126246837Y-71506024D01*
X126218627Y-71482873D01*
X126195476Y-71454663D01*
X126178274Y-71422481D01*
X126167681Y-71387562D01*
X126163500Y-71345105D01*
X126163500Y-69878895D01*
X126167681Y-69836438D01*
X126178274Y-69801519D01*
X126195476Y-69769337D01*
X126218627Y-69741127D01*
X126246837Y-69717976D01*
X126279019Y-69700774D01*
X126313938Y-69690181D01*
X126356395Y-69686000D01*
X127497605Y-69686000D01*
X127540062Y-69690181D01*
G37*
G36*
X106039256Y-67987298D02*
G01*
X106145579Y-68008447D01*
X106446042Y-68132903D01*
X106716451Y-68313585D01*
X106946415Y-68543549D01*
X107127097Y-68813958D01*
X107127098Y-68813960D01*
X107251553Y-69114422D01*
X107315000Y-69433389D01*
X107315000Y-69758611D01*
X107295673Y-69855772D01*
X107251553Y-70077579D01*
X107127097Y-70378042D01*
X106946415Y-70648451D01*
X106716451Y-70878415D01*
X106446042Y-71059097D01*
X106145579Y-71183553D01*
X106039256Y-71204702D01*
X105826611Y-71247000D01*
X105501389Y-71247000D01*
X105288744Y-71204702D01*
X105182421Y-71183553D01*
X104881958Y-71059097D01*
X104611549Y-70878415D01*
X104381585Y-70648451D01*
X104200903Y-70378042D01*
X104076447Y-70077579D01*
X104032327Y-69855772D01*
X104013000Y-69758611D01*
X104013000Y-69433389D01*
X104076447Y-69114422D01*
X104200902Y-68813960D01*
X104200903Y-68813958D01*
X104381585Y-68543549D01*
X104611549Y-68313585D01*
X104881958Y-68132903D01*
X105182421Y-68008447D01*
X105288744Y-67987298D01*
X105501389Y-67945000D01*
X105826611Y-67945000D01*
X106039256Y-67987298D01*
G37*
G36*
X121551000Y-71005000D02*
G01*
X119749000Y-71005000D01*
X119749000Y-69203000D01*
X121551000Y-69203000D01*
X121551000Y-71005000D01*
G37*
G36*
X118223512Y-69207927D02*
G01*
X118372812Y-69237624D01*
X118536784Y-69305544D01*
X118684354Y-69404147D01*
X118809853Y-69529646D01*
X118908456Y-69677216D01*
X118976376Y-69841188D01*
X119011000Y-70015259D01*
X119011000Y-70192741D01*
X118976376Y-70366812D01*
X118908456Y-70530784D01*
X118809853Y-70678354D01*
X118684354Y-70803853D01*
X118536784Y-70902456D01*
X118372812Y-70970376D01*
X118223512Y-71000073D01*
X118198742Y-71005000D01*
X118021258Y-71005000D01*
X117996488Y-71000073D01*
X117847188Y-70970376D01*
X117683216Y-70902456D01*
X117535646Y-70803853D01*
X117410147Y-70678354D01*
X117311544Y-70530784D01*
X117243624Y-70366812D01*
X117209000Y-70192741D01*
X117209000Y-70015259D01*
X117243624Y-69841188D01*
X117311544Y-69677216D01*
X117410147Y-69529646D01*
X117535646Y-69404147D01*
X117683216Y-69305544D01*
X117847188Y-69237624D01*
X117996488Y-69207927D01*
X118021258Y-69203000D01*
X118198742Y-69203000D01*
X118223512Y-69207927D01*
G37*
G36*
X115683512Y-69207927D02*
G01*
X115832812Y-69237624D01*
X115996784Y-69305544D01*
X116144354Y-69404147D01*
X116269853Y-69529646D01*
X116368456Y-69677216D01*
X116436376Y-69841188D01*
X116471000Y-70015259D01*
X116471000Y-70192741D01*
X116436376Y-70366812D01*
X116368456Y-70530784D01*
X116269853Y-70678354D01*
X116144354Y-70803853D01*
X115996784Y-70902456D01*
X115832812Y-70970376D01*
X115683512Y-71000073D01*
X115658742Y-71005000D01*
X115481258Y-71005000D01*
X115456488Y-71000073D01*
X115307188Y-70970376D01*
X115143216Y-70902456D01*
X114995646Y-70803853D01*
X114870147Y-70678354D01*
X114771544Y-70530784D01*
X114703624Y-70366812D01*
X114669000Y-70192741D01*
X114669000Y-70015259D01*
X114703624Y-69841188D01*
X114771544Y-69677216D01*
X114870147Y-69529646D01*
X114995646Y-69404147D01*
X115143216Y-69305544D01*
X115307188Y-69237624D01*
X115456488Y-69207927D01*
X115481258Y-69203000D01*
X115658742Y-69203000D01*
X115683512Y-69207927D01*
G37*
G36*
X146552228Y-69285703D02*
G01*
X146707100Y-69349853D01*
X146846481Y-69442985D01*
X146965015Y-69561519D01*
X147058147Y-69700900D01*
X147122297Y-69855772D01*
X147155000Y-70020184D01*
X147155000Y-70187816D01*
X147122297Y-70352228D01*
X147058147Y-70507100D01*
X146965015Y-70646481D01*
X146846481Y-70765015D01*
X146707100Y-70858147D01*
X146552228Y-70922297D01*
X146387816Y-70955000D01*
X146220184Y-70955000D01*
X146055772Y-70922297D01*
X145900900Y-70858147D01*
X145761519Y-70765015D01*
X145642985Y-70646481D01*
X145549853Y-70507100D01*
X145485703Y-70352228D01*
X145453000Y-70187816D01*
X145453000Y-70020184D01*
X145485703Y-69855772D01*
X145549853Y-69700900D01*
X145642985Y-69561519D01*
X145761519Y-69442985D01*
X145900900Y-69349853D01*
X146055772Y-69285703D01*
X146220184Y-69253000D01*
X146387816Y-69253000D01*
X146552228Y-69285703D01*
G37*
G36*
X138932228Y-69285703D02*
G01*
X139087100Y-69349853D01*
X139226481Y-69442985D01*
X139345015Y-69561519D01*
X139438147Y-69700900D01*
X139502297Y-69855772D01*
X139535000Y-70020184D01*
X139535000Y-70187816D01*
X139502297Y-70352228D01*
X139438147Y-70507100D01*
X139345015Y-70646481D01*
X139226481Y-70765015D01*
X139087100Y-70858147D01*
X138932228Y-70922297D01*
X138767816Y-70955000D01*
X138600184Y-70955000D01*
X138435772Y-70922297D01*
X138280900Y-70858147D01*
X138141519Y-70765015D01*
X138022985Y-70646481D01*
X137929853Y-70507100D01*
X137865703Y-70352228D01*
X137833000Y-70187816D01*
X137833000Y-70020184D01*
X137865703Y-69855772D01*
X137929853Y-69700900D01*
X138022985Y-69561519D01*
X138141519Y-69442985D01*
X138280900Y-69349853D01*
X138435772Y-69285703D01*
X138600184Y-69253000D01*
X138767816Y-69253000D01*
X138932228Y-69285703D01*
G37*
G36*
X127540062Y-67150181D02*
G01*
X127574981Y-67160774D01*
X127607163Y-67177976D01*
X127635373Y-67201127D01*
X127658524Y-67229337D01*
X127675726Y-67261519D01*
X127686319Y-67296438D01*
X127690500Y-67338895D01*
X127690500Y-68805105D01*
X127686319Y-68847562D01*
X127675726Y-68882481D01*
X127658524Y-68914663D01*
X127635373Y-68942873D01*
X127607163Y-68966024D01*
X127574981Y-68983226D01*
X127540062Y-68993819D01*
X127497605Y-68998000D01*
X126356395Y-68998000D01*
X126313938Y-68993819D01*
X126279019Y-68983226D01*
X126246837Y-68966024D01*
X126218627Y-68942873D01*
X126195476Y-68914663D01*
X126178274Y-68882481D01*
X126167681Y-68847562D01*
X126163500Y-68805105D01*
X126163500Y-67338895D01*
X126167681Y-67296438D01*
X126178274Y-67261519D01*
X126195476Y-67229337D01*
X126218627Y-67201127D01*
X126246837Y-67177976D01*
X126279019Y-67160774D01*
X126313938Y-67150181D01*
X126356395Y-67146000D01*
X127497605Y-67146000D01*
X127540062Y-67150181D01*
G37*
G36*
X124565062Y-67150181D02*
G01*
X124599981Y-67160774D01*
X124632163Y-67177976D01*
X124660373Y-67201127D01*
X124683524Y-67229337D01*
X124700726Y-67261519D01*
X124711319Y-67296438D01*
X124715500Y-67338895D01*
X124715500Y-68805105D01*
X124711319Y-68847562D01*
X124700726Y-68882481D01*
X124683524Y-68914663D01*
X124660373Y-68942873D01*
X124632163Y-68966024D01*
X124599981Y-68983226D01*
X124565062Y-68993819D01*
X124522605Y-68998000D01*
X123381395Y-68998000D01*
X123338938Y-68993819D01*
X123304019Y-68983226D01*
X123271837Y-68966024D01*
X123243627Y-68942873D01*
X123220476Y-68914663D01*
X123203274Y-68882481D01*
X123192681Y-68847562D01*
X123188500Y-68805105D01*
X123188500Y-67338895D01*
X123192681Y-67296438D01*
X123203274Y-67261519D01*
X123220476Y-67229337D01*
X123243627Y-67201127D01*
X123271837Y-67177976D01*
X123304019Y-67160774D01*
X123338938Y-67150181D01*
X123381395Y-67146000D01*
X124522605Y-67146000D01*
X124565062Y-67150181D01*
G37*
G36*
X150981062Y-66642181D02*
G01*
X151015981Y-66652774D01*
X151048163Y-66669976D01*
X151076373Y-66693127D01*
X151099524Y-66721337D01*
X151116726Y-66753519D01*
X151127319Y-66788438D01*
X151131500Y-66830895D01*
X151131500Y-68297105D01*
X151127319Y-68339562D01*
X151116726Y-68374481D01*
X151099524Y-68406663D01*
X151076373Y-68434873D01*
X151048163Y-68458024D01*
X151015981Y-68475226D01*
X150981062Y-68485819D01*
X150938605Y-68490000D01*
X149797395Y-68490000D01*
X149754938Y-68485819D01*
X149720019Y-68475226D01*
X149687837Y-68458024D01*
X149659627Y-68434873D01*
X149636476Y-68406663D01*
X149619274Y-68374481D01*
X149608681Y-68339562D01*
X149604500Y-68297105D01*
X149604500Y-66830895D01*
X149608681Y-66788438D01*
X149619274Y-66753519D01*
X149636476Y-66721337D01*
X149659627Y-66693127D01*
X149687837Y-66669976D01*
X149720019Y-66652774D01*
X149754938Y-66642181D01*
X149797395Y-66638000D01*
X150938605Y-66638000D01*
X150981062Y-66642181D01*
G37*
G36*
X153956062Y-66642181D02*
G01*
X153990981Y-66652774D01*
X154023163Y-66669976D01*
X154051373Y-66693127D01*
X154074524Y-66721337D01*
X154091726Y-66753519D01*
X154102319Y-66788438D01*
X154106500Y-66830895D01*
X154106500Y-68297105D01*
X154102319Y-68339562D01*
X154091726Y-68374481D01*
X154074524Y-68406663D01*
X154051373Y-68434873D01*
X154023163Y-68458024D01*
X153990981Y-68475226D01*
X153956062Y-68485819D01*
X153913605Y-68490000D01*
X152772395Y-68490000D01*
X152729938Y-68485819D01*
X152695019Y-68475226D01*
X152662837Y-68458024D01*
X152634627Y-68434873D01*
X152611476Y-68406663D01*
X152594274Y-68374481D01*
X152583681Y-68339562D01*
X152579500Y-68297105D01*
X152579500Y-66830895D01*
X152583681Y-66788438D01*
X152594274Y-66753519D01*
X152611476Y-66721337D01*
X152634627Y-66693127D01*
X152662837Y-66669976D01*
X152695019Y-66652774D01*
X152729938Y-66642181D01*
X152772395Y-66638000D01*
X153913605Y-66638000D01*
X153956062Y-66642181D01*
G37*
G36*
X161429000Y-68465000D02*
G01*
X159627000Y-68465000D01*
X159627000Y-66663000D01*
X161429000Y-66663000D01*
X161429000Y-68465000D01*
G37*
G36*
X158101512Y-66667927D02*
G01*
X158250812Y-66697624D01*
X158414784Y-66765544D01*
X158562354Y-66864147D01*
X158687853Y-66989646D01*
X158786456Y-67137216D01*
X158854376Y-67301188D01*
X158889000Y-67475259D01*
X158889000Y-67652741D01*
X158854376Y-67826812D01*
X158786456Y-67990784D01*
X158687853Y-68138354D01*
X158562354Y-68263853D01*
X158414784Y-68362456D01*
X158250812Y-68430376D01*
X158101512Y-68460073D01*
X158076742Y-68465000D01*
X157899258Y-68465000D01*
X157874488Y-68460073D01*
X157725188Y-68430376D01*
X157561216Y-68362456D01*
X157413646Y-68263853D01*
X157288147Y-68138354D01*
X157189544Y-67990784D01*
X157121624Y-67826812D01*
X157087000Y-67652741D01*
X157087000Y-67475259D01*
X157121624Y-67301188D01*
X157189544Y-67137216D01*
X157288147Y-66989646D01*
X157413646Y-66864147D01*
X157561216Y-66765544D01*
X157725188Y-66697624D01*
X157874488Y-66667927D01*
X157899258Y-66663000D01*
X158076742Y-66663000D01*
X158101512Y-66667927D01*
G37*
G36*
X146552228Y-66745703D02*
G01*
X146707100Y-66809853D01*
X146846481Y-66902985D01*
X146965015Y-67021519D01*
X147058147Y-67160900D01*
X147122297Y-67315772D01*
X147155000Y-67480184D01*
X147155000Y-67647816D01*
X147122297Y-67812228D01*
X147058147Y-67967100D01*
X146965015Y-68106481D01*
X146846481Y-68225015D01*
X146707100Y-68318147D01*
X146552228Y-68382297D01*
X146387816Y-68415000D01*
X146220184Y-68415000D01*
X146055772Y-68382297D01*
X145900900Y-68318147D01*
X145761519Y-68225015D01*
X145642985Y-68106481D01*
X145549853Y-67967100D01*
X145485703Y-67812228D01*
X145453000Y-67647816D01*
X145453000Y-67480184D01*
X145485703Y-67315772D01*
X145549853Y-67160900D01*
X145642985Y-67021519D01*
X145761519Y-66902985D01*
X145900900Y-66809853D01*
X146055772Y-66745703D01*
X146220184Y-66713000D01*
X146387816Y-66713000D01*
X146552228Y-66745703D01*
G37*
G36*
X138932228Y-66745703D02*
G01*
X139087100Y-66809853D01*
X139226481Y-66902985D01*
X139345015Y-67021519D01*
X139438147Y-67160900D01*
X139502297Y-67315772D01*
X139535000Y-67480184D01*
X139535000Y-67647816D01*
X139502297Y-67812228D01*
X139438147Y-67967100D01*
X139345015Y-68106481D01*
X139226481Y-68225015D01*
X139087100Y-68318147D01*
X138932228Y-68382297D01*
X138767816Y-68415000D01*
X138600184Y-68415000D01*
X138435772Y-68382297D01*
X138280900Y-68318147D01*
X138141519Y-68225015D01*
X138022985Y-68106481D01*
X137929853Y-67967100D01*
X137865703Y-67812228D01*
X137833000Y-67647816D01*
X137833000Y-67480184D01*
X137865703Y-67315772D01*
X137929853Y-67160900D01*
X138022985Y-67021519D01*
X138141519Y-66902985D01*
X138280900Y-66809853D01*
X138435772Y-66745703D01*
X138600184Y-66713000D01*
X138767816Y-66713000D01*
X138932228Y-66745703D01*
G37*
G36*
X121955000Y-67109000D02*
G01*
X119853000Y-67109000D01*
X119853000Y-65507000D01*
X121955000Y-65507000D01*
X121955000Y-67109000D01*
G37*
G36*
X127775562Y-64699681D02*
G01*
X127810481Y-64710274D01*
X127842663Y-64727476D01*
X127870873Y-64750627D01*
X127894024Y-64778837D01*
X127911226Y-64811019D01*
X127921819Y-64845938D01*
X127926000Y-64888395D01*
X127926000Y-66029605D01*
X127921819Y-66072062D01*
X127911226Y-66106981D01*
X127894024Y-66139163D01*
X127870873Y-66167373D01*
X127842663Y-66190524D01*
X127810481Y-66207726D01*
X127775562Y-66218319D01*
X127733105Y-66222500D01*
X126266895Y-66222500D01*
X126224438Y-66218319D01*
X126189519Y-66207726D01*
X126157337Y-66190524D01*
X126129127Y-66167373D01*
X126105976Y-66139163D01*
X126088774Y-66106981D01*
X126078181Y-66072062D01*
X126074000Y-66029605D01*
X126074000Y-64888395D01*
X126078181Y-64845938D01*
X126088774Y-64811019D01*
X126105976Y-64778837D01*
X126129127Y-64750627D01*
X126157337Y-64727476D01*
X126189519Y-64710274D01*
X126224438Y-64699681D01*
X126266895Y-64695500D01*
X127733105Y-64695500D01*
X127775562Y-64699681D01*
G37*
G36*
X115655000Y-65959000D02*
G01*
X113553000Y-65959000D01*
X113553000Y-62057000D01*
X115655000Y-62057000D01*
X115655000Y-65959000D01*
G37*
G36*
X150981062Y-64102181D02*
G01*
X151015981Y-64112774D01*
X151048163Y-64129976D01*
X151076373Y-64153127D01*
X151099524Y-64181337D01*
X151116726Y-64213519D01*
X151127319Y-64248438D01*
X151131500Y-64290895D01*
X151131500Y-65757105D01*
X151127319Y-65799562D01*
X151116726Y-65834481D01*
X151099524Y-65866663D01*
X151076373Y-65894873D01*
X151048163Y-65918024D01*
X151015981Y-65935226D01*
X150981062Y-65945819D01*
X150938605Y-65950000D01*
X149797395Y-65950000D01*
X149754938Y-65945819D01*
X149720019Y-65935226D01*
X149687837Y-65918024D01*
X149659627Y-65894873D01*
X149636476Y-65866663D01*
X149619274Y-65834481D01*
X149608681Y-65799562D01*
X149604500Y-65757105D01*
X149604500Y-64290895D01*
X149608681Y-64248438D01*
X149619274Y-64213519D01*
X149636476Y-64181337D01*
X149659627Y-64153127D01*
X149687837Y-64129976D01*
X149720019Y-64112774D01*
X149754938Y-64102181D01*
X149797395Y-64098000D01*
X150938605Y-64098000D01*
X150981062Y-64102181D01*
G37*
G36*
X153956062Y-64102181D02*
G01*
X153990981Y-64112774D01*
X154023163Y-64129976D01*
X154051373Y-64153127D01*
X154074524Y-64181337D01*
X154091726Y-64213519D01*
X154102319Y-64248438D01*
X154106500Y-64290895D01*
X154106500Y-65757105D01*
X154102319Y-65799562D01*
X154091726Y-65834481D01*
X154074524Y-65866663D01*
X154051373Y-65894873D01*
X154023163Y-65918024D01*
X153990981Y-65935226D01*
X153956062Y-65945819D01*
X153913605Y-65950000D01*
X152772395Y-65950000D01*
X152729938Y-65945819D01*
X152695019Y-65935226D01*
X152662837Y-65918024D01*
X152634627Y-65894873D01*
X152611476Y-65866663D01*
X152594274Y-65834481D01*
X152583681Y-65799562D01*
X152579500Y-65757105D01*
X152579500Y-64290895D01*
X152583681Y-64248438D01*
X152594274Y-64213519D01*
X152611476Y-64181337D01*
X152634627Y-64153127D01*
X152662837Y-64129976D01*
X152695019Y-64112774D01*
X152729938Y-64102181D01*
X152772395Y-64098000D01*
X153913605Y-64098000D01*
X153956062Y-64102181D01*
G37*
G36*
X138932228Y-64205703D02*
G01*
X139087100Y-64269853D01*
X139226481Y-64362985D01*
X139345015Y-64481519D01*
X139438147Y-64620900D01*
X139502297Y-64775772D01*
X139535000Y-64940184D01*
X139535000Y-65107816D01*
X139502297Y-65272228D01*
X139438147Y-65427100D01*
X139345015Y-65566481D01*
X139226481Y-65685015D01*
X139087100Y-65778147D01*
X138932228Y-65842297D01*
X138767816Y-65875000D01*
X138600184Y-65875000D01*
X138435772Y-65842297D01*
X138280900Y-65778147D01*
X138141519Y-65685015D01*
X138022985Y-65566481D01*
X137929853Y-65427100D01*
X137865703Y-65272228D01*
X137833000Y-65107816D01*
X137833000Y-64940184D01*
X137865703Y-64775772D01*
X137929853Y-64620900D01*
X138022985Y-64481519D01*
X138141519Y-64362985D01*
X138280900Y-64269853D01*
X138435772Y-64205703D01*
X138600184Y-64173000D01*
X138767816Y-64173000D01*
X138932228Y-64205703D01*
G37*
G36*
X146552228Y-64205703D02*
G01*
X146707100Y-64269853D01*
X146846481Y-64362985D01*
X146965015Y-64481519D01*
X147058147Y-64620900D01*
X147122297Y-64775772D01*
X147155000Y-64940184D01*
X147155000Y-65107816D01*
X147122297Y-65272228D01*
X147058147Y-65427100D01*
X146965015Y-65566481D01*
X146846481Y-65685015D01*
X146707100Y-65778147D01*
X146552228Y-65842297D01*
X146387816Y-65875000D01*
X146220184Y-65875000D01*
X146055772Y-65842297D01*
X145900900Y-65778147D01*
X145761519Y-65685015D01*
X145642985Y-65566481D01*
X145549853Y-65427100D01*
X145485703Y-65272228D01*
X145453000Y-65107816D01*
X145453000Y-64940184D01*
X145485703Y-64775772D01*
X145549853Y-64620900D01*
X145642985Y-64481519D01*
X145761519Y-64362985D01*
X145900900Y-64269853D01*
X146055772Y-64205703D01*
X146220184Y-64173000D01*
X146387816Y-64173000D01*
X146552228Y-64205703D01*
G37*
G36*
X159897552Y-64590331D02*
G01*
X159971351Y-64620900D01*
X159979629Y-64624329D01*
X160016813Y-64649175D01*
X160053495Y-64673685D01*
X160116315Y-64736505D01*
X160165672Y-64810373D01*
X160199669Y-64892448D01*
X160217000Y-64979579D01*
X160217000Y-65068421D01*
X160199669Y-65155552D01*
X160165672Y-65237627D01*
X160165671Y-65237629D01*
X160116314Y-65311496D01*
X160053496Y-65374314D01*
X159979629Y-65423671D01*
X159979628Y-65423672D01*
X159979627Y-65423672D01*
X159897552Y-65457669D01*
X159810421Y-65475000D01*
X159721579Y-65475000D01*
X159634448Y-65457669D01*
X159552373Y-65423672D01*
X159552372Y-65423672D01*
X159552371Y-65423671D01*
X159478504Y-65374314D01*
X159415686Y-65311496D01*
X159366329Y-65237629D01*
X159366328Y-65237627D01*
X159332331Y-65155552D01*
X159315000Y-65068421D01*
X159315000Y-64979579D01*
X159332331Y-64892448D01*
X159366328Y-64810373D01*
X159415685Y-64736505D01*
X159478505Y-64673685D01*
X159515187Y-64649175D01*
X159552371Y-64624329D01*
X159560649Y-64620900D01*
X159634448Y-64590331D01*
X159721579Y-64573000D01*
X159810421Y-64573000D01*
X159897552Y-64590331D01*
G37*
G36*
X121955000Y-64809000D02*
G01*
X119853000Y-64809000D01*
X119853000Y-63207000D01*
X121955000Y-63207000D01*
X121955000Y-64809000D01*
G37*
G36*
X146552228Y-61665703D02*
G01*
X146707100Y-61729853D01*
X146846481Y-61822985D01*
X146965015Y-61941519D01*
X147058147Y-62080900D01*
X147122297Y-62235772D01*
X147155000Y-62400184D01*
X147155000Y-62567816D01*
X147122297Y-62732228D01*
X147058147Y-62887100D01*
X146965015Y-63026481D01*
X146846481Y-63145015D01*
X146707100Y-63238147D01*
X146552228Y-63302297D01*
X146387816Y-63335000D01*
X146220184Y-63335000D01*
X146055772Y-63302297D01*
X145900900Y-63238147D01*
X145761519Y-63145015D01*
X145642985Y-63026481D01*
X145549853Y-62887100D01*
X145485703Y-62732228D01*
X145453000Y-62567816D01*
X145453000Y-62400184D01*
X145485703Y-62235772D01*
X145549853Y-62080900D01*
X145642985Y-61941519D01*
X145761519Y-61822985D01*
X145900900Y-61729853D01*
X146055772Y-61665703D01*
X146220184Y-61633000D01*
X146387816Y-61633000D01*
X146552228Y-61665703D01*
G37*
G36*
X138932228Y-61665703D02*
G01*
X139087100Y-61729853D01*
X139226481Y-61822985D01*
X139345015Y-61941519D01*
X139438147Y-62080900D01*
X139502297Y-62235772D01*
X139535000Y-62400184D01*
X139535000Y-62567816D01*
X139502297Y-62732228D01*
X139438147Y-62887100D01*
X139345015Y-63026481D01*
X139226481Y-63145015D01*
X139087100Y-63238147D01*
X138932228Y-63302297D01*
X138767816Y-63335000D01*
X138600184Y-63335000D01*
X138435772Y-63302297D01*
X138280900Y-63238147D01*
X138141519Y-63145015D01*
X138022985Y-63026481D01*
X137929853Y-62887100D01*
X137865703Y-62732228D01*
X137833000Y-62567816D01*
X137833000Y-62400184D01*
X137865703Y-62235772D01*
X137929853Y-62080900D01*
X138022985Y-61941519D01*
X138141519Y-61822985D01*
X138280900Y-61729853D01*
X138435772Y-61665703D01*
X138600184Y-61633000D01*
X138767816Y-61633000D01*
X138932228Y-61665703D01*
G37*
G36*
X127775562Y-61724681D02*
G01*
X127810481Y-61735274D01*
X127842663Y-61752476D01*
X127870873Y-61775627D01*
X127894024Y-61803837D01*
X127911226Y-61836019D01*
X127921819Y-61870938D01*
X127926000Y-61913395D01*
X127926000Y-63054605D01*
X127921819Y-63097062D01*
X127911226Y-63131981D01*
X127894024Y-63164163D01*
X127870873Y-63192373D01*
X127842663Y-63215524D01*
X127810481Y-63232726D01*
X127775562Y-63243319D01*
X127733105Y-63247500D01*
X126266895Y-63247500D01*
X126224438Y-63243319D01*
X126189519Y-63232726D01*
X126157337Y-63215524D01*
X126129127Y-63192373D01*
X126105976Y-63164163D01*
X126088774Y-63131981D01*
X126078181Y-63097062D01*
X126074000Y-63054605D01*
X126074000Y-61913395D01*
X126078181Y-61870938D01*
X126088774Y-61836019D01*
X126105976Y-61803837D01*
X126129127Y-61775627D01*
X126157337Y-61752476D01*
X126189519Y-61735274D01*
X126224438Y-61724681D01*
X126266895Y-61720500D01*
X127733105Y-61720500D01*
X127775562Y-61724681D01*
G37*
G36*
X110071000Y-62827000D02*
G01*
X108369000Y-62827000D01*
X108369000Y-61125000D01*
X110071000Y-61125000D01*
X110071000Y-62827000D01*
G37*
G36*
X106968228Y-61157703D02*
G01*
X107123100Y-61221853D01*
X107262481Y-61314985D01*
X107381015Y-61433519D01*
X107474147Y-61572900D01*
X107538297Y-61727772D01*
X107571000Y-61892184D01*
X107571000Y-62059816D01*
X107538297Y-62224228D01*
X107474147Y-62379100D01*
X107381015Y-62518481D01*
X107262481Y-62637015D01*
X107123100Y-62730147D01*
X106968228Y-62794297D01*
X106803816Y-62827000D01*
X106636184Y-62827000D01*
X106471772Y-62794297D01*
X106316900Y-62730147D01*
X106177519Y-62637015D01*
X106058985Y-62518481D01*
X105965853Y-62379100D01*
X105901703Y-62224228D01*
X105869000Y-62059816D01*
X105869000Y-61892184D01*
X105901703Y-61727772D01*
X105965853Y-61572900D01*
X106058985Y-61433519D01*
X106177519Y-61314985D01*
X106316900Y-61221853D01*
X106471772Y-61157703D01*
X106636184Y-61125000D01*
X106803816Y-61125000D01*
X106968228Y-61157703D01*
G37*
G36*
X121955000Y-62509000D02*
G01*
X119853000Y-62509000D01*
X119853000Y-60907000D01*
X121955000Y-60907000D01*
X121955000Y-62509000D01*
G37*
G36*
X132313642Y-60189781D02*
G01*
X132459414Y-60250162D01*
X132459416Y-60250163D01*
X132590608Y-60337822D01*
X132702178Y-60449392D01*
X132764139Y-60542124D01*
X132789838Y-60580586D01*
X132850219Y-60726358D01*
X132881000Y-60881107D01*
X132881000Y-61038893D01*
X132850219Y-61193642D01*
X132799957Y-61314985D01*
X132789837Y-61339416D01*
X132702178Y-61470608D01*
X132590608Y-61582178D01*
X132459416Y-61669837D01*
X132459415Y-61669838D01*
X132459414Y-61669838D01*
X132313642Y-61730219D01*
X132158893Y-61761000D01*
X132001107Y-61761000D01*
X131846358Y-61730219D01*
X131700586Y-61669838D01*
X131700585Y-61669838D01*
X131700584Y-61669837D01*
X131569392Y-61582178D01*
X131457822Y-61470608D01*
X131370163Y-61339416D01*
X131360043Y-61314985D01*
X131309781Y-61193642D01*
X131279000Y-61038893D01*
X131279000Y-60881107D01*
X131309781Y-60726358D01*
X131370162Y-60580586D01*
X131395861Y-60542124D01*
X131457822Y-60449392D01*
X131569392Y-60337822D01*
X131700584Y-60250163D01*
X131700586Y-60250162D01*
X131846358Y-60189781D01*
X132001107Y-60159000D01*
X132158893Y-60159000D01*
X132313642Y-60189781D01*
G37*
G36*
X150981062Y-59022181D02*
G01*
X151015981Y-59032774D01*
X151048163Y-59049976D01*
X151076373Y-59073127D01*
X151099524Y-59101337D01*
X151116726Y-59133519D01*
X151127319Y-59168438D01*
X151131500Y-59210895D01*
X151131500Y-60677105D01*
X151127319Y-60719562D01*
X151116726Y-60754481D01*
X151099524Y-60786663D01*
X151076373Y-60814873D01*
X151048163Y-60838024D01*
X151015981Y-60855226D01*
X150981062Y-60865819D01*
X150938605Y-60870000D01*
X149797395Y-60870000D01*
X149754938Y-60865819D01*
X149720019Y-60855226D01*
X149687837Y-60838024D01*
X149659627Y-60814873D01*
X149636476Y-60786663D01*
X149619274Y-60754481D01*
X149608681Y-60719562D01*
X149604500Y-60677105D01*
X149604500Y-59210895D01*
X149608681Y-59168438D01*
X149619274Y-59133519D01*
X149636476Y-59101337D01*
X149659627Y-59073127D01*
X149687837Y-59049976D01*
X149720019Y-59032774D01*
X149754938Y-59022181D01*
X149797395Y-59018000D01*
X150938605Y-59018000D01*
X150981062Y-59022181D01*
G37*
G36*
X153956062Y-59022181D02*
G01*
X153990981Y-59032774D01*
X154023163Y-59049976D01*
X154051373Y-59073127D01*
X154074524Y-59101337D01*
X154091726Y-59133519D01*
X154102319Y-59168438D01*
X154106500Y-59210895D01*
X154106500Y-60677105D01*
X154102319Y-60719562D01*
X154091726Y-60754481D01*
X154074524Y-60786663D01*
X154051373Y-60814873D01*
X154023163Y-60838024D01*
X153990981Y-60855226D01*
X153956062Y-60865819D01*
X153913605Y-60870000D01*
X152772395Y-60870000D01*
X152729938Y-60865819D01*
X152695019Y-60855226D01*
X152662837Y-60838024D01*
X152634627Y-60814873D01*
X152611476Y-60786663D01*
X152594274Y-60754481D01*
X152583681Y-60719562D01*
X152579500Y-60677105D01*
X152579500Y-59210895D01*
X152583681Y-59168438D01*
X152594274Y-59133519D01*
X152611476Y-59101337D01*
X152634627Y-59073127D01*
X152662837Y-59049976D01*
X152695019Y-59032774D01*
X152729938Y-59022181D01*
X152772395Y-59018000D01*
X153913605Y-59018000D01*
X153956062Y-59022181D01*
G37*
G36*
X146552228Y-59125703D02*
G01*
X146707100Y-59189853D01*
X146846481Y-59282985D01*
X146965015Y-59401519D01*
X147058147Y-59540900D01*
X147122297Y-59695772D01*
X147155000Y-59860184D01*
X147155000Y-60027816D01*
X147122297Y-60192228D01*
X147058147Y-60347100D01*
X146965015Y-60486481D01*
X146846481Y-60605015D01*
X146707100Y-60698147D01*
X146552228Y-60762297D01*
X146387816Y-60795000D01*
X146220184Y-60795000D01*
X146055772Y-60762297D01*
X145900900Y-60698147D01*
X145761519Y-60605015D01*
X145642985Y-60486481D01*
X145549853Y-60347100D01*
X145485703Y-60192228D01*
X145453000Y-60027816D01*
X145453000Y-59860184D01*
X145485703Y-59695772D01*
X145549853Y-59540900D01*
X145642985Y-59401519D01*
X145761519Y-59282985D01*
X145900900Y-59189853D01*
X146055772Y-59125703D01*
X146220184Y-59093000D01*
X146387816Y-59093000D01*
X146552228Y-59125703D01*
G37*
G36*
X138932228Y-59125703D02*
G01*
X139087100Y-59189853D01*
X139226481Y-59282985D01*
X139345015Y-59401519D01*
X139438147Y-59540900D01*
X139502297Y-59695772D01*
X139535000Y-59860184D01*
X139535000Y-60027816D01*
X139502297Y-60192228D01*
X139438147Y-60347100D01*
X139345015Y-60486481D01*
X139226481Y-60605015D01*
X139087100Y-60698147D01*
X138932228Y-60762297D01*
X138767816Y-60795000D01*
X138600184Y-60795000D01*
X138435772Y-60762297D01*
X138280900Y-60698147D01*
X138141519Y-60605015D01*
X138022985Y-60486481D01*
X137929853Y-60347100D01*
X137865703Y-60192228D01*
X137833000Y-60027816D01*
X137833000Y-59860184D01*
X137865703Y-59695772D01*
X137929853Y-59540900D01*
X138022985Y-59401519D01*
X138141519Y-59282985D01*
X138280900Y-59189853D01*
X138435772Y-59125703D01*
X138600184Y-59093000D01*
X138767816Y-59093000D01*
X138932228Y-59125703D01*
G37*
G36*
X127775562Y-59184681D02*
G01*
X127810481Y-59195274D01*
X127842663Y-59212476D01*
X127870873Y-59235627D01*
X127894024Y-59263837D01*
X127911226Y-59296019D01*
X127921819Y-59330938D01*
X127926000Y-59373395D01*
X127926000Y-60514605D01*
X127921819Y-60557062D01*
X127911226Y-60591981D01*
X127894024Y-60624163D01*
X127870873Y-60652373D01*
X127842663Y-60675524D01*
X127810481Y-60692726D01*
X127775562Y-60703319D01*
X127733105Y-60707500D01*
X126266895Y-60707500D01*
X126224438Y-60703319D01*
X126189519Y-60692726D01*
X126157337Y-60675524D01*
X126129127Y-60652373D01*
X126105976Y-60624163D01*
X126088774Y-60591981D01*
X126078181Y-60557062D01*
X126074000Y-60514605D01*
X126074000Y-59373395D01*
X126078181Y-59330938D01*
X126088774Y-59296019D01*
X126105976Y-59263837D01*
X126129127Y-59235627D01*
X126157337Y-59212476D01*
X126189519Y-59195274D01*
X126224438Y-59184681D01*
X126266895Y-59180500D01*
X127733105Y-59180500D01*
X127775562Y-59184681D01*
G37*
G36*
X153956062Y-56482181D02*
G01*
X153990981Y-56492774D01*
X154023163Y-56509976D01*
X154051373Y-56533127D01*
X154074524Y-56561337D01*
X154091726Y-56593519D01*
X154102319Y-56628438D01*
X154106500Y-56670895D01*
X154106500Y-58137105D01*
X154102319Y-58179562D01*
X154091726Y-58214481D01*
X154074524Y-58246663D01*
X154051373Y-58274873D01*
X154023163Y-58298024D01*
X153990981Y-58315226D01*
X153956062Y-58325819D01*
X153913605Y-58330000D01*
X152772395Y-58330000D01*
X152729938Y-58325819D01*
X152695019Y-58315226D01*
X152662837Y-58298024D01*
X152634627Y-58274873D01*
X152611476Y-58246663D01*
X152594274Y-58214481D01*
X152583681Y-58179562D01*
X152579500Y-58137105D01*
X152579500Y-56670895D01*
X152583681Y-56628438D01*
X152594274Y-56593519D01*
X152611476Y-56561337D01*
X152634627Y-56533127D01*
X152662837Y-56509976D01*
X152695019Y-56492774D01*
X152729938Y-56482181D01*
X152772395Y-56478000D01*
X153913605Y-56478000D01*
X153956062Y-56482181D01*
G37*
G36*
X150981062Y-56482181D02*
G01*
X151015981Y-56492774D01*
X151048163Y-56509976D01*
X151076373Y-56533127D01*
X151099524Y-56561337D01*
X151116726Y-56593519D01*
X151127319Y-56628438D01*
X151131500Y-56670895D01*
X151131500Y-58137105D01*
X151127319Y-58179562D01*
X151116726Y-58214481D01*
X151099524Y-58246663D01*
X151076373Y-58274873D01*
X151048163Y-58298024D01*
X151015981Y-58315226D01*
X150981062Y-58325819D01*
X150938605Y-58330000D01*
X149797395Y-58330000D01*
X149754938Y-58325819D01*
X149720019Y-58315226D01*
X149687837Y-58298024D01*
X149659627Y-58274873D01*
X149636476Y-58246663D01*
X149619274Y-58214481D01*
X149608681Y-58179562D01*
X149604500Y-58137105D01*
X149604500Y-56670895D01*
X149608681Y-56628438D01*
X149619274Y-56593519D01*
X149636476Y-56561337D01*
X149659627Y-56533127D01*
X149687837Y-56509976D01*
X149720019Y-56492774D01*
X149754938Y-56482181D01*
X149797395Y-56478000D01*
X150938605Y-56478000D01*
X150981062Y-56482181D01*
G37*
G36*
X138932228Y-56585703D02*
G01*
X139087100Y-56649853D01*
X139226481Y-56742985D01*
X139345015Y-56861519D01*
X139438147Y-57000900D01*
X139502297Y-57155772D01*
X139535000Y-57320184D01*
X139535000Y-57487816D01*
X139502297Y-57652228D01*
X139438147Y-57807100D01*
X139345015Y-57946481D01*
X139226481Y-58065015D01*
X139087100Y-58158147D01*
X138932228Y-58222297D01*
X138767816Y-58255000D01*
X138600184Y-58255000D01*
X138435772Y-58222297D01*
X138280900Y-58158147D01*
X138141519Y-58065015D01*
X138022985Y-57946481D01*
X137929853Y-57807100D01*
X137865703Y-57652228D01*
X137833000Y-57487816D01*
X137833000Y-57320184D01*
X137865703Y-57155772D01*
X137929853Y-57000900D01*
X138022985Y-56861519D01*
X138141519Y-56742985D01*
X138280900Y-56649853D01*
X138435772Y-56585703D01*
X138600184Y-56553000D01*
X138767816Y-56553000D01*
X138932228Y-56585703D01*
G37*
G36*
X146552228Y-56585703D02*
G01*
X146707100Y-56649853D01*
X146846481Y-56742985D01*
X146965015Y-56861519D01*
X147058147Y-57000900D01*
X147122297Y-57155772D01*
X147155000Y-57320184D01*
X147155000Y-57487816D01*
X147122297Y-57652228D01*
X147058147Y-57807100D01*
X146965015Y-57946481D01*
X146846481Y-58065015D01*
X146707100Y-58158147D01*
X146552228Y-58222297D01*
X146387816Y-58255000D01*
X146220184Y-58255000D01*
X146055772Y-58222297D01*
X145900900Y-58158147D01*
X145761519Y-58065015D01*
X145642985Y-57946481D01*
X145549853Y-57807100D01*
X145485703Y-57652228D01*
X145453000Y-57487816D01*
X145453000Y-57320184D01*
X145485703Y-57155772D01*
X145549853Y-57000900D01*
X145642985Y-56861519D01*
X145761519Y-56742985D01*
X145900900Y-56649853D01*
X146055772Y-56585703D01*
X146220184Y-56553000D01*
X146387816Y-56553000D01*
X146552228Y-56585703D01*
G37*
G36*
X156087552Y-56970331D02*
G01*
X156161351Y-57000900D01*
X156169629Y-57004329D01*
X156206813Y-57029175D01*
X156243495Y-57053685D01*
X156306315Y-57116505D01*
X156355672Y-57190373D01*
X156389669Y-57272448D01*
X156407000Y-57359579D01*
X156407000Y-57448421D01*
X156389669Y-57535552D01*
X156355672Y-57617627D01*
X156306315Y-57691495D01*
X156243495Y-57754315D01*
X156209766Y-57776852D01*
X156169629Y-57803671D01*
X156169628Y-57803672D01*
X156169627Y-57803672D01*
X156087552Y-57837669D01*
X156000421Y-57855000D01*
X155911579Y-57855000D01*
X155824448Y-57837669D01*
X155742373Y-57803672D01*
X155742372Y-57803672D01*
X155742371Y-57803671D01*
X155702234Y-57776852D01*
X155668505Y-57754315D01*
X155605685Y-57691495D01*
X155556328Y-57617627D01*
X155522331Y-57535552D01*
X155505000Y-57448421D01*
X155505000Y-57359579D01*
X155522331Y-57272448D01*
X155556328Y-57190373D01*
X155605685Y-57116505D01*
X155668505Y-57053685D01*
X155705187Y-57029175D01*
X155742371Y-57004329D01*
X155750649Y-57000900D01*
X155824448Y-56970331D01*
X155911579Y-56953000D01*
X156000421Y-56953000D01*
X156087552Y-56970331D01*
G37*
G36*
X121444062Y-55974181D02*
G01*
X121478981Y-55984774D01*
X121511163Y-56001976D01*
X121539373Y-56025127D01*
X121562524Y-56053337D01*
X121579726Y-56085519D01*
X121590319Y-56120438D01*
X121594500Y-56162895D01*
X121594500Y-57629105D01*
X121590319Y-57671562D01*
X121579726Y-57706481D01*
X121562524Y-57738663D01*
X121539373Y-57766873D01*
X121511163Y-57790024D01*
X121478981Y-57807226D01*
X121444062Y-57817819D01*
X121401605Y-57822000D01*
X120260395Y-57822000D01*
X120217938Y-57817819D01*
X120183019Y-57807226D01*
X120150837Y-57790024D01*
X120122627Y-57766873D01*
X120099476Y-57738663D01*
X120082274Y-57706481D01*
X120071681Y-57671562D01*
X120067500Y-57629105D01*
X120067500Y-56162895D01*
X120071681Y-56120438D01*
X120082274Y-56085519D01*
X120099476Y-56053337D01*
X120122627Y-56025127D01*
X120150837Y-56001976D01*
X120183019Y-55984774D01*
X120217938Y-55974181D01*
X120260395Y-55970000D01*
X121401605Y-55970000D01*
X121444062Y-55974181D01*
G37*
G36*
X118469062Y-55974181D02*
G01*
X118503981Y-55984774D01*
X118536163Y-56001976D01*
X118564373Y-56025127D01*
X118587524Y-56053337D01*
X118604726Y-56085519D01*
X118615319Y-56120438D01*
X118619500Y-56162895D01*
X118619500Y-57629105D01*
X118615319Y-57671562D01*
X118604726Y-57706481D01*
X118587524Y-57738663D01*
X118564373Y-57766873D01*
X118536163Y-57790024D01*
X118503981Y-57807226D01*
X118469062Y-57817819D01*
X118426605Y-57822000D01*
X117285395Y-57822000D01*
X117242938Y-57817819D01*
X117208019Y-57807226D01*
X117175837Y-57790024D01*
X117147627Y-57766873D01*
X117124476Y-57738663D01*
X117107274Y-57706481D01*
X117096681Y-57671562D01*
X117092500Y-57629105D01*
X117092500Y-56162895D01*
X117096681Y-56120438D01*
X117107274Y-56085519D01*
X117124476Y-56053337D01*
X117147627Y-56025127D01*
X117175837Y-56001976D01*
X117208019Y-55984774D01*
X117242938Y-55974181D01*
X117285395Y-55970000D01*
X118426605Y-55970000D01*
X118469062Y-55974181D01*
G37*
G36*
X127775562Y-56209681D02*
G01*
X127810481Y-56220274D01*
X127842663Y-56237476D01*
X127870873Y-56260627D01*
X127894024Y-56288837D01*
X127911226Y-56321019D01*
X127921819Y-56355938D01*
X127926000Y-56398395D01*
X127926000Y-57539605D01*
X127921819Y-57582062D01*
X127911226Y-57616981D01*
X127894024Y-57649163D01*
X127870873Y-57677373D01*
X127842663Y-57700524D01*
X127810481Y-57717726D01*
X127775562Y-57728319D01*
X127733105Y-57732500D01*
X126266895Y-57732500D01*
X126224438Y-57728319D01*
X126189519Y-57717726D01*
X126157337Y-57700524D01*
X126129127Y-57677373D01*
X126105976Y-57649163D01*
X126088774Y-57616981D01*
X126078181Y-57582062D01*
X126074000Y-57539605D01*
X126074000Y-56398395D01*
X126078181Y-56355938D01*
X126088774Y-56321019D01*
X126105976Y-56288837D01*
X126129127Y-56260627D01*
X126157337Y-56237476D01*
X126189519Y-56220274D01*
X126224438Y-56209681D01*
X126266895Y-56205500D01*
X127733105Y-56205500D01*
X127775562Y-56209681D01*
G37*
G36*
X132313642Y-55309781D02*
G01*
X132459414Y-55370162D01*
X132459416Y-55370163D01*
X132590608Y-55457822D01*
X132702178Y-55569392D01*
X132777618Y-55682297D01*
X132789838Y-55700586D01*
X132850219Y-55846358D01*
X132881000Y-56001107D01*
X132881000Y-56158893D01*
X132850219Y-56313642D01*
X132815113Y-56398395D01*
X132789837Y-56459416D01*
X132702178Y-56590608D01*
X132590608Y-56702178D01*
X132459416Y-56789837D01*
X132459415Y-56789838D01*
X132459414Y-56789838D01*
X132313642Y-56850219D01*
X132158893Y-56881000D01*
X132001107Y-56881000D01*
X131846358Y-56850219D01*
X131700586Y-56789838D01*
X131700585Y-56789838D01*
X131700584Y-56789837D01*
X131569392Y-56702178D01*
X131457822Y-56590608D01*
X131370163Y-56459416D01*
X131344887Y-56398395D01*
X131309781Y-56313642D01*
X131279000Y-56158893D01*
X131279000Y-56001107D01*
X131309781Y-55846358D01*
X131370162Y-55700586D01*
X131382382Y-55682297D01*
X131457822Y-55569392D01*
X131569392Y-55457822D01*
X131700584Y-55370163D01*
X131700586Y-55370162D01*
X131846358Y-55309781D01*
X132001107Y-55279000D01*
X132158893Y-55279000D01*
X132313642Y-55309781D01*
G37*
G36*
X146552228Y-54045703D02*
G01*
X146707100Y-54109853D01*
X146846481Y-54202985D01*
X146965015Y-54321519D01*
X147058147Y-54460900D01*
X147122297Y-54615772D01*
X147155000Y-54780184D01*
X147155000Y-54947816D01*
X147122297Y-55112228D01*
X147058147Y-55267100D01*
X146965015Y-55406481D01*
X146846481Y-55525015D01*
X146707100Y-55618147D01*
X146552228Y-55682297D01*
X146387816Y-55715000D01*
X146220184Y-55715000D01*
X146055772Y-55682297D01*
X145900900Y-55618147D01*
X145761519Y-55525015D01*
X145642985Y-55406481D01*
X145549853Y-55267100D01*
X145485703Y-55112228D01*
X145453000Y-54947816D01*
X145453000Y-54780184D01*
X145485703Y-54615772D01*
X145549853Y-54460900D01*
X145642985Y-54321519D01*
X145761519Y-54202985D01*
X145900900Y-54109853D01*
X146055772Y-54045703D01*
X146220184Y-54013000D01*
X146387816Y-54013000D01*
X146552228Y-54045703D01*
G37*
G36*
X138932228Y-54045703D02*
G01*
X139087100Y-54109853D01*
X139226481Y-54202985D01*
X139345015Y-54321519D01*
X139438147Y-54460900D01*
X139502297Y-54615772D01*
X139535000Y-54780184D01*
X139535000Y-54947816D01*
X139502297Y-55112228D01*
X139438147Y-55267100D01*
X139345015Y-55406481D01*
X139226481Y-55525015D01*
X139087100Y-55618147D01*
X138932228Y-55682297D01*
X138767816Y-55715000D01*
X138600184Y-55715000D01*
X138435772Y-55682297D01*
X138280900Y-55618147D01*
X138141519Y-55525015D01*
X138022985Y-55406481D01*
X137929853Y-55267100D01*
X137865703Y-55112228D01*
X137833000Y-54947816D01*
X137833000Y-54780184D01*
X137865703Y-54615772D01*
X137929853Y-54460900D01*
X138022985Y-54321519D01*
X138141519Y-54202985D01*
X138280900Y-54109853D01*
X138435772Y-54045703D01*
X138600184Y-54013000D01*
X138767816Y-54013000D01*
X138932228Y-54045703D01*
G37*
G36*
X118469062Y-53434181D02*
G01*
X118503981Y-53444774D01*
X118536163Y-53461976D01*
X118564373Y-53485127D01*
X118587524Y-53513337D01*
X118604726Y-53545519D01*
X118615319Y-53580438D01*
X118619500Y-53622895D01*
X118619500Y-55089105D01*
X118615319Y-55131562D01*
X118604726Y-55166481D01*
X118587524Y-55198663D01*
X118564373Y-55226873D01*
X118536163Y-55250024D01*
X118503981Y-55267226D01*
X118469062Y-55277819D01*
X118426605Y-55282000D01*
X117285395Y-55282000D01*
X117242938Y-55277819D01*
X117208019Y-55267226D01*
X117175837Y-55250024D01*
X117147627Y-55226873D01*
X117124476Y-55198663D01*
X117107274Y-55166481D01*
X117096681Y-55131562D01*
X117092500Y-55089105D01*
X117092500Y-53622895D01*
X117096681Y-53580438D01*
X117107274Y-53545519D01*
X117124476Y-53513337D01*
X117147627Y-53485127D01*
X117175837Y-53461976D01*
X117208019Y-53444774D01*
X117242938Y-53434181D01*
X117285395Y-53430000D01*
X118426605Y-53430000D01*
X118469062Y-53434181D01*
G37*
G36*
X121444062Y-53434181D02*
G01*
X121478981Y-53444774D01*
X121511163Y-53461976D01*
X121539373Y-53485127D01*
X121562524Y-53513337D01*
X121579726Y-53545519D01*
X121590319Y-53580438D01*
X121594500Y-53622895D01*
X121594500Y-55089105D01*
X121590319Y-55131562D01*
X121579726Y-55166481D01*
X121562524Y-55198663D01*
X121539373Y-55226873D01*
X121511163Y-55250024D01*
X121478981Y-55267226D01*
X121444062Y-55277819D01*
X121401605Y-55282000D01*
X120260395Y-55282000D01*
X120217938Y-55277819D01*
X120183019Y-55267226D01*
X120150837Y-55250024D01*
X120122627Y-55226873D01*
X120099476Y-55198663D01*
X120082274Y-55166481D01*
X120071681Y-55131562D01*
X120067500Y-55089105D01*
X120067500Y-53622895D01*
X120071681Y-53580438D01*
X120082274Y-53545519D01*
X120099476Y-53513337D01*
X120122627Y-53485127D01*
X120150837Y-53461976D01*
X120183019Y-53444774D01*
X120217938Y-53434181D01*
X120260395Y-53430000D01*
X121401605Y-53430000D01*
X121444062Y-53434181D01*
G37*
G36*
X127775562Y-53596681D02*
G01*
X127810481Y-53607274D01*
X127842663Y-53624476D01*
X127870873Y-53647627D01*
X127894024Y-53675837D01*
X127911226Y-53708019D01*
X127921819Y-53742938D01*
X127926000Y-53785395D01*
X127926000Y-54926605D01*
X127921819Y-54969062D01*
X127911226Y-55003981D01*
X127894024Y-55036163D01*
X127870873Y-55064373D01*
X127842663Y-55087524D01*
X127810481Y-55104726D01*
X127775562Y-55115319D01*
X127733105Y-55119500D01*
X126266895Y-55119500D01*
X126224438Y-55115319D01*
X126189519Y-55104726D01*
X126157337Y-55087524D01*
X126129127Y-55064373D01*
X126105976Y-55036163D01*
X126088774Y-55003981D01*
X126078181Y-54969062D01*
X126074000Y-54926605D01*
X126074000Y-53785395D01*
X126078181Y-53742938D01*
X126088774Y-53708019D01*
X126105976Y-53675837D01*
X126129127Y-53647627D01*
X126157337Y-53624476D01*
X126189519Y-53607274D01*
X126224438Y-53596681D01*
X126266895Y-53592500D01*
X127733105Y-53592500D01*
X127775562Y-53596681D01*
G37*
G36*
X107575331Y-51298211D02*
G01*
X107903092Y-51433974D01*
X108198070Y-51631072D01*
X108448928Y-51881930D01*
X108646026Y-52176908D01*
X108781789Y-52504669D01*
X108851000Y-52852616D01*
X108851000Y-53207384D01*
X108781789Y-53555331D01*
X108646026Y-53883092D01*
X108448928Y-54178070D01*
X108198070Y-54428928D01*
X107903092Y-54626026D01*
X107575331Y-54761789D01*
X107227384Y-54831000D01*
X106872616Y-54831000D01*
X106524669Y-54761789D01*
X106196908Y-54626026D01*
X105901930Y-54428928D01*
X105651072Y-54178070D01*
X105453974Y-53883092D01*
X105318211Y-53555331D01*
X105249000Y-53207384D01*
X105249000Y-52852616D01*
X105318211Y-52504669D01*
X105453974Y-52176908D01*
X105651072Y-51881930D01*
X105901930Y-51631072D01*
X106196908Y-51433974D01*
X106524669Y-51298211D01*
X106872616Y-51229000D01*
X107227384Y-51229000D01*
X107575331Y-51298211D01*
G37*
G36*
X138932228Y-51505703D02*
G01*
X139087100Y-51569853D01*
X139226481Y-51662985D01*
X139345015Y-51781519D01*
X139438147Y-51920900D01*
X139502297Y-52075772D01*
X139535000Y-52240184D01*
X139535000Y-52407816D01*
X139502297Y-52572228D01*
X139438147Y-52727100D01*
X139345015Y-52866481D01*
X139226481Y-52985015D01*
X139087100Y-53078147D01*
X138932228Y-53142297D01*
X138767816Y-53175000D01*
X138600184Y-53175000D01*
X138435772Y-53142297D01*
X138280900Y-53078147D01*
X138141519Y-52985015D01*
X138022985Y-52866481D01*
X137929853Y-52727100D01*
X137865703Y-52572228D01*
X137833000Y-52407816D01*
X137833000Y-52240184D01*
X137865703Y-52075772D01*
X137929853Y-51920900D01*
X138022985Y-51781519D01*
X138141519Y-51662985D01*
X138280900Y-51569853D01*
X138435772Y-51505703D01*
X138600184Y-51473000D01*
X138767816Y-51473000D01*
X138932228Y-51505703D01*
G37*
G36*
X146552228Y-51505703D02*
G01*
X146707100Y-51569853D01*
X146846481Y-51662985D01*
X146965015Y-51781519D01*
X147058147Y-51920900D01*
X147122297Y-52075772D01*
X147155000Y-52240184D01*
X147155000Y-52407816D01*
X147122297Y-52572228D01*
X147058147Y-52727100D01*
X146965015Y-52866481D01*
X146846481Y-52985015D01*
X146707100Y-53078147D01*
X146552228Y-53142297D01*
X146387816Y-53175000D01*
X146220184Y-53175000D01*
X146055772Y-53142297D01*
X145900900Y-53078147D01*
X145761519Y-52985015D01*
X145642985Y-52866481D01*
X145549853Y-52727100D01*
X145485703Y-52572228D01*
X145453000Y-52407816D01*
X145453000Y-52240184D01*
X145485703Y-52075772D01*
X145549853Y-51920900D01*
X145642985Y-51781519D01*
X145761519Y-51662985D01*
X145900900Y-51569853D01*
X146055772Y-51505703D01*
X146220184Y-51473000D01*
X146387816Y-51473000D01*
X146552228Y-51505703D01*
G37*
G36*
X121444062Y-50894181D02*
G01*
X121478981Y-50904774D01*
X121511163Y-50921976D01*
X121539373Y-50945127D01*
X121562524Y-50973337D01*
X121579726Y-51005519D01*
X121590319Y-51040438D01*
X121594500Y-51082895D01*
X121594500Y-52549105D01*
X121590319Y-52591562D01*
X121579726Y-52626481D01*
X121562524Y-52658663D01*
X121539373Y-52686873D01*
X121511163Y-52710024D01*
X121478981Y-52727226D01*
X121444062Y-52737819D01*
X121401605Y-52742000D01*
X120260395Y-52742000D01*
X120217938Y-52737819D01*
X120183019Y-52727226D01*
X120150837Y-52710024D01*
X120122627Y-52686873D01*
X120099476Y-52658663D01*
X120082274Y-52626481D01*
X120071681Y-52591562D01*
X120067500Y-52549105D01*
X120067500Y-51082895D01*
X120071681Y-51040438D01*
X120082274Y-51005519D01*
X120099476Y-50973337D01*
X120122627Y-50945127D01*
X120150837Y-50921976D01*
X120183019Y-50904774D01*
X120217938Y-50894181D01*
X120260395Y-50890000D01*
X121401605Y-50890000D01*
X121444062Y-50894181D01*
G37*
G36*
X118469062Y-50894181D02*
G01*
X118503981Y-50904774D01*
X118536163Y-50921976D01*
X118564373Y-50945127D01*
X118587524Y-50973337D01*
X118604726Y-51005519D01*
X118615319Y-51040438D01*
X118619500Y-51082895D01*
X118619500Y-52549105D01*
X118615319Y-52591562D01*
X118604726Y-52626481D01*
X118587524Y-52658663D01*
X118564373Y-52686873D01*
X118536163Y-52710024D01*
X118503981Y-52727226D01*
X118469062Y-52737819D01*
X118426605Y-52742000D01*
X117285395Y-52742000D01*
X117242938Y-52737819D01*
X117208019Y-52727226D01*
X117175837Y-52710024D01*
X117147627Y-52686873D01*
X117124476Y-52658663D01*
X117107274Y-52626481D01*
X117096681Y-52591562D01*
X117092500Y-52549105D01*
X117092500Y-51082895D01*
X117096681Y-51040438D01*
X117107274Y-51005519D01*
X117124476Y-50973337D01*
X117147627Y-50945127D01*
X117175837Y-50921976D01*
X117208019Y-50904774D01*
X117242938Y-50894181D01*
X117285395Y-50890000D01*
X118426605Y-50890000D01*
X118469062Y-50894181D01*
G37*
G36*
X127775562Y-50621681D02*
G01*
X127810481Y-50632274D01*
X127842663Y-50649476D01*
X127870873Y-50672627D01*
X127894024Y-50700837D01*
X127911226Y-50733019D01*
X127921819Y-50767938D01*
X127926000Y-50810395D01*
X127926000Y-51951605D01*
X127921819Y-51994062D01*
X127911226Y-52028981D01*
X127894024Y-52061163D01*
X127870873Y-52089373D01*
X127842663Y-52112524D01*
X127810481Y-52129726D01*
X127775562Y-52140319D01*
X127733105Y-52144500D01*
X126266895Y-52144500D01*
X126224438Y-52140319D01*
X126189519Y-52129726D01*
X126157337Y-52112524D01*
X126129127Y-52089373D01*
X126105976Y-52061163D01*
X126088774Y-52028981D01*
X126078181Y-51994062D01*
X126074000Y-51951605D01*
X126074000Y-50810395D01*
X126078181Y-50767938D01*
X126088774Y-50733019D01*
X126105976Y-50700837D01*
X126129127Y-50672627D01*
X126157337Y-50649476D01*
X126189519Y-50632274D01*
X126224438Y-50621681D01*
X126266895Y-50617500D01*
X127733105Y-50617500D01*
X127775562Y-50621681D01*
G37*
G36*
X159701000Y-50735000D02*
G01*
X157799000Y-50735000D01*
X157799000Y-48833000D01*
X159701000Y-48833000D01*
X159701000Y-50735000D01*
G37*
G36*
X161567395Y-48869546D02*
G01*
X161740466Y-48941234D01*
X161768331Y-48959853D01*
X161896227Y-49045310D01*
X162028690Y-49177773D01*
X162071284Y-49241520D01*
X162132766Y-49333534D01*
X162204454Y-49506605D01*
X162241000Y-49690333D01*
X162241000Y-49877667D01*
X162204454Y-50061395D01*
X162132766Y-50234466D01*
X162132765Y-50234467D01*
X162028690Y-50390227D01*
X161896227Y-50522690D01*
X161873092Y-50538148D01*
X161740466Y-50626766D01*
X161567395Y-50698454D01*
X161383667Y-50735000D01*
X161196333Y-50735000D01*
X161012605Y-50698454D01*
X160839534Y-50626766D01*
X160706908Y-50538148D01*
X160683773Y-50522690D01*
X160551310Y-50390227D01*
X160447235Y-50234467D01*
X160447234Y-50234466D01*
X160375546Y-50061395D01*
X160339000Y-49877667D01*
X160339000Y-49690333D01*
X160375546Y-49506605D01*
X160447234Y-49333534D01*
X160508716Y-49241520D01*
X160551310Y-49177773D01*
X160683773Y-49045310D01*
X160811669Y-48959853D01*
X160839534Y-48941234D01*
X161012605Y-48869546D01*
X161196333Y-48833000D01*
X161383667Y-48833000D01*
X161567395Y-48869546D01*
G37*
G36*
X153956062Y-48862181D02*
G01*
X153990981Y-48872774D01*
X154023163Y-48889976D01*
X154051373Y-48913127D01*
X154074524Y-48941337D01*
X154091726Y-48973519D01*
X154102319Y-49008438D01*
X154106500Y-49050895D01*
X154106500Y-50517105D01*
X154102319Y-50559562D01*
X154091726Y-50594481D01*
X154074524Y-50626663D01*
X154051373Y-50654873D01*
X154023163Y-50678024D01*
X153990981Y-50695226D01*
X153956062Y-50705819D01*
X153913605Y-50710000D01*
X152772395Y-50710000D01*
X152729938Y-50705819D01*
X152695019Y-50695226D01*
X152662837Y-50678024D01*
X152634627Y-50654873D01*
X152611476Y-50626663D01*
X152594274Y-50594481D01*
X152583681Y-50559562D01*
X152579500Y-50517105D01*
X152579500Y-49050895D01*
X152583681Y-49008438D01*
X152594274Y-48973519D01*
X152611476Y-48941337D01*
X152634627Y-48913127D01*
X152662837Y-48889976D01*
X152695019Y-48872774D01*
X152729938Y-48862181D01*
X152772395Y-48858000D01*
X153913605Y-48858000D01*
X153956062Y-48862181D01*
G37*
G36*
X150981062Y-48862181D02*
G01*
X151015981Y-48872774D01*
X151048163Y-48889976D01*
X151076373Y-48913127D01*
X151099524Y-48941337D01*
X151116726Y-48973519D01*
X151127319Y-49008438D01*
X151131500Y-49050895D01*
X151131500Y-50517105D01*
X151127319Y-50559562D01*
X151116726Y-50594481D01*
X151099524Y-50626663D01*
X151076373Y-50654873D01*
X151048163Y-50678024D01*
X151015981Y-50695226D01*
X150981062Y-50705819D01*
X150938605Y-50710000D01*
X149797395Y-50710000D01*
X149754938Y-50705819D01*
X149720019Y-50695226D01*
X149687837Y-50678024D01*
X149659627Y-50654873D01*
X149636476Y-50626663D01*
X149619274Y-50594481D01*
X149608681Y-50559562D01*
X149604500Y-50517105D01*
X149604500Y-49050895D01*
X149608681Y-49008438D01*
X149619274Y-48973519D01*
X149636476Y-48941337D01*
X149659627Y-48913127D01*
X149687837Y-48889976D01*
X149720019Y-48872774D01*
X149754938Y-48862181D01*
X149797395Y-48858000D01*
X150938605Y-48858000D01*
X150981062Y-48862181D01*
G37*
G36*
X138932228Y-48965703D02*
G01*
X139087100Y-49029853D01*
X139226481Y-49122985D01*
X139345015Y-49241519D01*
X139438147Y-49380900D01*
X139502297Y-49535772D01*
X139535000Y-49700184D01*
X139535000Y-49867816D01*
X139502297Y-50032228D01*
X139438147Y-50187100D01*
X139345015Y-50326481D01*
X139226481Y-50445015D01*
X139087100Y-50538147D01*
X138932228Y-50602297D01*
X138767816Y-50635000D01*
X138600184Y-50635000D01*
X138435772Y-50602297D01*
X138280900Y-50538147D01*
X138141519Y-50445015D01*
X138022985Y-50326481D01*
X137929853Y-50187100D01*
X137865703Y-50032228D01*
X137833000Y-49867816D01*
X137833000Y-49700184D01*
X137865703Y-49535772D01*
X137929853Y-49380900D01*
X138022985Y-49241519D01*
X138141519Y-49122985D01*
X138280900Y-49029853D01*
X138435772Y-48965703D01*
X138600184Y-48933000D01*
X138767816Y-48933000D01*
X138932228Y-48965703D01*
G37*
G36*
X146552228Y-48965703D02*
G01*
X146707100Y-49029853D01*
X146846481Y-49122985D01*
X146965015Y-49241519D01*
X147058147Y-49380900D01*
X147122297Y-49535772D01*
X147155000Y-49700184D01*
X147155000Y-49867816D01*
X147122297Y-50032228D01*
X147058147Y-50187100D01*
X146965015Y-50326481D01*
X146846481Y-50445015D01*
X146707100Y-50538147D01*
X146552228Y-50602297D01*
X146387816Y-50635000D01*
X146220184Y-50635000D01*
X146055772Y-50602297D01*
X145900900Y-50538147D01*
X145761519Y-50445015D01*
X145642985Y-50326481D01*
X145549853Y-50187100D01*
X145485703Y-50032228D01*
X145453000Y-49867816D01*
X145453000Y-49700184D01*
X145485703Y-49535772D01*
X145549853Y-49380900D01*
X145642985Y-49241519D01*
X145761519Y-49122985D01*
X145900900Y-49029853D01*
X146055772Y-48965703D01*
X146220184Y-48933000D01*
X146387816Y-48933000D01*
X146552228Y-48965703D01*
G37*
G36*
X118505562Y-48354181D02*
G01*
X118540481Y-48364774D01*
X118572663Y-48381976D01*
X118600873Y-48405127D01*
X118624024Y-48433337D01*
X118641226Y-48465519D01*
X118651819Y-48500438D01*
X118656000Y-48542895D01*
X118656000Y-50009105D01*
X118651819Y-50051562D01*
X118641226Y-50086481D01*
X118624024Y-50118663D01*
X118600873Y-50146873D01*
X118572663Y-50170024D01*
X118540481Y-50187226D01*
X118505562Y-50197819D01*
X118463105Y-50202000D01*
X117321895Y-50202000D01*
X117279438Y-50197819D01*
X117244519Y-50187226D01*
X117212337Y-50170024D01*
X117184127Y-50146873D01*
X117160976Y-50118663D01*
X117143774Y-50086481D01*
X117133181Y-50051562D01*
X117129000Y-50009105D01*
X117129000Y-48542895D01*
X117133181Y-48500438D01*
X117143774Y-48465519D01*
X117160976Y-48433337D01*
X117184127Y-48405127D01*
X117212337Y-48381976D01*
X117244519Y-48364774D01*
X117279438Y-48354181D01*
X117321895Y-48350000D01*
X118463105Y-48350000D01*
X118505562Y-48354181D01*
G37*
G36*
X121480562Y-48354181D02*
G01*
X121515481Y-48364774D01*
X121547663Y-48381976D01*
X121575873Y-48405127D01*
X121599024Y-48433337D01*
X121616226Y-48465519D01*
X121626819Y-48500438D01*
X121631000Y-48542895D01*
X121631000Y-50009105D01*
X121626819Y-50051562D01*
X121616226Y-50086481D01*
X121599024Y-50118663D01*
X121575873Y-50146873D01*
X121547663Y-50170024D01*
X121515481Y-50187226D01*
X121480562Y-50197819D01*
X121438105Y-50202000D01*
X120296895Y-50202000D01*
X120254438Y-50197819D01*
X120219519Y-50187226D01*
X120187337Y-50170024D01*
X120159127Y-50146873D01*
X120135976Y-50118663D01*
X120118774Y-50086481D01*
X120108181Y-50051562D01*
X120104000Y-50009105D01*
X120104000Y-48542895D01*
X120108181Y-48500438D01*
X120118774Y-48465519D01*
X120135976Y-48433337D01*
X120159127Y-48405127D01*
X120187337Y-48381976D01*
X120219519Y-48364774D01*
X120254438Y-48354181D01*
X120296895Y-48350000D01*
X121438105Y-48350000D01*
X121480562Y-48354181D01*
G37*
G36*
X170293512Y-47363927D02*
G01*
X170442812Y-47393624D01*
X170606784Y-47461544D01*
X170754354Y-47560147D01*
X170879853Y-47685646D01*
X170978456Y-47833216D01*
X171046376Y-47997188D01*
X171081000Y-48171259D01*
X171081000Y-48348741D01*
X171046376Y-48522812D01*
X170978456Y-48686784D01*
X170879853Y-48834354D01*
X170754354Y-48959853D01*
X170606784Y-49058456D01*
X170442812Y-49126376D01*
X170293512Y-49156073D01*
X170268742Y-49161000D01*
X170091258Y-49161000D01*
X170066488Y-49156073D01*
X169917188Y-49126376D01*
X169753216Y-49058456D01*
X169605646Y-48959853D01*
X169480147Y-48834354D01*
X169381544Y-48686784D01*
X169313624Y-48522812D01*
X169279000Y-48348741D01*
X169279000Y-48171259D01*
X169313624Y-47997188D01*
X169381544Y-47833216D01*
X169480147Y-47685646D01*
X169605646Y-47560147D01*
X169753216Y-47461544D01*
X169917188Y-47393624D01*
X170066488Y-47363927D01*
X170091258Y-47359000D01*
X170268742Y-47359000D01*
X170293512Y-47363927D01*
G37*
G36*
X167753512Y-47363927D02*
G01*
X167902812Y-47393624D01*
X168066784Y-47461544D01*
X168214354Y-47560147D01*
X168339853Y-47685646D01*
X168438456Y-47833216D01*
X168506376Y-47997188D01*
X168541000Y-48171259D01*
X168541000Y-48348741D01*
X168506376Y-48522812D01*
X168438456Y-48686784D01*
X168339853Y-48834354D01*
X168214354Y-48959853D01*
X168066784Y-49058456D01*
X167902812Y-49126376D01*
X167753512Y-49156073D01*
X167728742Y-49161000D01*
X167551258Y-49161000D01*
X167526488Y-49156073D01*
X167377188Y-49126376D01*
X167213216Y-49058456D01*
X167065646Y-48959853D01*
X166940147Y-48834354D01*
X166841544Y-48686784D01*
X166773624Y-48522812D01*
X166739000Y-48348741D01*
X166739000Y-48171259D01*
X166773624Y-47997188D01*
X166841544Y-47833216D01*
X166940147Y-47685646D01*
X167065646Y-47560147D01*
X167213216Y-47461544D01*
X167377188Y-47393624D01*
X167526488Y-47363927D01*
X167551258Y-47359000D01*
X167728742Y-47359000D01*
X167753512Y-47363927D01*
G37*
G36*
X109873512Y-47363927D02*
G01*
X110022812Y-47393624D01*
X110186784Y-47461544D01*
X110334354Y-47560147D01*
X110459853Y-47685646D01*
X110558456Y-47833216D01*
X110618523Y-47978229D01*
X110630068Y-47999829D01*
X110645613Y-48018771D01*
X110664555Y-48034316D01*
X110686166Y-48045867D01*
X110709615Y-48052980D01*
X110734001Y-48055382D01*
X110758387Y-48052980D01*
X110781836Y-48045867D01*
X110803447Y-48034316D01*
X110822389Y-48018771D01*
X110837934Y-47999829D01*
X110849485Y-47978218D01*
X110856598Y-47954769D01*
X110859000Y-47930383D01*
X110859000Y-47359000D01*
X112661000Y-47359000D01*
X112661000Y-49161000D01*
X110859000Y-49161000D01*
X110859000Y-48589617D01*
X110856598Y-48565231D01*
X110849485Y-48541782D01*
X110837934Y-48520171D01*
X110822389Y-48501229D01*
X110803447Y-48485684D01*
X110781836Y-48474133D01*
X110758387Y-48467020D01*
X110734001Y-48464618D01*
X110709615Y-48467020D01*
X110686166Y-48474133D01*
X110664555Y-48485684D01*
X110645613Y-48501229D01*
X110630068Y-48520171D01*
X110618523Y-48541771D01*
X110558456Y-48686784D01*
X110459853Y-48834354D01*
X110334354Y-48959853D01*
X110186784Y-49058456D01*
X110022812Y-49126376D01*
X109873512Y-49156073D01*
X109848742Y-49161000D01*
X109671258Y-49161000D01*
X109646488Y-49156073D01*
X109497188Y-49126376D01*
X109333216Y-49058456D01*
X109185646Y-48959853D01*
X109060147Y-48834354D01*
X108961544Y-48686784D01*
X108893624Y-48522812D01*
X108859000Y-48348741D01*
X108859000Y-48171259D01*
X108893624Y-47997188D01*
X108961544Y-47833216D01*
X109060147Y-47685646D01*
X109185646Y-47560147D01*
X109333216Y-47461544D01*
X109497188Y-47393624D01*
X109646488Y-47363927D01*
X109671258Y-47359000D01*
X109848742Y-47359000D01*
X109873512Y-47363927D01*
G37*
G36*
X151017562Y-46322181D02*
G01*
X151052481Y-46332774D01*
X151084663Y-46349976D01*
X151112873Y-46373127D01*
X151136024Y-46401337D01*
X151153226Y-46433519D01*
X151163819Y-46468438D01*
X151168000Y-46510895D01*
X151168000Y-47977105D01*
X151163819Y-48019562D01*
X151153226Y-48054481D01*
X151136024Y-48086663D01*
X151112873Y-48114873D01*
X151084663Y-48138024D01*
X151052481Y-48155226D01*
X151017562Y-48165819D01*
X150975105Y-48170000D01*
X149833895Y-48170000D01*
X149791438Y-48165819D01*
X149756519Y-48155226D01*
X149724337Y-48138024D01*
X149696127Y-48114873D01*
X149672976Y-48086663D01*
X149655774Y-48054481D01*
X149645181Y-48019562D01*
X149641000Y-47977105D01*
X149641000Y-46510895D01*
X149645181Y-46468438D01*
X149655774Y-46433519D01*
X149672976Y-46401337D01*
X149696127Y-46373127D01*
X149724337Y-46349976D01*
X149756519Y-46332774D01*
X149791438Y-46322181D01*
X149833895Y-46318000D01*
X150975105Y-46318000D01*
X151017562Y-46322181D01*
G37*
G36*
X153992562Y-46322181D02*
G01*
X154027481Y-46332774D01*
X154059663Y-46349976D01*
X154087873Y-46373127D01*
X154111024Y-46401337D01*
X154128226Y-46433519D01*
X154138819Y-46468438D01*
X154143000Y-46510895D01*
X154143000Y-47977105D01*
X154138819Y-48019562D01*
X154128226Y-48054481D01*
X154111024Y-48086663D01*
X154087873Y-48114873D01*
X154059663Y-48138024D01*
X154027481Y-48155226D01*
X153992562Y-48165819D01*
X153950105Y-48170000D01*
X152808895Y-48170000D01*
X152766438Y-48165819D01*
X152731519Y-48155226D01*
X152699337Y-48138024D01*
X152671127Y-48114873D01*
X152647976Y-48086663D01*
X152630774Y-48054481D01*
X152620181Y-48019562D01*
X152616000Y-47977105D01*
X152616000Y-46510895D01*
X152620181Y-46468438D01*
X152630774Y-46433519D01*
X152647976Y-46401337D01*
X152671127Y-46373127D01*
X152699337Y-46349976D01*
X152731519Y-46332774D01*
X152766438Y-46322181D01*
X152808895Y-46318000D01*
X153950105Y-46318000D01*
X153992562Y-46322181D01*
G37*
G36*
X138932228Y-46425703D02*
G01*
X139087100Y-46489853D01*
X139226481Y-46582985D01*
X139345015Y-46701519D01*
X139438147Y-46840900D01*
X139502297Y-46995772D01*
X139535000Y-47160184D01*
X139535000Y-47327816D01*
X139502297Y-47492228D01*
X139438147Y-47647100D01*
X139345015Y-47786481D01*
X139226481Y-47905015D01*
X139087100Y-47998147D01*
X138932228Y-48062297D01*
X138767816Y-48095000D01*
X138600184Y-48095000D01*
X138435772Y-48062297D01*
X138280900Y-47998147D01*
X138141519Y-47905015D01*
X138022985Y-47786481D01*
X137929853Y-47647100D01*
X137865703Y-47492228D01*
X137833000Y-47327816D01*
X137833000Y-47160184D01*
X137865703Y-46995772D01*
X137929853Y-46840900D01*
X138022985Y-46701519D01*
X138141519Y-46582985D01*
X138280900Y-46489853D01*
X138435772Y-46425703D01*
X138600184Y-46393000D01*
X138767816Y-46393000D01*
X138932228Y-46425703D01*
G37*
G36*
X146552228Y-46425703D02*
G01*
X146707100Y-46489853D01*
X146846481Y-46582985D01*
X146965015Y-46701519D01*
X147058147Y-46840900D01*
X147122297Y-46995772D01*
X147155000Y-47160184D01*
X147155000Y-47327816D01*
X147122297Y-47492228D01*
X147058147Y-47647100D01*
X146965015Y-47786481D01*
X146846481Y-47905015D01*
X146707100Y-47998147D01*
X146552228Y-48062297D01*
X146387816Y-48095000D01*
X146220184Y-48095000D01*
X146055772Y-48062297D01*
X145900900Y-47998147D01*
X145761519Y-47905015D01*
X145642985Y-47786481D01*
X145549853Y-47647100D01*
X145485703Y-47492228D01*
X145453000Y-47327816D01*
X145453000Y-47160184D01*
X145485703Y-46995772D01*
X145549853Y-46840900D01*
X145642985Y-46701519D01*
X145761519Y-46582985D01*
X145900900Y-46489853D01*
X146055772Y-46425703D01*
X146220184Y-46393000D01*
X146387816Y-46393000D01*
X146552228Y-46425703D01*
G37*
G36*
X121444062Y-45814181D02*
G01*
X121478981Y-45824774D01*
X121511163Y-45841976D01*
X121539373Y-45865127D01*
X121562524Y-45893337D01*
X121579726Y-45925519D01*
X121590319Y-45960438D01*
X121594500Y-46002895D01*
X121594500Y-47469105D01*
X121590319Y-47511562D01*
X121579726Y-47546481D01*
X121562524Y-47578663D01*
X121539373Y-47606873D01*
X121511163Y-47630024D01*
X121478981Y-47647226D01*
X121444062Y-47657819D01*
X121401605Y-47662000D01*
X120260395Y-47662000D01*
X120217938Y-47657819D01*
X120183019Y-47647226D01*
X120150837Y-47630024D01*
X120122627Y-47606873D01*
X120099476Y-47578663D01*
X120082274Y-47546481D01*
X120071681Y-47511562D01*
X120067500Y-47469105D01*
X120067500Y-46002895D01*
X120071681Y-45960438D01*
X120082274Y-45925519D01*
X120099476Y-45893337D01*
X120122627Y-45865127D01*
X120150837Y-45841976D01*
X120183019Y-45824774D01*
X120217938Y-45814181D01*
X120260395Y-45810000D01*
X121401605Y-45810000D01*
X121444062Y-45814181D01*
G37*
G36*
X118469062Y-45814181D02*
G01*
X118503981Y-45824774D01*
X118536163Y-45841976D01*
X118564373Y-45865127D01*
X118587524Y-45893337D01*
X118604726Y-45925519D01*
X118615319Y-45960438D01*
X118619500Y-46002895D01*
X118619500Y-47469105D01*
X118615319Y-47511562D01*
X118604726Y-47546481D01*
X118587524Y-47578663D01*
X118564373Y-47606873D01*
X118536163Y-47630024D01*
X118503981Y-47647226D01*
X118469062Y-47657819D01*
X118426605Y-47662000D01*
X117285395Y-47662000D01*
X117242938Y-47657819D01*
X117208019Y-47647226D01*
X117175837Y-47630024D01*
X117147627Y-47606873D01*
X117124476Y-47578663D01*
X117107274Y-47546481D01*
X117096681Y-47511562D01*
X117092500Y-47469105D01*
X117092500Y-46002895D01*
X117096681Y-45960438D01*
X117107274Y-45925519D01*
X117124476Y-45893337D01*
X117147627Y-45865127D01*
X117175837Y-45841976D01*
X117208019Y-45824774D01*
X117242938Y-45814181D01*
X117285395Y-45810000D01*
X118426605Y-45810000D01*
X118469062Y-45814181D01*
G37*
G36*
X109873512Y-44863927D02*
G01*
X110022812Y-44893624D01*
X110186784Y-44961544D01*
X110334354Y-45060147D01*
X110459853Y-45185646D01*
X110558456Y-45333216D01*
X110626376Y-45497188D01*
X110637405Y-45552638D01*
X110644516Y-45576078D01*
X110656067Y-45597689D01*
X110671613Y-45616631D01*
X110690555Y-45632176D01*
X110712165Y-45643727D01*
X110735614Y-45650840D01*
X110760000Y-45653242D01*
X110784387Y-45650840D01*
X110807835Y-45643727D01*
X110829446Y-45632176D01*
X110848388Y-45616630D01*
X110863933Y-45597688D01*
X110875484Y-45576078D01*
X110882595Y-45552638D01*
X110893624Y-45497188D01*
X110961544Y-45333216D01*
X111060147Y-45185646D01*
X111185646Y-45060147D01*
X111333216Y-44961544D01*
X111497188Y-44893624D01*
X111646488Y-44863927D01*
X111671258Y-44859000D01*
X111848742Y-44859000D01*
X111873512Y-44863927D01*
X112022812Y-44893624D01*
X112186784Y-44961544D01*
X112334354Y-45060147D01*
X112459853Y-45185646D01*
X112558456Y-45333216D01*
X112626376Y-45497188D01*
X112661000Y-45671259D01*
X112661000Y-45848741D01*
X112626376Y-46022812D01*
X112558456Y-46186784D01*
X112459853Y-46334354D01*
X112334354Y-46459853D01*
X112186784Y-46558456D01*
X112022812Y-46626376D01*
X111873512Y-46656073D01*
X111848742Y-46661000D01*
X111671258Y-46661000D01*
X111646488Y-46656073D01*
X111497188Y-46626376D01*
X111333216Y-46558456D01*
X111185646Y-46459853D01*
X111060147Y-46334354D01*
X110961544Y-46186784D01*
X110893624Y-46022812D01*
X110882595Y-45967362D01*
X110875484Y-45943922D01*
X110863933Y-45922311D01*
X110848387Y-45903369D01*
X110829445Y-45887824D01*
X110807835Y-45876273D01*
X110784386Y-45869160D01*
X110760000Y-45866758D01*
X110735613Y-45869160D01*
X110712165Y-45876273D01*
X110690554Y-45887824D01*
X110671612Y-45903370D01*
X110656067Y-45922312D01*
X110644516Y-45943922D01*
X110637405Y-45967362D01*
X110626376Y-46022812D01*
X110558456Y-46186784D01*
X110459853Y-46334354D01*
X110334354Y-46459853D01*
X110186784Y-46558456D01*
X110022812Y-46626376D01*
X109873512Y-46656073D01*
X109848742Y-46661000D01*
X109671258Y-46661000D01*
X109646488Y-46656073D01*
X109497188Y-46626376D01*
X109333216Y-46558456D01*
X109185646Y-46459853D01*
X109060147Y-46334354D01*
X108961544Y-46186784D01*
X108893624Y-46022812D01*
X108859000Y-45848741D01*
X108859000Y-45671259D01*
X108893624Y-45497188D01*
X108961544Y-45333216D01*
X109060147Y-45185646D01*
X109185646Y-45060147D01*
X109333216Y-44961544D01*
X109497188Y-44893624D01*
X109646488Y-44863927D01*
X109671258Y-44859000D01*
X109848742Y-44859000D01*
X109873512Y-44863927D01*
G37*
G36*
X170293512Y-44823927D02*
G01*
X170442812Y-44853624D01*
X170606784Y-44921544D01*
X170754354Y-45020147D01*
X170879853Y-45145646D01*
X170978456Y-45293216D01*
X171046376Y-45457188D01*
X171081000Y-45631259D01*
X171081000Y-45808741D01*
X171046376Y-45982812D01*
X170978456Y-46146784D01*
X170879853Y-46294354D01*
X170754354Y-46419853D01*
X170606784Y-46518456D01*
X170442812Y-46586376D01*
X170293512Y-46616073D01*
X170268742Y-46621000D01*
X170091258Y-46621000D01*
X170066488Y-46616073D01*
X169917188Y-46586376D01*
X169753216Y-46518456D01*
X169605646Y-46419853D01*
X169480147Y-46294354D01*
X169381544Y-46146784D01*
X169313624Y-45982812D01*
X169279000Y-45808741D01*
X169279000Y-45631259D01*
X169313624Y-45457188D01*
X169381544Y-45293216D01*
X169480147Y-45145646D01*
X169605646Y-45020147D01*
X169753216Y-44921544D01*
X169917188Y-44853624D01*
X170066488Y-44823927D01*
X170091258Y-44819000D01*
X170268742Y-44819000D01*
X170293512Y-44823927D01*
G37*
G36*
X167753512Y-44823927D02*
G01*
X167902812Y-44853624D01*
X168066784Y-44921544D01*
X168214354Y-45020147D01*
X168339853Y-45145646D01*
X168438456Y-45293216D01*
X168506376Y-45457188D01*
X168541000Y-45631259D01*
X168541000Y-45808741D01*
X168506376Y-45982812D01*
X168438456Y-46146784D01*
X168339853Y-46294354D01*
X168214354Y-46419853D01*
X168066784Y-46518456D01*
X167902812Y-46586376D01*
X167753512Y-46616073D01*
X167728742Y-46621000D01*
X167551258Y-46621000D01*
X167526488Y-46616073D01*
X167377188Y-46586376D01*
X167213216Y-46518456D01*
X167065646Y-46419853D01*
X166940147Y-46294354D01*
X166841544Y-46146784D01*
X166773624Y-45982812D01*
X166739000Y-45808741D01*
X166739000Y-45631259D01*
X166773624Y-45457188D01*
X166841544Y-45293216D01*
X166940147Y-45145646D01*
X167065646Y-45020147D01*
X167213216Y-44921544D01*
X167377188Y-44853624D01*
X167526488Y-44823927D01*
X167551258Y-44819000D01*
X167728742Y-44819000D01*
X167753512Y-44823927D01*
G37*
G36*
X161567395Y-43789546D02*
G01*
X161740466Y-43861234D01*
X161768331Y-43879853D01*
X161896227Y-43965310D01*
X162028690Y-44097773D01*
X162071284Y-44161520D01*
X162132766Y-44253534D01*
X162204454Y-44426605D01*
X162241000Y-44610333D01*
X162241000Y-44797667D01*
X162204454Y-44981395D01*
X162132766Y-45154466D01*
X162132765Y-45154467D01*
X162028690Y-45310227D01*
X161896227Y-45442690D01*
X161873092Y-45458148D01*
X161740466Y-45546766D01*
X161567395Y-45618454D01*
X161383667Y-45655000D01*
X161196333Y-45655000D01*
X161012605Y-45618454D01*
X160839534Y-45546766D01*
X160706908Y-45458148D01*
X160683773Y-45442690D01*
X160551310Y-45310227D01*
X160447235Y-45154467D01*
X160447234Y-45154466D01*
X160375546Y-44981395D01*
X160339000Y-44797667D01*
X160339000Y-44610333D01*
X160375546Y-44426605D01*
X160447234Y-44253534D01*
X160508716Y-44161520D01*
X160551310Y-44097773D01*
X160683773Y-43965310D01*
X160811669Y-43879853D01*
X160839534Y-43861234D01*
X161012605Y-43789546D01*
X161196333Y-43753000D01*
X161383667Y-43753000D01*
X161567395Y-43789546D01*
G37*
G36*
X159701000Y-45655000D02*
G01*
X157799000Y-45655000D01*
X157799000Y-43753000D01*
X159701000Y-43753000D01*
X159701000Y-45655000D01*
G37*
G36*
X138932228Y-43885703D02*
G01*
X139087100Y-43949853D01*
X139226481Y-44042985D01*
X139345015Y-44161519D01*
X139438147Y-44300900D01*
X139502297Y-44455772D01*
X139535000Y-44620184D01*
X139535000Y-44787816D01*
X139502297Y-44952228D01*
X139438147Y-45107100D01*
X139345015Y-45246481D01*
X139226481Y-45365015D01*
X139087100Y-45458147D01*
X138932228Y-45522297D01*
X138767816Y-45555000D01*
X138600184Y-45555000D01*
X138435772Y-45522297D01*
X138280900Y-45458147D01*
X138141519Y-45365015D01*
X138022985Y-45246481D01*
X137929853Y-45107100D01*
X137865703Y-44952228D01*
X137833000Y-44787816D01*
X137833000Y-44620184D01*
X137865703Y-44455772D01*
X137929853Y-44300900D01*
X138022985Y-44161519D01*
X138141519Y-44042985D01*
X138280900Y-43949853D01*
X138435772Y-43885703D01*
X138600184Y-43853000D01*
X138767816Y-43853000D01*
X138932228Y-43885703D01*
G37*
G36*
X146552228Y-43885703D02*
G01*
X146707100Y-43949853D01*
X146846481Y-44042985D01*
X146965015Y-44161519D01*
X147058147Y-44300900D01*
X147122297Y-44455772D01*
X147155000Y-44620184D01*
X147155000Y-44787816D01*
X147122297Y-44952228D01*
X147058147Y-45107100D01*
X146965015Y-45246481D01*
X146846481Y-45365015D01*
X146707100Y-45458147D01*
X146552228Y-45522297D01*
X146387816Y-45555000D01*
X146220184Y-45555000D01*
X146055772Y-45522297D01*
X145900900Y-45458147D01*
X145761519Y-45365015D01*
X145642985Y-45246481D01*
X145549853Y-45107100D01*
X145485703Y-44952228D01*
X145453000Y-44787816D01*
X145453000Y-44620184D01*
X145485703Y-44455772D01*
X145549853Y-44300900D01*
X145642985Y-44161519D01*
X145761519Y-44042985D01*
X145900900Y-43949853D01*
X146055772Y-43885703D01*
X146220184Y-43853000D01*
X146387816Y-43853000D01*
X146552228Y-43885703D01*
G37*
G36*
X121444062Y-43274181D02*
G01*
X121478981Y-43284774D01*
X121511163Y-43301976D01*
X121539373Y-43325127D01*
X121562524Y-43353337D01*
X121579726Y-43385519D01*
X121590319Y-43420438D01*
X121594500Y-43462895D01*
X121594500Y-44929105D01*
X121590319Y-44971562D01*
X121579726Y-45006481D01*
X121562524Y-45038663D01*
X121539373Y-45066873D01*
X121511163Y-45090024D01*
X121478981Y-45107226D01*
X121444062Y-45117819D01*
X121401605Y-45122000D01*
X120260395Y-45122000D01*
X120217938Y-45117819D01*
X120183019Y-45107226D01*
X120150837Y-45090024D01*
X120122627Y-45066873D01*
X120099476Y-45038663D01*
X120082274Y-45006481D01*
X120071681Y-44971562D01*
X120067500Y-44929105D01*
X120067500Y-43462895D01*
X120071681Y-43420438D01*
X120082274Y-43385519D01*
X120099476Y-43353337D01*
X120122627Y-43325127D01*
X120150837Y-43301976D01*
X120183019Y-43284774D01*
X120217938Y-43274181D01*
X120260395Y-43270000D01*
X121401605Y-43270000D01*
X121444062Y-43274181D01*
G37*
G36*
X118469062Y-43274181D02*
G01*
X118503981Y-43284774D01*
X118536163Y-43301976D01*
X118564373Y-43325127D01*
X118587524Y-43353337D01*
X118604726Y-43385519D01*
X118615319Y-43420438D01*
X118619500Y-43462895D01*
X118619500Y-44929105D01*
X118615319Y-44971562D01*
X118604726Y-45006481D01*
X118587524Y-45038663D01*
X118564373Y-45066873D01*
X118536163Y-45090024D01*
X118503981Y-45107226D01*
X118469062Y-45117819D01*
X118426605Y-45122000D01*
X117285395Y-45122000D01*
X117242938Y-45117819D01*
X117208019Y-45107226D01*
X117175837Y-45090024D01*
X117147627Y-45066873D01*
X117124476Y-45038663D01*
X117107274Y-45006481D01*
X117096681Y-44971562D01*
X117092500Y-44929105D01*
X117092500Y-43462895D01*
X117096681Y-43420438D01*
X117107274Y-43385519D01*
X117124476Y-43353337D01*
X117147627Y-43325127D01*
X117175837Y-43301976D01*
X117208019Y-43284774D01*
X117242938Y-43274181D01*
X117285395Y-43270000D01*
X118426605Y-43270000D01*
X118469062Y-43274181D01*
G37*
G36*
X153021512Y-43299927D02*
G01*
X153170812Y-43329624D01*
X153334784Y-43397544D01*
X153482354Y-43496147D01*
X153607853Y-43621646D01*
X153706456Y-43769216D01*
X153774376Y-43933188D01*
X153809000Y-44107259D01*
X153809000Y-44284741D01*
X153774376Y-44458812D01*
X153706456Y-44622784D01*
X153607853Y-44770354D01*
X153482354Y-44895853D01*
X153334784Y-44994456D01*
X153170812Y-45062376D01*
X153021512Y-45092073D01*
X152996742Y-45097000D01*
X152819258Y-45097000D01*
X152794488Y-45092073D01*
X152645188Y-45062376D01*
X152481216Y-44994456D01*
X152333646Y-44895853D01*
X152208147Y-44770354D01*
X152109544Y-44622784D01*
X152041624Y-44458812D01*
X152007000Y-44284741D01*
X152007000Y-44107259D01*
X152041624Y-43933188D01*
X152109544Y-43769216D01*
X152208147Y-43621646D01*
X152333646Y-43496147D01*
X152481216Y-43397544D01*
X152645188Y-43329624D01*
X152794488Y-43299927D01*
X152819258Y-43295000D01*
X152996742Y-43295000D01*
X153021512Y-43299927D01*
G37*
G36*
X151269000Y-45097000D02*
G01*
X149467000Y-45097000D01*
X149467000Y-43295000D01*
X151269000Y-43295000D01*
X151269000Y-45097000D01*
G37*
G36*
X170293512Y-42283927D02*
G01*
X170442812Y-42313624D01*
X170606784Y-42381544D01*
X170754354Y-42480147D01*
X170879853Y-42605646D01*
X170978456Y-42753216D01*
X171046376Y-42917188D01*
X171081000Y-43091259D01*
X171081000Y-43268741D01*
X171046376Y-43442812D01*
X170978456Y-43606784D01*
X170879853Y-43754354D01*
X170754354Y-43879853D01*
X170606784Y-43978456D01*
X170442812Y-44046376D01*
X170293512Y-44076073D01*
X170268742Y-44081000D01*
X170091258Y-44081000D01*
X170066488Y-44076073D01*
X169917188Y-44046376D01*
X169753216Y-43978456D01*
X169605646Y-43879853D01*
X169480147Y-43754354D01*
X169381544Y-43606784D01*
X169313624Y-43442812D01*
X169279000Y-43268741D01*
X169279000Y-43091259D01*
X169313624Y-42917188D01*
X169381544Y-42753216D01*
X169480147Y-42605646D01*
X169605646Y-42480147D01*
X169753216Y-42381544D01*
X169917188Y-42313624D01*
X170066488Y-42283927D01*
X170091258Y-42279000D01*
X170268742Y-42279000D01*
X170293512Y-42283927D01*
G37*
G36*
X167753512Y-42283927D02*
G01*
X167902812Y-42313624D01*
X168066784Y-42381544D01*
X168214354Y-42480147D01*
X168339853Y-42605646D01*
X168438456Y-42753216D01*
X168506376Y-42917188D01*
X168541000Y-43091259D01*
X168541000Y-43268741D01*
X168506376Y-43442812D01*
X168438456Y-43606784D01*
X168339853Y-43754354D01*
X168214354Y-43879853D01*
X168066784Y-43978456D01*
X167902812Y-44046376D01*
X167753512Y-44076073D01*
X167728742Y-44081000D01*
X167551258Y-44081000D01*
X167526488Y-44076073D01*
X167377188Y-44046376D01*
X167213216Y-43978456D01*
X167065646Y-43879853D01*
X166940147Y-43754354D01*
X166841544Y-43606784D01*
X166773624Y-43442812D01*
X166739000Y-43268741D01*
X166739000Y-43091259D01*
X166773624Y-42917188D01*
X166841544Y-42753216D01*
X166940147Y-42605646D01*
X167065646Y-42480147D01*
X167213216Y-42381544D01*
X167377188Y-42313624D01*
X167526488Y-42283927D01*
X167551258Y-42279000D01*
X167728742Y-42279000D01*
X167753512Y-42283927D01*
G37*
G36*
X138932228Y-41345703D02*
G01*
X139087100Y-41409853D01*
X139226481Y-41502985D01*
X139345015Y-41621519D01*
X139438147Y-41760900D01*
X139502297Y-41915772D01*
X139535000Y-42080184D01*
X139535000Y-42247816D01*
X139502297Y-42412228D01*
X139438147Y-42567100D01*
X139345015Y-42706481D01*
X139226481Y-42825015D01*
X139087100Y-42918147D01*
X138932228Y-42982297D01*
X138767816Y-43015000D01*
X138600184Y-43015000D01*
X138435772Y-42982297D01*
X138280900Y-42918147D01*
X138141519Y-42825015D01*
X138022985Y-42706481D01*
X137929853Y-42567100D01*
X137865703Y-42412228D01*
X137833000Y-42247816D01*
X137833000Y-42080184D01*
X137865703Y-41915772D01*
X137929853Y-41760900D01*
X138022985Y-41621519D01*
X138141519Y-41502985D01*
X138280900Y-41409853D01*
X138435772Y-41345703D01*
X138600184Y-41313000D01*
X138767816Y-41313000D01*
X138932228Y-41345703D01*
G37*
G36*
X146552228Y-41345703D02*
G01*
X146707100Y-41409853D01*
X146846481Y-41502985D01*
X146965015Y-41621519D01*
X147058147Y-41760900D01*
X147122297Y-41915772D01*
X147155000Y-42080184D01*
X147155000Y-42247816D01*
X147122297Y-42412228D01*
X147058147Y-42567100D01*
X146965015Y-42706481D01*
X146846481Y-42825015D01*
X146707100Y-42918147D01*
X146552228Y-42982297D01*
X146387816Y-43015000D01*
X146220184Y-43015000D01*
X146055772Y-42982297D01*
X145900900Y-42918147D01*
X145761519Y-42825015D01*
X145642985Y-42706481D01*
X145549853Y-42567100D01*
X145485703Y-42412228D01*
X145453000Y-42247816D01*
X145453000Y-42080184D01*
X145485703Y-41915772D01*
X145549853Y-41760900D01*
X145642985Y-41621519D01*
X145761519Y-41502985D01*
X145900900Y-41409853D01*
X146055772Y-41345703D01*
X146220184Y-41313000D01*
X146387816Y-41313000D01*
X146552228Y-41345703D01*
G37*
G36*
X107575331Y-39258211D02*
G01*
X107903092Y-39393974D01*
X108198070Y-39591072D01*
X108448928Y-39841930D01*
X108646026Y-40136908D01*
X108781789Y-40464669D01*
X108851000Y-40812616D01*
X108851000Y-41167384D01*
X108781789Y-41515331D01*
X108646026Y-41843092D01*
X108448928Y-42138070D01*
X108198070Y-42388928D01*
X107903092Y-42586026D01*
X107575331Y-42721789D01*
X107227384Y-42791000D01*
X106872616Y-42791000D01*
X106524669Y-42721789D01*
X106196908Y-42586026D01*
X105901930Y-42388928D01*
X105651072Y-42138070D01*
X105453974Y-41843092D01*
X105318211Y-41515331D01*
X105249000Y-41167384D01*
X105249000Y-40812616D01*
X105318211Y-40464669D01*
X105453974Y-40136908D01*
X105651072Y-39841930D01*
X105901930Y-39591072D01*
X106196908Y-39393974D01*
X106524669Y-39258211D01*
X106872616Y-39189000D01*
X107227384Y-39189000D01*
X107575331Y-39258211D01*
G37*
G36*
X121444062Y-40734181D02*
G01*
X121478981Y-40744774D01*
X121511163Y-40761976D01*
X121539373Y-40785127D01*
X121562524Y-40813337D01*
X121579726Y-40845519D01*
X121590319Y-40880438D01*
X121594500Y-40922895D01*
X121594500Y-42389105D01*
X121590319Y-42431562D01*
X121579726Y-42466481D01*
X121562524Y-42498663D01*
X121539373Y-42526873D01*
X121511163Y-42550024D01*
X121478981Y-42567226D01*
X121444062Y-42577819D01*
X121401605Y-42582000D01*
X120260395Y-42582000D01*
X120217938Y-42577819D01*
X120183019Y-42567226D01*
X120150837Y-42550024D01*
X120122627Y-42526873D01*
X120099476Y-42498663D01*
X120082274Y-42466481D01*
X120071681Y-42431562D01*
X120067500Y-42389105D01*
X120067500Y-40922895D01*
X120071681Y-40880438D01*
X120082274Y-40845519D01*
X120099476Y-40813337D01*
X120122627Y-40785127D01*
X120150837Y-40761976D01*
X120183019Y-40744774D01*
X120217938Y-40734181D01*
X120260395Y-40730000D01*
X121401605Y-40730000D01*
X121444062Y-40734181D01*
G37*
G36*
X118469062Y-40734181D02*
G01*
X118503981Y-40744774D01*
X118536163Y-40761976D01*
X118564373Y-40785127D01*
X118587524Y-40813337D01*
X118604726Y-40845519D01*
X118615319Y-40880438D01*
X118619500Y-40922895D01*
X118619500Y-42389105D01*
X118615319Y-42431562D01*
X118604726Y-42466481D01*
X118587524Y-42498663D01*
X118564373Y-42526873D01*
X118536163Y-42550024D01*
X118503981Y-42567226D01*
X118469062Y-42577819D01*
X118426605Y-42582000D01*
X117285395Y-42582000D01*
X117242938Y-42577819D01*
X117208019Y-42567226D01*
X117175837Y-42550024D01*
X117147627Y-42526873D01*
X117124476Y-42498663D01*
X117107274Y-42466481D01*
X117096681Y-42431562D01*
X117092500Y-42389105D01*
X117092500Y-40922895D01*
X117096681Y-40880438D01*
X117107274Y-40845519D01*
X117124476Y-40813337D01*
X117147627Y-40785127D01*
X117175837Y-40761976D01*
X117208019Y-40744774D01*
X117242938Y-40734181D01*
X117285395Y-40730000D01*
X118426605Y-40730000D01*
X118469062Y-40734181D01*
G37*
G36*
X150981062Y-39972181D02*
G01*
X151015981Y-39982774D01*
X151048163Y-39999976D01*
X151076373Y-40023127D01*
X151099524Y-40051337D01*
X151116726Y-40083519D01*
X151127319Y-40118438D01*
X151131500Y-40160895D01*
X151131500Y-41627105D01*
X151127319Y-41669562D01*
X151116726Y-41704481D01*
X151099524Y-41736663D01*
X151076373Y-41764873D01*
X151048163Y-41788024D01*
X151015981Y-41805226D01*
X150981062Y-41815819D01*
X150938605Y-41820000D01*
X149797395Y-41820000D01*
X149754938Y-41815819D01*
X149720019Y-41805226D01*
X149687837Y-41788024D01*
X149659627Y-41764873D01*
X149636476Y-41736663D01*
X149619274Y-41704481D01*
X149608681Y-41669562D01*
X149604500Y-41627105D01*
X149604500Y-40160895D01*
X149608681Y-40118438D01*
X149619274Y-40083519D01*
X149636476Y-40051337D01*
X149659627Y-40023127D01*
X149687837Y-39999976D01*
X149720019Y-39982774D01*
X149754938Y-39972181D01*
X149797395Y-39968000D01*
X150938605Y-39968000D01*
X150981062Y-39972181D01*
G37*
G36*
X153956062Y-39972181D02*
G01*
X153990981Y-39982774D01*
X154023163Y-39999976D01*
X154051373Y-40023127D01*
X154074524Y-40051337D01*
X154091726Y-40083519D01*
X154102319Y-40118438D01*
X154106500Y-40160895D01*
X154106500Y-41627105D01*
X154102319Y-41669562D01*
X154091726Y-41704481D01*
X154074524Y-41736663D01*
X154051373Y-41764873D01*
X154023163Y-41788024D01*
X153990981Y-41805226D01*
X153956062Y-41815819D01*
X153913605Y-41820000D01*
X152772395Y-41820000D01*
X152729938Y-41815819D01*
X152695019Y-41805226D01*
X152662837Y-41788024D01*
X152634627Y-41764873D01*
X152611476Y-41736663D01*
X152594274Y-41704481D01*
X152583681Y-41669562D01*
X152579500Y-41627105D01*
X152579500Y-40160895D01*
X152583681Y-40118438D01*
X152594274Y-40083519D01*
X152611476Y-40051337D01*
X152634627Y-40023127D01*
X152662837Y-39999976D01*
X152695019Y-39982774D01*
X152729938Y-39972181D01*
X152772395Y-39968000D01*
X153913605Y-39968000D01*
X153956062Y-39972181D01*
G37*
G36*
X170293512Y-39743927D02*
G01*
X170442812Y-39773624D01*
X170606784Y-39841544D01*
X170754354Y-39940147D01*
X170879853Y-40065646D01*
X170978456Y-40213216D01*
X171046376Y-40377188D01*
X171081000Y-40551259D01*
X171081000Y-40728741D01*
X171046376Y-40902812D01*
X170978456Y-41066784D01*
X170879853Y-41214354D01*
X170754354Y-41339853D01*
X170606784Y-41438456D01*
X170442812Y-41506376D01*
X170293512Y-41536073D01*
X170268742Y-41541000D01*
X170091258Y-41541000D01*
X170066488Y-41536073D01*
X169917188Y-41506376D01*
X169753216Y-41438456D01*
X169605646Y-41339853D01*
X169480147Y-41214354D01*
X169381544Y-41066784D01*
X169313624Y-40902812D01*
X169279000Y-40728741D01*
X169279000Y-40551259D01*
X169313624Y-40377188D01*
X169381544Y-40213216D01*
X169480147Y-40065646D01*
X169605646Y-39940147D01*
X169753216Y-39841544D01*
X169917188Y-39773624D01*
X170066488Y-39743927D01*
X170091258Y-39739000D01*
X170268742Y-39739000D01*
X170293512Y-39743927D01*
G37*
G36*
X167753512Y-39743927D02*
G01*
X167902812Y-39773624D01*
X168066784Y-39841544D01*
X168214354Y-39940147D01*
X168339853Y-40065646D01*
X168438456Y-40213216D01*
X168506376Y-40377188D01*
X168541000Y-40551259D01*
X168541000Y-40728741D01*
X168506376Y-40902812D01*
X168438456Y-41066784D01*
X168339853Y-41214354D01*
X168214354Y-41339853D01*
X168066784Y-41438456D01*
X167902812Y-41506376D01*
X167753512Y-41536073D01*
X167728742Y-41541000D01*
X167551258Y-41541000D01*
X167526488Y-41536073D01*
X167377188Y-41506376D01*
X167213216Y-41438456D01*
X167065646Y-41339853D01*
X166940147Y-41214354D01*
X166841544Y-41066784D01*
X166773624Y-40902812D01*
X166739000Y-40728741D01*
X166739000Y-40551259D01*
X166773624Y-40377188D01*
X166841544Y-40213216D01*
X166940147Y-40065646D01*
X167065646Y-39940147D01*
X167213216Y-39841544D01*
X167377188Y-39773624D01*
X167526488Y-39743927D01*
X167551258Y-39739000D01*
X167728742Y-39739000D01*
X167753512Y-39743927D01*
G37*
G36*
X138932228Y-38805703D02*
G01*
X139087100Y-38869853D01*
X139226481Y-38962985D01*
X139345015Y-39081519D01*
X139438147Y-39220900D01*
X139502297Y-39375772D01*
X139535000Y-39540184D01*
X139535000Y-39707816D01*
X139502297Y-39872228D01*
X139438147Y-40027100D01*
X139345015Y-40166481D01*
X139226481Y-40285015D01*
X139087100Y-40378147D01*
X138932228Y-40442297D01*
X138767816Y-40475000D01*
X138600184Y-40475000D01*
X138435772Y-40442297D01*
X138280900Y-40378147D01*
X138141519Y-40285015D01*
X138022985Y-40166481D01*
X137929853Y-40027100D01*
X137865703Y-39872228D01*
X137833000Y-39707816D01*
X137833000Y-39540184D01*
X137865703Y-39375772D01*
X137929853Y-39220900D01*
X138022985Y-39081519D01*
X138141519Y-38962985D01*
X138280900Y-38869853D01*
X138435772Y-38805703D01*
X138600184Y-38773000D01*
X138767816Y-38773000D01*
X138932228Y-38805703D01*
G37*
G36*
X146552228Y-38805703D02*
G01*
X146707100Y-38869853D01*
X146846481Y-38962985D01*
X146965015Y-39081519D01*
X147058147Y-39220900D01*
X147122297Y-39375772D01*
X147155000Y-39540184D01*
X147155000Y-39707816D01*
X147122297Y-39872228D01*
X147058147Y-40027100D01*
X146965015Y-40166481D01*
X146846481Y-40285015D01*
X146707100Y-40378147D01*
X146552228Y-40442297D01*
X146387816Y-40475000D01*
X146220184Y-40475000D01*
X146055772Y-40442297D01*
X145900900Y-40378147D01*
X145761519Y-40285015D01*
X145642985Y-40166481D01*
X145549853Y-40027100D01*
X145485703Y-39872228D01*
X145453000Y-39707816D01*
X145453000Y-39540184D01*
X145485703Y-39375772D01*
X145549853Y-39220900D01*
X145642985Y-39081519D01*
X145761519Y-38962985D01*
X145900900Y-38869853D01*
X146055772Y-38805703D01*
X146220184Y-38773000D01*
X146387816Y-38773000D01*
X146552228Y-38805703D01*
G37*
G36*
X170293512Y-37203927D02*
G01*
X170442812Y-37233624D01*
X170606784Y-37301544D01*
X170754354Y-37400147D01*
X170879853Y-37525646D01*
X170978456Y-37673216D01*
X171046376Y-37837188D01*
X171081000Y-38011259D01*
X171081000Y-38188741D01*
X171046376Y-38362812D01*
X170978456Y-38526784D01*
X170879853Y-38674354D01*
X170754354Y-38799853D01*
X170606784Y-38898456D01*
X170442812Y-38966376D01*
X170293512Y-38996073D01*
X170268742Y-39001000D01*
X170091258Y-39001000D01*
X170066488Y-38996073D01*
X169917188Y-38966376D01*
X169753216Y-38898456D01*
X169605646Y-38799853D01*
X169480147Y-38674354D01*
X169381544Y-38526784D01*
X169313624Y-38362812D01*
X169279000Y-38188741D01*
X169279000Y-38011259D01*
X169313624Y-37837188D01*
X169381544Y-37673216D01*
X169480147Y-37525646D01*
X169605646Y-37400147D01*
X169753216Y-37301544D01*
X169917188Y-37233624D01*
X170066488Y-37203927D01*
X170091258Y-37199000D01*
X170268742Y-37199000D01*
X170293512Y-37203927D01*
G37*
G36*
X168541000Y-39001000D02*
G01*
X166739000Y-39001000D01*
X166739000Y-37199000D01*
X168541000Y-37199000D01*
X168541000Y-39001000D01*
G37*
G36*
X161403512Y-37203927D02*
G01*
X161552812Y-37233624D01*
X161716784Y-37301544D01*
X161864354Y-37400147D01*
X161989853Y-37525646D01*
X162088456Y-37673216D01*
X162156376Y-37837188D01*
X162191000Y-38011259D01*
X162191000Y-38188741D01*
X162156376Y-38362812D01*
X162088456Y-38526784D01*
X161989853Y-38674354D01*
X161864354Y-38799853D01*
X161716784Y-38898456D01*
X161552812Y-38966376D01*
X161403512Y-38996073D01*
X161378742Y-39001000D01*
X161201258Y-39001000D01*
X161176488Y-38996073D01*
X161027188Y-38966376D01*
X160863216Y-38898456D01*
X160715646Y-38799853D01*
X160590147Y-38674354D01*
X160491544Y-38526784D01*
X160423624Y-38362812D01*
X160389000Y-38188741D01*
X160389000Y-38011259D01*
X160423624Y-37837188D01*
X160491544Y-37673216D01*
X160590147Y-37525646D01*
X160715646Y-37400147D01*
X160863216Y-37301544D01*
X161027188Y-37233624D01*
X161176488Y-37203927D01*
X161201258Y-37199000D01*
X161378742Y-37199000D01*
X161403512Y-37203927D01*
G37*
G36*
X159651000Y-39001000D02*
G01*
X157849000Y-39001000D01*
X157849000Y-37199000D01*
X159651000Y-37199000D01*
X159651000Y-39001000D01*
G37*
G36*
X131439256Y-35475298D02*
G01*
X131545579Y-35496447D01*
X131846042Y-35620903D01*
X132116451Y-35801585D01*
X132346415Y-36031549D01*
X132527097Y-36301958D01*
X132626327Y-36541519D01*
X132651553Y-36602422D01*
X132715000Y-36921389D01*
X132715000Y-37246611D01*
X132684459Y-37400148D01*
X132651553Y-37565579D01*
X132527097Y-37866042D01*
X132346415Y-38136451D01*
X132116451Y-38366415D01*
X131846042Y-38547097D01*
X131545579Y-38671553D01*
X131531502Y-38674353D01*
X131226611Y-38735000D01*
X130901389Y-38735000D01*
X130596498Y-38674353D01*
X130582421Y-38671553D01*
X130281958Y-38547097D01*
X130011549Y-38366415D01*
X129781585Y-38136451D01*
X129600903Y-37866042D01*
X129476447Y-37565579D01*
X129443541Y-37400148D01*
X129413000Y-37246611D01*
X129413000Y-36921389D01*
X129476447Y-36602422D01*
X129501674Y-36541519D01*
X129600903Y-36301958D01*
X129781585Y-36031549D01*
X130011549Y-35801585D01*
X130281958Y-35620903D01*
X130582421Y-35496447D01*
X130688744Y-35475298D01*
X130901389Y-35433000D01*
X131226611Y-35433000D01*
X131439256Y-35475298D01*
G37*
G36*
X146552228Y-36265703D02*
G01*
X146707100Y-36329853D01*
X146846481Y-36422985D01*
X146965015Y-36541519D01*
X147058147Y-36680900D01*
X147122297Y-36835772D01*
X147155000Y-37000184D01*
X147155000Y-37167816D01*
X147122297Y-37332228D01*
X147058147Y-37487100D01*
X146965015Y-37626481D01*
X146846481Y-37745015D01*
X146707100Y-37838147D01*
X146552228Y-37902297D01*
X146387816Y-37935000D01*
X146220184Y-37935000D01*
X146055772Y-37902297D01*
X145900900Y-37838147D01*
X145761519Y-37745015D01*
X145642985Y-37626481D01*
X145549853Y-37487100D01*
X145485703Y-37332228D01*
X145453000Y-37167816D01*
X145453000Y-37000184D01*
X145485703Y-36835772D01*
X145549853Y-36680900D01*
X145642985Y-36541519D01*
X145761519Y-36422985D01*
X145900900Y-36329853D01*
X146055772Y-36265703D01*
X146220184Y-36233000D01*
X146387816Y-36233000D01*
X146552228Y-36265703D01*
G37*
G36*
X139535000Y-37935000D02*
G01*
X137833000Y-37935000D01*
X137833000Y-36233000D01*
X139535000Y-36233000D01*
X139535000Y-37935000D01*
G37*
M02*
