G04 #@! TF.GenerationSoftware,KiCad,Pcbnew,(5.1.5-0-10_14)*
G04 #@! TF.CreationDate,2020-05-14T12:08:37+02:00*
G04 #@! TF.ProjectId,usbasp,75736261-7370-42e6-9b69-6361645f7063,rev?*
G04 #@! TF.SameCoordinates,Original*
G04 #@! TF.FileFunction,Soldermask,Bot*
G04 #@! TF.FilePolarity,Negative*
%FSLAX46Y46*%
G04 Gerber Fmt 4.6, Leading zero omitted, Abs format (unit mm)*
G04 Created by KiCad (PCBNEW (5.1.5-0-10_14)) date 2020-05-14 12:08:37*
%MOMM*%
%LPD*%
G04 APERTURE LIST*
%ADD10C,0.100000*%
G04 APERTURE END LIST*
D10*
G36*
X170814239Y-66407467D02*
G01*
X171128282Y-66469934D01*
X171719926Y-66715001D01*
X172252392Y-67070784D01*
X172705216Y-67523608D01*
X173060999Y-68056074D01*
X173306066Y-68647718D01*
X173368533Y-68961761D01*
X173416519Y-69203000D01*
X173431000Y-69275804D01*
X173431000Y-69916196D01*
X173306066Y-70544282D01*
X173060999Y-71135926D01*
X172705216Y-71668392D01*
X172252392Y-72121216D01*
X171719926Y-72476999D01*
X171128282Y-72722066D01*
X170814239Y-72784533D01*
X170500197Y-72847000D01*
X169859803Y-72847000D01*
X169545761Y-72784533D01*
X169231718Y-72722066D01*
X168640074Y-72476999D01*
X168107608Y-72121216D01*
X167654784Y-71668392D01*
X167299001Y-71135926D01*
X167053934Y-70544282D01*
X166929000Y-69916196D01*
X166929000Y-69275804D01*
X166943482Y-69203000D01*
X166991467Y-68961761D01*
X167053934Y-68647718D01*
X167299001Y-68056074D01*
X167654784Y-67523608D01*
X168107608Y-67070784D01*
X168640074Y-66715001D01*
X169231718Y-66469934D01*
X169545761Y-66407467D01*
X169859803Y-66345000D01*
X170500197Y-66345000D01*
X170814239Y-66407467D01*
G37*
G36*
X106039256Y-67987298D02*
G01*
X106145579Y-68008447D01*
X106446042Y-68132903D01*
X106716451Y-68313585D01*
X106946415Y-68543549D01*
X107016019Y-68647719D01*
X107127098Y-68813960D01*
X107251553Y-69114422D01*
X107315000Y-69433389D01*
X107315000Y-69758611D01*
X107295673Y-69855772D01*
X107251553Y-70077579D01*
X107127097Y-70378042D01*
X106946415Y-70648451D01*
X106716451Y-70878415D01*
X106446042Y-71059097D01*
X106145579Y-71183553D01*
X106039256Y-71204702D01*
X105826611Y-71247000D01*
X105501389Y-71247000D01*
X105288744Y-71204702D01*
X105182421Y-71183553D01*
X104881958Y-71059097D01*
X104611549Y-70878415D01*
X104381585Y-70648451D01*
X104200903Y-70378042D01*
X104076447Y-70077579D01*
X104032327Y-69855772D01*
X104013000Y-69758611D01*
X104013000Y-69433389D01*
X104076447Y-69114422D01*
X104200902Y-68813960D01*
X104311981Y-68647719D01*
X104381585Y-68543549D01*
X104611549Y-68313585D01*
X104881958Y-68132903D01*
X105182421Y-68008447D01*
X105288744Y-67987298D01*
X105501389Y-67945000D01*
X105826611Y-67945000D01*
X106039256Y-67987298D01*
G37*
G36*
X121551000Y-71005000D02*
G01*
X119749000Y-71005000D01*
X119749000Y-69203000D01*
X121551000Y-69203000D01*
X121551000Y-71005000D01*
G37*
G36*
X118223512Y-69207927D02*
G01*
X118372812Y-69237624D01*
X118536784Y-69305544D01*
X118684354Y-69404147D01*
X118809853Y-69529646D01*
X118908456Y-69677216D01*
X118976376Y-69841188D01*
X119011000Y-70015259D01*
X119011000Y-70192741D01*
X118976376Y-70366812D01*
X118908456Y-70530784D01*
X118809853Y-70678354D01*
X118684354Y-70803853D01*
X118536784Y-70902456D01*
X118372812Y-70970376D01*
X118223512Y-71000073D01*
X118198742Y-71005000D01*
X118021258Y-71005000D01*
X117996488Y-71000073D01*
X117847188Y-70970376D01*
X117683216Y-70902456D01*
X117535646Y-70803853D01*
X117410147Y-70678354D01*
X117311544Y-70530784D01*
X117243624Y-70366812D01*
X117209000Y-70192741D01*
X117209000Y-70015259D01*
X117243624Y-69841188D01*
X117311544Y-69677216D01*
X117410147Y-69529646D01*
X117535646Y-69404147D01*
X117683216Y-69305544D01*
X117847188Y-69237624D01*
X117996488Y-69207927D01*
X118021258Y-69203000D01*
X118198742Y-69203000D01*
X118223512Y-69207927D01*
G37*
G36*
X115683512Y-69207927D02*
G01*
X115832812Y-69237624D01*
X115996784Y-69305544D01*
X116144354Y-69404147D01*
X116269853Y-69529646D01*
X116368456Y-69677216D01*
X116436376Y-69841188D01*
X116471000Y-70015259D01*
X116471000Y-70192741D01*
X116436376Y-70366812D01*
X116368456Y-70530784D01*
X116269853Y-70678354D01*
X116144354Y-70803853D01*
X115996784Y-70902456D01*
X115832812Y-70970376D01*
X115683512Y-71000073D01*
X115658742Y-71005000D01*
X115481258Y-71005000D01*
X115456488Y-71000073D01*
X115307188Y-70970376D01*
X115143216Y-70902456D01*
X114995646Y-70803853D01*
X114870147Y-70678354D01*
X114771544Y-70530784D01*
X114703624Y-70366812D01*
X114669000Y-70192741D01*
X114669000Y-70015259D01*
X114703624Y-69841188D01*
X114771544Y-69677216D01*
X114870147Y-69529646D01*
X114995646Y-69404147D01*
X115143216Y-69305544D01*
X115307188Y-69237624D01*
X115456488Y-69207927D01*
X115481258Y-69203000D01*
X115658742Y-69203000D01*
X115683512Y-69207927D01*
G37*
G36*
X146552228Y-69285703D02*
G01*
X146707100Y-69349853D01*
X146846481Y-69442985D01*
X146965015Y-69561519D01*
X147058147Y-69700900D01*
X147122297Y-69855772D01*
X147155000Y-70020184D01*
X147155000Y-70187816D01*
X147122297Y-70352228D01*
X147058147Y-70507100D01*
X146965015Y-70646481D01*
X146846481Y-70765015D01*
X146707100Y-70858147D01*
X146552228Y-70922297D01*
X146387816Y-70955000D01*
X146220184Y-70955000D01*
X146055772Y-70922297D01*
X145900900Y-70858147D01*
X145761519Y-70765015D01*
X145642985Y-70646481D01*
X145549853Y-70507100D01*
X145485703Y-70352228D01*
X145453000Y-70187816D01*
X145453000Y-70020184D01*
X145485703Y-69855772D01*
X145549853Y-69700900D01*
X145642985Y-69561519D01*
X145761519Y-69442985D01*
X145900900Y-69349853D01*
X146055772Y-69285703D01*
X146220184Y-69253000D01*
X146387816Y-69253000D01*
X146552228Y-69285703D01*
G37*
G36*
X138932228Y-69285703D02*
G01*
X139087100Y-69349853D01*
X139226481Y-69442985D01*
X139345015Y-69561519D01*
X139438147Y-69700900D01*
X139502297Y-69855772D01*
X139535000Y-70020184D01*
X139535000Y-70187816D01*
X139502297Y-70352228D01*
X139438147Y-70507100D01*
X139345015Y-70646481D01*
X139226481Y-70765015D01*
X139087100Y-70858147D01*
X138932228Y-70922297D01*
X138767816Y-70955000D01*
X138600184Y-70955000D01*
X138435772Y-70922297D01*
X138280900Y-70858147D01*
X138141519Y-70765015D01*
X138022985Y-70646481D01*
X137929853Y-70507100D01*
X137865703Y-70352228D01*
X137833000Y-70187816D01*
X137833000Y-70020184D01*
X137865703Y-69855772D01*
X137929853Y-69700900D01*
X138022985Y-69561519D01*
X138141519Y-69442985D01*
X138280900Y-69349853D01*
X138435772Y-69285703D01*
X138600184Y-69253000D01*
X138767816Y-69253000D01*
X138932228Y-69285703D01*
G37*
G36*
X161429000Y-68465000D02*
G01*
X159627000Y-68465000D01*
X159627000Y-66663000D01*
X161429000Y-66663000D01*
X161429000Y-68465000D01*
G37*
G36*
X158101512Y-66667927D02*
G01*
X158250812Y-66697624D01*
X158414784Y-66765544D01*
X158562354Y-66864147D01*
X158687853Y-66989646D01*
X158786456Y-67137216D01*
X158854376Y-67301188D01*
X158889000Y-67475259D01*
X158889000Y-67652741D01*
X158854376Y-67826812D01*
X158786456Y-67990784D01*
X158687853Y-68138354D01*
X158562354Y-68263853D01*
X158414784Y-68362456D01*
X158250812Y-68430376D01*
X158101512Y-68460073D01*
X158076742Y-68465000D01*
X157899258Y-68465000D01*
X157874488Y-68460073D01*
X157725188Y-68430376D01*
X157561216Y-68362456D01*
X157413646Y-68263853D01*
X157288147Y-68138354D01*
X157189544Y-67990784D01*
X157121624Y-67826812D01*
X157087000Y-67652741D01*
X157087000Y-67475259D01*
X157121624Y-67301188D01*
X157189544Y-67137216D01*
X157288147Y-66989646D01*
X157413646Y-66864147D01*
X157561216Y-66765544D01*
X157725188Y-66697624D01*
X157874488Y-66667927D01*
X157899258Y-66663000D01*
X158076742Y-66663000D01*
X158101512Y-66667927D01*
G37*
G36*
X146552228Y-66745703D02*
G01*
X146707100Y-66809853D01*
X146846481Y-66902985D01*
X146965015Y-67021519D01*
X147058147Y-67160900D01*
X147122297Y-67315772D01*
X147155000Y-67480184D01*
X147155000Y-67647816D01*
X147122297Y-67812228D01*
X147058147Y-67967100D01*
X146965015Y-68106481D01*
X146846481Y-68225015D01*
X146707100Y-68318147D01*
X146552228Y-68382297D01*
X146387816Y-68415000D01*
X146220184Y-68415000D01*
X146055772Y-68382297D01*
X145900900Y-68318147D01*
X145761519Y-68225015D01*
X145642985Y-68106481D01*
X145549853Y-67967100D01*
X145485703Y-67812228D01*
X145453000Y-67647816D01*
X145453000Y-67480184D01*
X145485703Y-67315772D01*
X145549853Y-67160900D01*
X145642985Y-67021519D01*
X145761519Y-66902985D01*
X145900900Y-66809853D01*
X146055772Y-66745703D01*
X146220184Y-66713000D01*
X146387816Y-66713000D01*
X146552228Y-66745703D01*
G37*
G36*
X138932228Y-66745703D02*
G01*
X139087100Y-66809853D01*
X139226481Y-66902985D01*
X139345015Y-67021519D01*
X139438147Y-67160900D01*
X139502297Y-67315772D01*
X139535000Y-67480184D01*
X139535000Y-67647816D01*
X139502297Y-67812228D01*
X139438147Y-67967100D01*
X139345015Y-68106481D01*
X139226481Y-68225015D01*
X139087100Y-68318147D01*
X138932228Y-68382297D01*
X138767816Y-68415000D01*
X138600184Y-68415000D01*
X138435772Y-68382297D01*
X138280900Y-68318147D01*
X138141519Y-68225015D01*
X138022985Y-68106481D01*
X137929853Y-67967100D01*
X137865703Y-67812228D01*
X137833000Y-67647816D01*
X137833000Y-67480184D01*
X137865703Y-67315772D01*
X137929853Y-67160900D01*
X138022985Y-67021519D01*
X138141519Y-66902985D01*
X138280900Y-66809853D01*
X138435772Y-66745703D01*
X138600184Y-66713000D01*
X138767816Y-66713000D01*
X138932228Y-66745703D01*
G37*
G36*
X146552228Y-64205703D02*
G01*
X146707100Y-64269853D01*
X146846481Y-64362985D01*
X146965015Y-64481519D01*
X147058147Y-64620900D01*
X147122297Y-64775772D01*
X147155000Y-64940184D01*
X147155000Y-65107816D01*
X147122297Y-65272228D01*
X147058147Y-65427100D01*
X146965015Y-65566481D01*
X146846481Y-65685015D01*
X146707100Y-65778147D01*
X146552228Y-65842297D01*
X146387816Y-65875000D01*
X146220184Y-65875000D01*
X146055772Y-65842297D01*
X145900900Y-65778147D01*
X145761519Y-65685015D01*
X145642985Y-65566481D01*
X145549853Y-65427100D01*
X145485703Y-65272228D01*
X145453000Y-65107816D01*
X145453000Y-64940184D01*
X145485703Y-64775772D01*
X145549853Y-64620900D01*
X145642985Y-64481519D01*
X145761519Y-64362985D01*
X145900900Y-64269853D01*
X146055772Y-64205703D01*
X146220184Y-64173000D01*
X146387816Y-64173000D01*
X146552228Y-64205703D01*
G37*
G36*
X138932228Y-64205703D02*
G01*
X139087100Y-64269853D01*
X139226481Y-64362985D01*
X139345015Y-64481519D01*
X139438147Y-64620900D01*
X139502297Y-64775772D01*
X139535000Y-64940184D01*
X139535000Y-65107816D01*
X139502297Y-65272228D01*
X139438147Y-65427100D01*
X139345015Y-65566481D01*
X139226481Y-65685015D01*
X139087100Y-65778147D01*
X138932228Y-65842297D01*
X138767816Y-65875000D01*
X138600184Y-65875000D01*
X138435772Y-65842297D01*
X138280900Y-65778147D01*
X138141519Y-65685015D01*
X138022985Y-65566481D01*
X137929853Y-65427100D01*
X137865703Y-65272228D01*
X137833000Y-65107816D01*
X137833000Y-64940184D01*
X137865703Y-64775772D01*
X137929853Y-64620900D01*
X138022985Y-64481519D01*
X138141519Y-64362985D01*
X138280900Y-64269853D01*
X138435772Y-64205703D01*
X138600184Y-64173000D01*
X138767816Y-64173000D01*
X138932228Y-64205703D01*
G37*
G36*
X159897552Y-64590331D02*
G01*
X159971351Y-64620900D01*
X159979629Y-64624329D01*
X160016813Y-64649175D01*
X160053495Y-64673685D01*
X160116315Y-64736505D01*
X160165672Y-64810373D01*
X160199669Y-64892448D01*
X160217000Y-64979579D01*
X160217000Y-65068421D01*
X160199669Y-65155552D01*
X160165672Y-65237627D01*
X160165671Y-65237629D01*
X160116314Y-65311496D01*
X160053496Y-65374314D01*
X159979629Y-65423671D01*
X159979628Y-65423672D01*
X159979627Y-65423672D01*
X159897552Y-65457669D01*
X159810421Y-65475000D01*
X159721579Y-65475000D01*
X159634448Y-65457669D01*
X159552373Y-65423672D01*
X159552372Y-65423672D01*
X159552371Y-65423671D01*
X159478504Y-65374314D01*
X159415686Y-65311496D01*
X159366329Y-65237629D01*
X159366328Y-65237627D01*
X159332331Y-65155552D01*
X159315000Y-65068421D01*
X159315000Y-64979579D01*
X159332331Y-64892448D01*
X159366328Y-64810373D01*
X159415685Y-64736505D01*
X159478505Y-64673685D01*
X159515187Y-64649175D01*
X159552371Y-64624329D01*
X159560649Y-64620900D01*
X159634448Y-64590331D01*
X159721579Y-64573000D01*
X159810421Y-64573000D01*
X159897552Y-64590331D01*
G37*
G36*
X138932228Y-61665703D02*
G01*
X139087100Y-61729853D01*
X139226481Y-61822985D01*
X139345015Y-61941519D01*
X139438147Y-62080900D01*
X139502297Y-62235772D01*
X139535000Y-62400184D01*
X139535000Y-62567816D01*
X139502297Y-62732228D01*
X139438147Y-62887100D01*
X139345015Y-63026481D01*
X139226481Y-63145015D01*
X139087100Y-63238147D01*
X138932228Y-63302297D01*
X138767816Y-63335000D01*
X138600184Y-63335000D01*
X138435772Y-63302297D01*
X138280900Y-63238147D01*
X138141519Y-63145015D01*
X138022985Y-63026481D01*
X137929853Y-62887100D01*
X137865703Y-62732228D01*
X137833000Y-62567816D01*
X137833000Y-62400184D01*
X137865703Y-62235772D01*
X137929853Y-62080900D01*
X138022985Y-61941519D01*
X138141519Y-61822985D01*
X138280900Y-61729853D01*
X138435772Y-61665703D01*
X138600184Y-61633000D01*
X138767816Y-61633000D01*
X138932228Y-61665703D01*
G37*
G36*
X146552228Y-61665703D02*
G01*
X146707100Y-61729853D01*
X146846481Y-61822985D01*
X146965015Y-61941519D01*
X147058147Y-62080900D01*
X147122297Y-62235772D01*
X147155000Y-62400184D01*
X147155000Y-62567816D01*
X147122297Y-62732228D01*
X147058147Y-62887100D01*
X146965015Y-63026481D01*
X146846481Y-63145015D01*
X146707100Y-63238147D01*
X146552228Y-63302297D01*
X146387816Y-63335000D01*
X146220184Y-63335000D01*
X146055772Y-63302297D01*
X145900900Y-63238147D01*
X145761519Y-63145015D01*
X145642985Y-63026481D01*
X145549853Y-62887100D01*
X145485703Y-62732228D01*
X145453000Y-62567816D01*
X145453000Y-62400184D01*
X145485703Y-62235772D01*
X145549853Y-62080900D01*
X145642985Y-61941519D01*
X145761519Y-61822985D01*
X145900900Y-61729853D01*
X146055772Y-61665703D01*
X146220184Y-61633000D01*
X146387816Y-61633000D01*
X146552228Y-61665703D01*
G37*
G36*
X106968228Y-61157703D02*
G01*
X107123100Y-61221853D01*
X107262481Y-61314985D01*
X107381015Y-61433519D01*
X107474147Y-61572900D01*
X107538297Y-61727772D01*
X107571000Y-61892184D01*
X107571000Y-62059816D01*
X107538297Y-62224228D01*
X107474147Y-62379100D01*
X107381015Y-62518481D01*
X107262481Y-62637015D01*
X107123100Y-62730147D01*
X106968228Y-62794297D01*
X106803816Y-62827000D01*
X106636184Y-62827000D01*
X106471772Y-62794297D01*
X106316900Y-62730147D01*
X106177519Y-62637015D01*
X106058985Y-62518481D01*
X105965853Y-62379100D01*
X105901703Y-62224228D01*
X105869000Y-62059816D01*
X105869000Y-61892184D01*
X105901703Y-61727772D01*
X105965853Y-61572900D01*
X106058985Y-61433519D01*
X106177519Y-61314985D01*
X106316900Y-61221853D01*
X106471772Y-61157703D01*
X106636184Y-61125000D01*
X106803816Y-61125000D01*
X106968228Y-61157703D01*
G37*
G36*
X110071000Y-62827000D02*
G01*
X108369000Y-62827000D01*
X108369000Y-61125000D01*
X110071000Y-61125000D01*
X110071000Y-62827000D01*
G37*
G36*
X132313642Y-60189781D02*
G01*
X132459414Y-60250162D01*
X132459416Y-60250163D01*
X132590608Y-60337822D01*
X132702178Y-60449392D01*
X132789837Y-60580584D01*
X132789838Y-60580586D01*
X132850219Y-60726358D01*
X132881000Y-60881107D01*
X132881000Y-61038893D01*
X132850219Y-61193642D01*
X132799957Y-61314985D01*
X132789837Y-61339416D01*
X132702178Y-61470608D01*
X132590608Y-61582178D01*
X132459416Y-61669837D01*
X132459415Y-61669838D01*
X132459414Y-61669838D01*
X132313642Y-61730219D01*
X132158893Y-61761000D01*
X132001107Y-61761000D01*
X131846358Y-61730219D01*
X131700586Y-61669838D01*
X131700585Y-61669838D01*
X131700584Y-61669837D01*
X131569392Y-61582178D01*
X131457822Y-61470608D01*
X131370163Y-61339416D01*
X131360043Y-61314985D01*
X131309781Y-61193642D01*
X131279000Y-61038893D01*
X131279000Y-60881107D01*
X131309781Y-60726358D01*
X131370162Y-60580586D01*
X131370163Y-60580584D01*
X131457822Y-60449392D01*
X131569392Y-60337822D01*
X131700584Y-60250163D01*
X131700586Y-60250162D01*
X131846358Y-60189781D01*
X132001107Y-60159000D01*
X132158893Y-60159000D01*
X132313642Y-60189781D01*
G37*
G36*
X138932228Y-59125703D02*
G01*
X139087100Y-59189853D01*
X139226481Y-59282985D01*
X139345015Y-59401519D01*
X139438147Y-59540900D01*
X139502297Y-59695772D01*
X139535000Y-59860184D01*
X139535000Y-60027816D01*
X139502297Y-60192228D01*
X139438147Y-60347100D01*
X139345015Y-60486481D01*
X139226481Y-60605015D01*
X139087100Y-60698147D01*
X138932228Y-60762297D01*
X138767816Y-60795000D01*
X138600184Y-60795000D01*
X138435772Y-60762297D01*
X138280900Y-60698147D01*
X138141519Y-60605015D01*
X138022985Y-60486481D01*
X137929853Y-60347100D01*
X137865703Y-60192228D01*
X137833000Y-60027816D01*
X137833000Y-59860184D01*
X137865703Y-59695772D01*
X137929853Y-59540900D01*
X138022985Y-59401519D01*
X138141519Y-59282985D01*
X138280900Y-59189853D01*
X138435772Y-59125703D01*
X138600184Y-59093000D01*
X138767816Y-59093000D01*
X138932228Y-59125703D01*
G37*
G36*
X146552228Y-59125703D02*
G01*
X146707100Y-59189853D01*
X146846481Y-59282985D01*
X146965015Y-59401519D01*
X147058147Y-59540900D01*
X147122297Y-59695772D01*
X147155000Y-59860184D01*
X147155000Y-60027816D01*
X147122297Y-60192228D01*
X147058147Y-60347100D01*
X146965015Y-60486481D01*
X146846481Y-60605015D01*
X146707100Y-60698147D01*
X146552228Y-60762297D01*
X146387816Y-60795000D01*
X146220184Y-60795000D01*
X146055772Y-60762297D01*
X145900900Y-60698147D01*
X145761519Y-60605015D01*
X145642985Y-60486481D01*
X145549853Y-60347100D01*
X145485703Y-60192228D01*
X145453000Y-60027816D01*
X145453000Y-59860184D01*
X145485703Y-59695772D01*
X145549853Y-59540900D01*
X145642985Y-59401519D01*
X145761519Y-59282985D01*
X145900900Y-59189853D01*
X146055772Y-59125703D01*
X146220184Y-59093000D01*
X146387816Y-59093000D01*
X146552228Y-59125703D01*
G37*
G36*
X138932228Y-56585703D02*
G01*
X139087100Y-56649853D01*
X139226481Y-56742985D01*
X139345015Y-56861519D01*
X139438147Y-57000900D01*
X139502297Y-57155772D01*
X139535000Y-57320184D01*
X139535000Y-57487816D01*
X139502297Y-57652228D01*
X139438147Y-57807100D01*
X139345015Y-57946481D01*
X139226481Y-58065015D01*
X139087100Y-58158147D01*
X138932228Y-58222297D01*
X138767816Y-58255000D01*
X138600184Y-58255000D01*
X138435772Y-58222297D01*
X138280900Y-58158147D01*
X138141519Y-58065015D01*
X138022985Y-57946481D01*
X137929853Y-57807100D01*
X137865703Y-57652228D01*
X137833000Y-57487816D01*
X137833000Y-57320184D01*
X137865703Y-57155772D01*
X137929853Y-57000900D01*
X138022985Y-56861519D01*
X138141519Y-56742985D01*
X138280900Y-56649853D01*
X138435772Y-56585703D01*
X138600184Y-56553000D01*
X138767816Y-56553000D01*
X138932228Y-56585703D01*
G37*
G36*
X146552228Y-56585703D02*
G01*
X146707100Y-56649853D01*
X146846481Y-56742985D01*
X146965015Y-56861519D01*
X147058147Y-57000900D01*
X147122297Y-57155772D01*
X147155000Y-57320184D01*
X147155000Y-57487816D01*
X147122297Y-57652228D01*
X147058147Y-57807100D01*
X146965015Y-57946481D01*
X146846481Y-58065015D01*
X146707100Y-58158147D01*
X146552228Y-58222297D01*
X146387816Y-58255000D01*
X146220184Y-58255000D01*
X146055772Y-58222297D01*
X145900900Y-58158147D01*
X145761519Y-58065015D01*
X145642985Y-57946481D01*
X145549853Y-57807100D01*
X145485703Y-57652228D01*
X145453000Y-57487816D01*
X145453000Y-57320184D01*
X145485703Y-57155772D01*
X145549853Y-57000900D01*
X145642985Y-56861519D01*
X145761519Y-56742985D01*
X145900900Y-56649853D01*
X146055772Y-56585703D01*
X146220184Y-56553000D01*
X146387816Y-56553000D01*
X146552228Y-56585703D01*
G37*
G36*
X156087552Y-56970331D02*
G01*
X156161351Y-57000900D01*
X156169629Y-57004329D01*
X156206813Y-57029175D01*
X156243495Y-57053685D01*
X156306315Y-57116505D01*
X156355672Y-57190373D01*
X156389669Y-57272448D01*
X156407000Y-57359579D01*
X156407000Y-57448421D01*
X156389669Y-57535552D01*
X156355672Y-57617627D01*
X156355671Y-57617629D01*
X156306314Y-57691496D01*
X156243496Y-57754314D01*
X156169629Y-57803671D01*
X156169628Y-57803672D01*
X156169627Y-57803672D01*
X156087552Y-57837669D01*
X156000421Y-57855000D01*
X155911579Y-57855000D01*
X155824448Y-57837669D01*
X155742373Y-57803672D01*
X155742372Y-57803672D01*
X155742371Y-57803671D01*
X155668504Y-57754314D01*
X155605686Y-57691496D01*
X155556329Y-57617629D01*
X155556328Y-57617627D01*
X155522331Y-57535552D01*
X155505000Y-57448421D01*
X155505000Y-57359579D01*
X155522331Y-57272448D01*
X155556328Y-57190373D01*
X155605685Y-57116505D01*
X155668505Y-57053685D01*
X155705187Y-57029175D01*
X155742371Y-57004329D01*
X155750649Y-57000900D01*
X155824448Y-56970331D01*
X155911579Y-56953000D01*
X156000421Y-56953000D01*
X156087552Y-56970331D01*
G37*
G36*
X132313642Y-55309781D02*
G01*
X132459414Y-55370162D01*
X132459416Y-55370163D01*
X132590608Y-55457822D01*
X132702178Y-55569392D01*
X132777618Y-55682297D01*
X132789838Y-55700586D01*
X132850219Y-55846358D01*
X132881000Y-56001107D01*
X132881000Y-56158893D01*
X132850219Y-56313642D01*
X132789838Y-56459414D01*
X132789837Y-56459416D01*
X132702178Y-56590608D01*
X132590608Y-56702178D01*
X132459416Y-56789837D01*
X132459415Y-56789838D01*
X132459414Y-56789838D01*
X132313642Y-56850219D01*
X132158893Y-56881000D01*
X132001107Y-56881000D01*
X131846358Y-56850219D01*
X131700586Y-56789838D01*
X131700585Y-56789838D01*
X131700584Y-56789837D01*
X131569392Y-56702178D01*
X131457822Y-56590608D01*
X131370163Y-56459416D01*
X131370162Y-56459414D01*
X131309781Y-56313642D01*
X131279000Y-56158893D01*
X131279000Y-56001107D01*
X131309781Y-55846358D01*
X131370162Y-55700586D01*
X131382382Y-55682297D01*
X131457822Y-55569392D01*
X131569392Y-55457822D01*
X131700584Y-55370163D01*
X131700586Y-55370162D01*
X131846358Y-55309781D01*
X132001107Y-55279000D01*
X132158893Y-55279000D01*
X132313642Y-55309781D01*
G37*
G36*
X146552228Y-54045703D02*
G01*
X146707100Y-54109853D01*
X146846481Y-54202985D01*
X146965015Y-54321519D01*
X147058147Y-54460900D01*
X147122297Y-54615772D01*
X147155000Y-54780184D01*
X147155000Y-54947816D01*
X147122297Y-55112228D01*
X147058147Y-55267100D01*
X146965015Y-55406481D01*
X146846481Y-55525015D01*
X146707100Y-55618147D01*
X146552228Y-55682297D01*
X146387816Y-55715000D01*
X146220184Y-55715000D01*
X146055772Y-55682297D01*
X145900900Y-55618147D01*
X145761519Y-55525015D01*
X145642985Y-55406481D01*
X145549853Y-55267100D01*
X145485703Y-55112228D01*
X145453000Y-54947816D01*
X145453000Y-54780184D01*
X145485703Y-54615772D01*
X145549853Y-54460900D01*
X145642985Y-54321519D01*
X145761519Y-54202985D01*
X145900900Y-54109853D01*
X146055772Y-54045703D01*
X146220184Y-54013000D01*
X146387816Y-54013000D01*
X146552228Y-54045703D01*
G37*
G36*
X138932228Y-54045703D02*
G01*
X139087100Y-54109853D01*
X139226481Y-54202985D01*
X139345015Y-54321519D01*
X139438147Y-54460900D01*
X139502297Y-54615772D01*
X139535000Y-54780184D01*
X139535000Y-54947816D01*
X139502297Y-55112228D01*
X139438147Y-55267100D01*
X139345015Y-55406481D01*
X139226481Y-55525015D01*
X139087100Y-55618147D01*
X138932228Y-55682297D01*
X138767816Y-55715000D01*
X138600184Y-55715000D01*
X138435772Y-55682297D01*
X138280900Y-55618147D01*
X138141519Y-55525015D01*
X138022985Y-55406481D01*
X137929853Y-55267100D01*
X137865703Y-55112228D01*
X137833000Y-54947816D01*
X137833000Y-54780184D01*
X137865703Y-54615772D01*
X137929853Y-54460900D01*
X138022985Y-54321519D01*
X138141519Y-54202985D01*
X138280900Y-54109853D01*
X138435772Y-54045703D01*
X138600184Y-54013000D01*
X138767816Y-54013000D01*
X138932228Y-54045703D01*
G37*
G36*
X107575331Y-51298211D02*
G01*
X107903092Y-51433974D01*
X108198070Y-51631072D01*
X108448928Y-51881930D01*
X108646026Y-52176908D01*
X108781789Y-52504669D01*
X108851000Y-52852616D01*
X108851000Y-53207384D01*
X108781789Y-53555331D01*
X108646026Y-53883092D01*
X108448928Y-54178070D01*
X108198070Y-54428928D01*
X107903092Y-54626026D01*
X107575331Y-54761789D01*
X107227384Y-54831000D01*
X106872616Y-54831000D01*
X106524669Y-54761789D01*
X106196908Y-54626026D01*
X105901930Y-54428928D01*
X105651072Y-54178070D01*
X105453974Y-53883092D01*
X105318211Y-53555331D01*
X105249000Y-53207384D01*
X105249000Y-52852616D01*
X105318211Y-52504669D01*
X105453974Y-52176908D01*
X105651072Y-51881930D01*
X105901930Y-51631072D01*
X106196908Y-51433974D01*
X106524669Y-51298211D01*
X106872616Y-51229000D01*
X107227384Y-51229000D01*
X107575331Y-51298211D01*
G37*
G36*
X146552228Y-51505703D02*
G01*
X146707100Y-51569853D01*
X146846481Y-51662985D01*
X146965015Y-51781519D01*
X147058147Y-51920900D01*
X147122297Y-52075772D01*
X147155000Y-52240184D01*
X147155000Y-52407816D01*
X147122297Y-52572228D01*
X147058147Y-52727100D01*
X146965015Y-52866481D01*
X146846481Y-52985015D01*
X146707100Y-53078147D01*
X146552228Y-53142297D01*
X146387816Y-53175000D01*
X146220184Y-53175000D01*
X146055772Y-53142297D01*
X145900900Y-53078147D01*
X145761519Y-52985015D01*
X145642985Y-52866481D01*
X145549853Y-52727100D01*
X145485703Y-52572228D01*
X145453000Y-52407816D01*
X145453000Y-52240184D01*
X145485703Y-52075772D01*
X145549853Y-51920900D01*
X145642985Y-51781519D01*
X145761519Y-51662985D01*
X145900900Y-51569853D01*
X146055772Y-51505703D01*
X146220184Y-51473000D01*
X146387816Y-51473000D01*
X146552228Y-51505703D01*
G37*
G36*
X138932228Y-51505703D02*
G01*
X139087100Y-51569853D01*
X139226481Y-51662985D01*
X139345015Y-51781519D01*
X139438147Y-51920900D01*
X139502297Y-52075772D01*
X139535000Y-52240184D01*
X139535000Y-52407816D01*
X139502297Y-52572228D01*
X139438147Y-52727100D01*
X139345015Y-52866481D01*
X139226481Y-52985015D01*
X139087100Y-53078147D01*
X138932228Y-53142297D01*
X138767816Y-53175000D01*
X138600184Y-53175000D01*
X138435772Y-53142297D01*
X138280900Y-53078147D01*
X138141519Y-52985015D01*
X138022985Y-52866481D01*
X137929853Y-52727100D01*
X137865703Y-52572228D01*
X137833000Y-52407816D01*
X137833000Y-52240184D01*
X137865703Y-52075772D01*
X137929853Y-51920900D01*
X138022985Y-51781519D01*
X138141519Y-51662985D01*
X138280900Y-51569853D01*
X138435772Y-51505703D01*
X138600184Y-51473000D01*
X138767816Y-51473000D01*
X138932228Y-51505703D01*
G37*
G36*
X161567395Y-48869546D02*
G01*
X161740466Y-48941234D01*
X161768331Y-48959853D01*
X161896227Y-49045310D01*
X162028690Y-49177773D01*
X162071284Y-49241520D01*
X162132766Y-49333534D01*
X162204454Y-49506605D01*
X162241000Y-49690333D01*
X162241000Y-49877667D01*
X162204454Y-50061395D01*
X162132766Y-50234466D01*
X162132765Y-50234467D01*
X162028690Y-50390227D01*
X161896227Y-50522690D01*
X161873092Y-50538148D01*
X161740466Y-50626766D01*
X161567395Y-50698454D01*
X161383667Y-50735000D01*
X161196333Y-50735000D01*
X161012605Y-50698454D01*
X160839534Y-50626766D01*
X160706908Y-50538148D01*
X160683773Y-50522690D01*
X160551310Y-50390227D01*
X160447235Y-50234467D01*
X160447234Y-50234466D01*
X160375546Y-50061395D01*
X160339000Y-49877667D01*
X160339000Y-49690333D01*
X160375546Y-49506605D01*
X160447234Y-49333534D01*
X160508716Y-49241520D01*
X160551310Y-49177773D01*
X160683773Y-49045310D01*
X160811669Y-48959853D01*
X160839534Y-48941234D01*
X161012605Y-48869546D01*
X161196333Y-48833000D01*
X161383667Y-48833000D01*
X161567395Y-48869546D01*
G37*
G36*
X159701000Y-50735000D02*
G01*
X157799000Y-50735000D01*
X157799000Y-48833000D01*
X159701000Y-48833000D01*
X159701000Y-50735000D01*
G37*
G36*
X146552228Y-48965703D02*
G01*
X146707100Y-49029853D01*
X146846481Y-49122985D01*
X146965015Y-49241519D01*
X147058147Y-49380900D01*
X147122297Y-49535772D01*
X147155000Y-49700184D01*
X147155000Y-49867816D01*
X147122297Y-50032228D01*
X147058147Y-50187100D01*
X146965015Y-50326481D01*
X146846481Y-50445015D01*
X146707100Y-50538147D01*
X146552228Y-50602297D01*
X146387816Y-50635000D01*
X146220184Y-50635000D01*
X146055772Y-50602297D01*
X145900900Y-50538147D01*
X145761519Y-50445015D01*
X145642985Y-50326481D01*
X145549853Y-50187100D01*
X145485703Y-50032228D01*
X145453000Y-49867816D01*
X145453000Y-49700184D01*
X145485703Y-49535772D01*
X145549853Y-49380900D01*
X145642985Y-49241519D01*
X145761519Y-49122985D01*
X145900900Y-49029853D01*
X146055772Y-48965703D01*
X146220184Y-48933000D01*
X146387816Y-48933000D01*
X146552228Y-48965703D01*
G37*
G36*
X138932228Y-48965703D02*
G01*
X139087100Y-49029853D01*
X139226481Y-49122985D01*
X139345015Y-49241519D01*
X139438147Y-49380900D01*
X139502297Y-49535772D01*
X139535000Y-49700184D01*
X139535000Y-49867816D01*
X139502297Y-50032228D01*
X139438147Y-50187100D01*
X139345015Y-50326481D01*
X139226481Y-50445015D01*
X139087100Y-50538147D01*
X138932228Y-50602297D01*
X138767816Y-50635000D01*
X138600184Y-50635000D01*
X138435772Y-50602297D01*
X138280900Y-50538147D01*
X138141519Y-50445015D01*
X138022985Y-50326481D01*
X137929853Y-50187100D01*
X137865703Y-50032228D01*
X137833000Y-49867816D01*
X137833000Y-49700184D01*
X137865703Y-49535772D01*
X137929853Y-49380900D01*
X138022985Y-49241519D01*
X138141519Y-49122985D01*
X138280900Y-49029853D01*
X138435772Y-48965703D01*
X138600184Y-48933000D01*
X138767816Y-48933000D01*
X138932228Y-48965703D01*
G37*
G36*
X109873512Y-47363927D02*
G01*
X110022812Y-47393624D01*
X110186784Y-47461544D01*
X110334354Y-47560147D01*
X110459853Y-47685646D01*
X110558456Y-47833216D01*
X110618523Y-47978229D01*
X110630068Y-47999829D01*
X110645613Y-48018771D01*
X110664555Y-48034316D01*
X110686166Y-48045867D01*
X110709615Y-48052980D01*
X110734001Y-48055382D01*
X110758387Y-48052980D01*
X110781836Y-48045867D01*
X110803447Y-48034316D01*
X110822389Y-48018771D01*
X110837934Y-47999829D01*
X110849485Y-47978218D01*
X110856598Y-47954769D01*
X110859000Y-47930383D01*
X110859000Y-47359000D01*
X112661000Y-47359000D01*
X112661000Y-49161000D01*
X110859000Y-49161000D01*
X110859000Y-48589617D01*
X110856598Y-48565231D01*
X110849485Y-48541782D01*
X110837934Y-48520171D01*
X110822389Y-48501229D01*
X110803447Y-48485684D01*
X110781836Y-48474133D01*
X110758387Y-48467020D01*
X110734001Y-48464618D01*
X110709615Y-48467020D01*
X110686166Y-48474133D01*
X110664555Y-48485684D01*
X110645613Y-48501229D01*
X110630068Y-48520171D01*
X110618523Y-48541771D01*
X110558456Y-48686784D01*
X110459853Y-48834354D01*
X110334354Y-48959853D01*
X110186784Y-49058456D01*
X110022812Y-49126376D01*
X109873512Y-49156073D01*
X109848742Y-49161000D01*
X109671258Y-49161000D01*
X109646488Y-49156073D01*
X109497188Y-49126376D01*
X109333216Y-49058456D01*
X109185646Y-48959853D01*
X109060147Y-48834354D01*
X108961544Y-48686784D01*
X108893624Y-48522812D01*
X108859000Y-48348741D01*
X108859000Y-48171259D01*
X108893624Y-47997188D01*
X108961544Y-47833216D01*
X109060147Y-47685646D01*
X109185646Y-47560147D01*
X109333216Y-47461544D01*
X109497188Y-47393624D01*
X109646488Y-47363927D01*
X109671258Y-47359000D01*
X109848742Y-47359000D01*
X109873512Y-47363927D01*
G37*
G36*
X167753512Y-47363927D02*
G01*
X167902812Y-47393624D01*
X168066784Y-47461544D01*
X168214354Y-47560147D01*
X168339853Y-47685646D01*
X168438456Y-47833216D01*
X168506376Y-47997188D01*
X168541000Y-48171259D01*
X168541000Y-48348741D01*
X168506376Y-48522812D01*
X168438456Y-48686784D01*
X168339853Y-48834354D01*
X168214354Y-48959853D01*
X168066784Y-49058456D01*
X167902812Y-49126376D01*
X167753512Y-49156073D01*
X167728742Y-49161000D01*
X167551258Y-49161000D01*
X167526488Y-49156073D01*
X167377188Y-49126376D01*
X167213216Y-49058456D01*
X167065646Y-48959853D01*
X166940147Y-48834354D01*
X166841544Y-48686784D01*
X166773624Y-48522812D01*
X166739000Y-48348741D01*
X166739000Y-48171259D01*
X166773624Y-47997188D01*
X166841544Y-47833216D01*
X166940147Y-47685646D01*
X167065646Y-47560147D01*
X167213216Y-47461544D01*
X167377188Y-47393624D01*
X167526488Y-47363927D01*
X167551258Y-47359000D01*
X167728742Y-47359000D01*
X167753512Y-47363927D01*
G37*
G36*
X170293512Y-47363927D02*
G01*
X170442812Y-47393624D01*
X170606784Y-47461544D01*
X170754354Y-47560147D01*
X170879853Y-47685646D01*
X170978456Y-47833216D01*
X171046376Y-47997188D01*
X171081000Y-48171259D01*
X171081000Y-48348741D01*
X171046376Y-48522812D01*
X170978456Y-48686784D01*
X170879853Y-48834354D01*
X170754354Y-48959853D01*
X170606784Y-49058456D01*
X170442812Y-49126376D01*
X170293512Y-49156073D01*
X170268742Y-49161000D01*
X170091258Y-49161000D01*
X170066488Y-49156073D01*
X169917188Y-49126376D01*
X169753216Y-49058456D01*
X169605646Y-48959853D01*
X169480147Y-48834354D01*
X169381544Y-48686784D01*
X169313624Y-48522812D01*
X169279000Y-48348741D01*
X169279000Y-48171259D01*
X169313624Y-47997188D01*
X169381544Y-47833216D01*
X169480147Y-47685646D01*
X169605646Y-47560147D01*
X169753216Y-47461544D01*
X169917188Y-47393624D01*
X170066488Y-47363927D01*
X170091258Y-47359000D01*
X170268742Y-47359000D01*
X170293512Y-47363927D01*
G37*
G36*
X146552228Y-46425703D02*
G01*
X146707100Y-46489853D01*
X146846481Y-46582985D01*
X146965015Y-46701519D01*
X147058147Y-46840900D01*
X147122297Y-46995772D01*
X147155000Y-47160184D01*
X147155000Y-47327816D01*
X147122297Y-47492228D01*
X147058147Y-47647100D01*
X146965015Y-47786481D01*
X146846481Y-47905015D01*
X146707100Y-47998147D01*
X146552228Y-48062297D01*
X146387816Y-48095000D01*
X146220184Y-48095000D01*
X146055772Y-48062297D01*
X145900900Y-47998147D01*
X145761519Y-47905015D01*
X145642985Y-47786481D01*
X145549853Y-47647100D01*
X145485703Y-47492228D01*
X145453000Y-47327816D01*
X145453000Y-47160184D01*
X145485703Y-46995772D01*
X145549853Y-46840900D01*
X145642985Y-46701519D01*
X145761519Y-46582985D01*
X145900900Y-46489853D01*
X146055772Y-46425703D01*
X146220184Y-46393000D01*
X146387816Y-46393000D01*
X146552228Y-46425703D01*
G37*
G36*
X138932228Y-46425703D02*
G01*
X139087100Y-46489853D01*
X139226481Y-46582985D01*
X139345015Y-46701519D01*
X139438147Y-46840900D01*
X139502297Y-46995772D01*
X139535000Y-47160184D01*
X139535000Y-47327816D01*
X139502297Y-47492228D01*
X139438147Y-47647100D01*
X139345015Y-47786481D01*
X139226481Y-47905015D01*
X139087100Y-47998147D01*
X138932228Y-48062297D01*
X138767816Y-48095000D01*
X138600184Y-48095000D01*
X138435772Y-48062297D01*
X138280900Y-47998147D01*
X138141519Y-47905015D01*
X138022985Y-47786481D01*
X137929853Y-47647100D01*
X137865703Y-47492228D01*
X137833000Y-47327816D01*
X137833000Y-47160184D01*
X137865703Y-46995772D01*
X137929853Y-46840900D01*
X138022985Y-46701519D01*
X138141519Y-46582985D01*
X138280900Y-46489853D01*
X138435772Y-46425703D01*
X138600184Y-46393000D01*
X138767816Y-46393000D01*
X138932228Y-46425703D01*
G37*
G36*
X109873512Y-44863927D02*
G01*
X110022812Y-44893624D01*
X110186784Y-44961544D01*
X110334354Y-45060147D01*
X110459853Y-45185646D01*
X110558456Y-45333216D01*
X110626376Y-45497188D01*
X110637405Y-45552638D01*
X110644516Y-45576078D01*
X110656067Y-45597689D01*
X110671613Y-45616631D01*
X110690555Y-45632176D01*
X110712165Y-45643727D01*
X110735614Y-45650840D01*
X110760000Y-45653242D01*
X110784387Y-45650840D01*
X110807835Y-45643727D01*
X110829446Y-45632176D01*
X110848388Y-45616630D01*
X110863933Y-45597688D01*
X110875484Y-45576078D01*
X110882595Y-45552638D01*
X110893624Y-45497188D01*
X110961544Y-45333216D01*
X111060147Y-45185646D01*
X111185646Y-45060147D01*
X111333216Y-44961544D01*
X111497188Y-44893624D01*
X111646488Y-44863927D01*
X111671258Y-44859000D01*
X111848742Y-44859000D01*
X111873512Y-44863927D01*
X112022812Y-44893624D01*
X112186784Y-44961544D01*
X112334354Y-45060147D01*
X112459853Y-45185646D01*
X112558456Y-45333216D01*
X112626376Y-45497188D01*
X112661000Y-45671259D01*
X112661000Y-45848741D01*
X112626376Y-46022812D01*
X112558456Y-46186784D01*
X112459853Y-46334354D01*
X112334354Y-46459853D01*
X112186784Y-46558456D01*
X112022812Y-46626376D01*
X111873512Y-46656073D01*
X111848742Y-46661000D01*
X111671258Y-46661000D01*
X111646488Y-46656073D01*
X111497188Y-46626376D01*
X111333216Y-46558456D01*
X111185646Y-46459853D01*
X111060147Y-46334354D01*
X110961544Y-46186784D01*
X110893624Y-46022812D01*
X110882595Y-45967362D01*
X110875484Y-45943922D01*
X110863933Y-45922311D01*
X110848387Y-45903369D01*
X110829445Y-45887824D01*
X110807835Y-45876273D01*
X110784386Y-45869160D01*
X110760000Y-45866758D01*
X110735613Y-45869160D01*
X110712165Y-45876273D01*
X110690554Y-45887824D01*
X110671612Y-45903370D01*
X110656067Y-45922312D01*
X110644516Y-45943922D01*
X110637405Y-45967362D01*
X110626376Y-46022812D01*
X110558456Y-46186784D01*
X110459853Y-46334354D01*
X110334354Y-46459853D01*
X110186784Y-46558456D01*
X110022812Y-46626376D01*
X109873512Y-46656073D01*
X109848742Y-46661000D01*
X109671258Y-46661000D01*
X109646488Y-46656073D01*
X109497188Y-46626376D01*
X109333216Y-46558456D01*
X109185646Y-46459853D01*
X109060147Y-46334354D01*
X108961544Y-46186784D01*
X108893624Y-46022812D01*
X108859000Y-45848741D01*
X108859000Y-45671259D01*
X108893624Y-45497188D01*
X108961544Y-45333216D01*
X109060147Y-45185646D01*
X109185646Y-45060147D01*
X109333216Y-44961544D01*
X109497188Y-44893624D01*
X109646488Y-44863927D01*
X109671258Y-44859000D01*
X109848742Y-44859000D01*
X109873512Y-44863927D01*
G37*
G36*
X170293512Y-44823927D02*
G01*
X170442812Y-44853624D01*
X170606784Y-44921544D01*
X170754354Y-45020147D01*
X170879853Y-45145646D01*
X170978456Y-45293216D01*
X171046376Y-45457188D01*
X171081000Y-45631259D01*
X171081000Y-45808741D01*
X171046376Y-45982812D01*
X170978456Y-46146784D01*
X170879853Y-46294354D01*
X170754354Y-46419853D01*
X170606784Y-46518456D01*
X170442812Y-46586376D01*
X170293512Y-46616073D01*
X170268742Y-46621000D01*
X170091258Y-46621000D01*
X170066488Y-46616073D01*
X169917188Y-46586376D01*
X169753216Y-46518456D01*
X169605646Y-46419853D01*
X169480147Y-46294354D01*
X169381544Y-46146784D01*
X169313624Y-45982812D01*
X169279000Y-45808741D01*
X169279000Y-45631259D01*
X169313624Y-45457188D01*
X169381544Y-45293216D01*
X169480147Y-45145646D01*
X169605646Y-45020147D01*
X169753216Y-44921544D01*
X169917188Y-44853624D01*
X170066488Y-44823927D01*
X170091258Y-44819000D01*
X170268742Y-44819000D01*
X170293512Y-44823927D01*
G37*
G36*
X167753512Y-44823927D02*
G01*
X167902812Y-44853624D01*
X168066784Y-44921544D01*
X168214354Y-45020147D01*
X168339853Y-45145646D01*
X168438456Y-45293216D01*
X168506376Y-45457188D01*
X168541000Y-45631259D01*
X168541000Y-45808741D01*
X168506376Y-45982812D01*
X168438456Y-46146784D01*
X168339853Y-46294354D01*
X168214354Y-46419853D01*
X168066784Y-46518456D01*
X167902812Y-46586376D01*
X167753512Y-46616073D01*
X167728742Y-46621000D01*
X167551258Y-46621000D01*
X167526488Y-46616073D01*
X167377188Y-46586376D01*
X167213216Y-46518456D01*
X167065646Y-46419853D01*
X166940147Y-46294354D01*
X166841544Y-46146784D01*
X166773624Y-45982812D01*
X166739000Y-45808741D01*
X166739000Y-45631259D01*
X166773624Y-45457188D01*
X166841544Y-45293216D01*
X166940147Y-45145646D01*
X167065646Y-45020147D01*
X167213216Y-44921544D01*
X167377188Y-44853624D01*
X167526488Y-44823927D01*
X167551258Y-44819000D01*
X167728742Y-44819000D01*
X167753512Y-44823927D01*
G37*
G36*
X159701000Y-45655000D02*
G01*
X157799000Y-45655000D01*
X157799000Y-43753000D01*
X159701000Y-43753000D01*
X159701000Y-45655000D01*
G37*
G36*
X161567395Y-43789546D02*
G01*
X161740466Y-43861234D01*
X161768331Y-43879853D01*
X161896227Y-43965310D01*
X162028690Y-44097773D01*
X162071284Y-44161520D01*
X162132766Y-44253534D01*
X162204454Y-44426605D01*
X162241000Y-44610333D01*
X162241000Y-44797667D01*
X162204454Y-44981395D01*
X162132766Y-45154466D01*
X162132765Y-45154467D01*
X162028690Y-45310227D01*
X161896227Y-45442690D01*
X161873092Y-45458148D01*
X161740466Y-45546766D01*
X161567395Y-45618454D01*
X161383667Y-45655000D01*
X161196333Y-45655000D01*
X161012605Y-45618454D01*
X160839534Y-45546766D01*
X160706908Y-45458148D01*
X160683773Y-45442690D01*
X160551310Y-45310227D01*
X160447235Y-45154467D01*
X160447234Y-45154466D01*
X160375546Y-44981395D01*
X160339000Y-44797667D01*
X160339000Y-44610333D01*
X160375546Y-44426605D01*
X160447234Y-44253534D01*
X160508716Y-44161520D01*
X160551310Y-44097773D01*
X160683773Y-43965310D01*
X160811669Y-43879853D01*
X160839534Y-43861234D01*
X161012605Y-43789546D01*
X161196333Y-43753000D01*
X161383667Y-43753000D01*
X161567395Y-43789546D01*
G37*
G36*
X146552228Y-43885703D02*
G01*
X146707100Y-43949853D01*
X146846481Y-44042985D01*
X146965015Y-44161519D01*
X147058147Y-44300900D01*
X147122297Y-44455772D01*
X147155000Y-44620184D01*
X147155000Y-44787816D01*
X147122297Y-44952228D01*
X147058147Y-45107100D01*
X146965015Y-45246481D01*
X146846481Y-45365015D01*
X146707100Y-45458147D01*
X146552228Y-45522297D01*
X146387816Y-45555000D01*
X146220184Y-45555000D01*
X146055772Y-45522297D01*
X145900900Y-45458147D01*
X145761519Y-45365015D01*
X145642985Y-45246481D01*
X145549853Y-45107100D01*
X145485703Y-44952228D01*
X145453000Y-44787816D01*
X145453000Y-44620184D01*
X145485703Y-44455772D01*
X145549853Y-44300900D01*
X145642985Y-44161519D01*
X145761519Y-44042985D01*
X145900900Y-43949853D01*
X146055772Y-43885703D01*
X146220184Y-43853000D01*
X146387816Y-43853000D01*
X146552228Y-43885703D01*
G37*
G36*
X138932228Y-43885703D02*
G01*
X139087100Y-43949853D01*
X139226481Y-44042985D01*
X139345015Y-44161519D01*
X139438147Y-44300900D01*
X139502297Y-44455772D01*
X139535000Y-44620184D01*
X139535000Y-44787816D01*
X139502297Y-44952228D01*
X139438147Y-45107100D01*
X139345015Y-45246481D01*
X139226481Y-45365015D01*
X139087100Y-45458147D01*
X138932228Y-45522297D01*
X138767816Y-45555000D01*
X138600184Y-45555000D01*
X138435772Y-45522297D01*
X138280900Y-45458147D01*
X138141519Y-45365015D01*
X138022985Y-45246481D01*
X137929853Y-45107100D01*
X137865703Y-44952228D01*
X137833000Y-44787816D01*
X137833000Y-44620184D01*
X137865703Y-44455772D01*
X137929853Y-44300900D01*
X138022985Y-44161519D01*
X138141519Y-44042985D01*
X138280900Y-43949853D01*
X138435772Y-43885703D01*
X138600184Y-43853000D01*
X138767816Y-43853000D01*
X138932228Y-43885703D01*
G37*
G36*
X153021512Y-43299927D02*
G01*
X153170812Y-43329624D01*
X153334784Y-43397544D01*
X153482354Y-43496147D01*
X153607853Y-43621646D01*
X153706456Y-43769216D01*
X153774376Y-43933188D01*
X153809000Y-44107259D01*
X153809000Y-44284741D01*
X153774376Y-44458812D01*
X153706456Y-44622784D01*
X153607853Y-44770354D01*
X153482354Y-44895853D01*
X153334784Y-44994456D01*
X153170812Y-45062376D01*
X153021512Y-45092073D01*
X152996742Y-45097000D01*
X152819258Y-45097000D01*
X152794488Y-45092073D01*
X152645188Y-45062376D01*
X152481216Y-44994456D01*
X152333646Y-44895853D01*
X152208147Y-44770354D01*
X152109544Y-44622784D01*
X152041624Y-44458812D01*
X152007000Y-44284741D01*
X152007000Y-44107259D01*
X152041624Y-43933188D01*
X152109544Y-43769216D01*
X152208147Y-43621646D01*
X152333646Y-43496147D01*
X152481216Y-43397544D01*
X152645188Y-43329624D01*
X152794488Y-43299927D01*
X152819258Y-43295000D01*
X152996742Y-43295000D01*
X153021512Y-43299927D01*
G37*
G36*
X151269000Y-45097000D02*
G01*
X149467000Y-45097000D01*
X149467000Y-43295000D01*
X151269000Y-43295000D01*
X151269000Y-45097000D01*
G37*
G36*
X170293512Y-42283927D02*
G01*
X170442812Y-42313624D01*
X170606784Y-42381544D01*
X170754354Y-42480147D01*
X170879853Y-42605646D01*
X170978456Y-42753216D01*
X171046376Y-42917188D01*
X171081000Y-43091259D01*
X171081000Y-43268741D01*
X171046376Y-43442812D01*
X170978456Y-43606784D01*
X170879853Y-43754354D01*
X170754354Y-43879853D01*
X170606784Y-43978456D01*
X170442812Y-44046376D01*
X170293512Y-44076073D01*
X170268742Y-44081000D01*
X170091258Y-44081000D01*
X170066488Y-44076073D01*
X169917188Y-44046376D01*
X169753216Y-43978456D01*
X169605646Y-43879853D01*
X169480147Y-43754354D01*
X169381544Y-43606784D01*
X169313624Y-43442812D01*
X169279000Y-43268741D01*
X169279000Y-43091259D01*
X169313624Y-42917188D01*
X169381544Y-42753216D01*
X169480147Y-42605646D01*
X169605646Y-42480147D01*
X169753216Y-42381544D01*
X169917188Y-42313624D01*
X170066488Y-42283927D01*
X170091258Y-42279000D01*
X170268742Y-42279000D01*
X170293512Y-42283927D01*
G37*
G36*
X167753512Y-42283927D02*
G01*
X167902812Y-42313624D01*
X168066784Y-42381544D01*
X168214354Y-42480147D01*
X168339853Y-42605646D01*
X168438456Y-42753216D01*
X168506376Y-42917188D01*
X168541000Y-43091259D01*
X168541000Y-43268741D01*
X168506376Y-43442812D01*
X168438456Y-43606784D01*
X168339853Y-43754354D01*
X168214354Y-43879853D01*
X168066784Y-43978456D01*
X167902812Y-44046376D01*
X167753512Y-44076073D01*
X167728742Y-44081000D01*
X167551258Y-44081000D01*
X167526488Y-44076073D01*
X167377188Y-44046376D01*
X167213216Y-43978456D01*
X167065646Y-43879853D01*
X166940147Y-43754354D01*
X166841544Y-43606784D01*
X166773624Y-43442812D01*
X166739000Y-43268741D01*
X166739000Y-43091259D01*
X166773624Y-42917188D01*
X166841544Y-42753216D01*
X166940147Y-42605646D01*
X167065646Y-42480147D01*
X167213216Y-42381544D01*
X167377188Y-42313624D01*
X167526488Y-42283927D01*
X167551258Y-42279000D01*
X167728742Y-42279000D01*
X167753512Y-42283927D01*
G37*
G36*
X138932228Y-41345703D02*
G01*
X139087100Y-41409853D01*
X139226481Y-41502985D01*
X139345015Y-41621519D01*
X139438147Y-41760900D01*
X139502297Y-41915772D01*
X139535000Y-42080184D01*
X139535000Y-42247816D01*
X139502297Y-42412228D01*
X139438147Y-42567100D01*
X139345015Y-42706481D01*
X139226481Y-42825015D01*
X139087100Y-42918147D01*
X138932228Y-42982297D01*
X138767816Y-43015000D01*
X138600184Y-43015000D01*
X138435772Y-42982297D01*
X138280900Y-42918147D01*
X138141519Y-42825015D01*
X138022985Y-42706481D01*
X137929853Y-42567100D01*
X137865703Y-42412228D01*
X137833000Y-42247816D01*
X137833000Y-42080184D01*
X137865703Y-41915772D01*
X137929853Y-41760900D01*
X138022985Y-41621519D01*
X138141519Y-41502985D01*
X138280900Y-41409853D01*
X138435772Y-41345703D01*
X138600184Y-41313000D01*
X138767816Y-41313000D01*
X138932228Y-41345703D01*
G37*
G36*
X146552228Y-41345703D02*
G01*
X146707100Y-41409853D01*
X146846481Y-41502985D01*
X146965015Y-41621519D01*
X147058147Y-41760900D01*
X147122297Y-41915772D01*
X147155000Y-42080184D01*
X147155000Y-42247816D01*
X147122297Y-42412228D01*
X147058147Y-42567100D01*
X146965015Y-42706481D01*
X146846481Y-42825015D01*
X146707100Y-42918147D01*
X146552228Y-42982297D01*
X146387816Y-43015000D01*
X146220184Y-43015000D01*
X146055772Y-42982297D01*
X145900900Y-42918147D01*
X145761519Y-42825015D01*
X145642985Y-42706481D01*
X145549853Y-42567100D01*
X145485703Y-42412228D01*
X145453000Y-42247816D01*
X145453000Y-42080184D01*
X145485703Y-41915772D01*
X145549853Y-41760900D01*
X145642985Y-41621519D01*
X145761519Y-41502985D01*
X145900900Y-41409853D01*
X146055772Y-41345703D01*
X146220184Y-41313000D01*
X146387816Y-41313000D01*
X146552228Y-41345703D01*
G37*
G36*
X107575331Y-39258211D02*
G01*
X107903092Y-39393974D01*
X108198070Y-39591072D01*
X108448928Y-39841930D01*
X108646026Y-40136908D01*
X108781789Y-40464669D01*
X108851000Y-40812616D01*
X108851000Y-41167384D01*
X108781789Y-41515331D01*
X108646026Y-41843092D01*
X108448928Y-42138070D01*
X108198070Y-42388928D01*
X107903092Y-42586026D01*
X107575331Y-42721789D01*
X107227384Y-42791000D01*
X106872616Y-42791000D01*
X106524669Y-42721789D01*
X106196908Y-42586026D01*
X105901930Y-42388928D01*
X105651072Y-42138070D01*
X105453974Y-41843092D01*
X105318211Y-41515331D01*
X105249000Y-41167384D01*
X105249000Y-40812616D01*
X105318211Y-40464669D01*
X105453974Y-40136908D01*
X105651072Y-39841930D01*
X105901930Y-39591072D01*
X106196908Y-39393974D01*
X106524669Y-39258211D01*
X106872616Y-39189000D01*
X107227384Y-39189000D01*
X107575331Y-39258211D01*
G37*
G36*
X170293512Y-39743927D02*
G01*
X170442812Y-39773624D01*
X170606784Y-39841544D01*
X170754354Y-39940147D01*
X170879853Y-40065646D01*
X170978456Y-40213216D01*
X171046376Y-40377188D01*
X171081000Y-40551259D01*
X171081000Y-40728741D01*
X171046376Y-40902812D01*
X170978456Y-41066784D01*
X170879853Y-41214354D01*
X170754354Y-41339853D01*
X170606784Y-41438456D01*
X170442812Y-41506376D01*
X170293512Y-41536073D01*
X170268742Y-41541000D01*
X170091258Y-41541000D01*
X170066488Y-41536073D01*
X169917188Y-41506376D01*
X169753216Y-41438456D01*
X169605646Y-41339853D01*
X169480147Y-41214354D01*
X169381544Y-41066784D01*
X169313624Y-40902812D01*
X169279000Y-40728741D01*
X169279000Y-40551259D01*
X169313624Y-40377188D01*
X169381544Y-40213216D01*
X169480147Y-40065646D01*
X169605646Y-39940147D01*
X169753216Y-39841544D01*
X169917188Y-39773624D01*
X170066488Y-39743927D01*
X170091258Y-39739000D01*
X170268742Y-39739000D01*
X170293512Y-39743927D01*
G37*
G36*
X167753512Y-39743927D02*
G01*
X167902812Y-39773624D01*
X168066784Y-39841544D01*
X168214354Y-39940147D01*
X168339853Y-40065646D01*
X168438456Y-40213216D01*
X168506376Y-40377188D01*
X168541000Y-40551259D01*
X168541000Y-40728741D01*
X168506376Y-40902812D01*
X168438456Y-41066784D01*
X168339853Y-41214354D01*
X168214354Y-41339853D01*
X168066784Y-41438456D01*
X167902812Y-41506376D01*
X167753512Y-41536073D01*
X167728742Y-41541000D01*
X167551258Y-41541000D01*
X167526488Y-41536073D01*
X167377188Y-41506376D01*
X167213216Y-41438456D01*
X167065646Y-41339853D01*
X166940147Y-41214354D01*
X166841544Y-41066784D01*
X166773624Y-40902812D01*
X166739000Y-40728741D01*
X166739000Y-40551259D01*
X166773624Y-40377188D01*
X166841544Y-40213216D01*
X166940147Y-40065646D01*
X167065646Y-39940147D01*
X167213216Y-39841544D01*
X167377188Y-39773624D01*
X167526488Y-39743927D01*
X167551258Y-39739000D01*
X167728742Y-39739000D01*
X167753512Y-39743927D01*
G37*
G36*
X146552228Y-38805703D02*
G01*
X146707100Y-38869853D01*
X146846481Y-38962985D01*
X146965015Y-39081519D01*
X147058147Y-39220900D01*
X147122297Y-39375772D01*
X147155000Y-39540184D01*
X147155000Y-39707816D01*
X147122297Y-39872228D01*
X147058147Y-40027100D01*
X146965015Y-40166481D01*
X146846481Y-40285015D01*
X146707100Y-40378147D01*
X146552228Y-40442297D01*
X146387816Y-40475000D01*
X146220184Y-40475000D01*
X146055772Y-40442297D01*
X145900900Y-40378147D01*
X145761519Y-40285015D01*
X145642985Y-40166481D01*
X145549853Y-40027100D01*
X145485703Y-39872228D01*
X145453000Y-39707816D01*
X145453000Y-39540184D01*
X145485703Y-39375772D01*
X145549853Y-39220900D01*
X145642985Y-39081519D01*
X145761519Y-38962985D01*
X145900900Y-38869853D01*
X146055772Y-38805703D01*
X146220184Y-38773000D01*
X146387816Y-38773000D01*
X146552228Y-38805703D01*
G37*
G36*
X138932228Y-38805703D02*
G01*
X139087100Y-38869853D01*
X139226481Y-38962985D01*
X139345015Y-39081519D01*
X139438147Y-39220900D01*
X139502297Y-39375772D01*
X139535000Y-39540184D01*
X139535000Y-39707816D01*
X139502297Y-39872228D01*
X139438147Y-40027100D01*
X139345015Y-40166481D01*
X139226481Y-40285015D01*
X139087100Y-40378147D01*
X138932228Y-40442297D01*
X138767816Y-40475000D01*
X138600184Y-40475000D01*
X138435772Y-40442297D01*
X138280900Y-40378147D01*
X138141519Y-40285015D01*
X138022985Y-40166481D01*
X137929853Y-40027100D01*
X137865703Y-39872228D01*
X137833000Y-39707816D01*
X137833000Y-39540184D01*
X137865703Y-39375772D01*
X137929853Y-39220900D01*
X138022985Y-39081519D01*
X138141519Y-38962985D01*
X138280900Y-38869853D01*
X138435772Y-38805703D01*
X138600184Y-38773000D01*
X138767816Y-38773000D01*
X138932228Y-38805703D01*
G37*
G36*
X161403512Y-37203927D02*
G01*
X161552812Y-37233624D01*
X161716784Y-37301544D01*
X161864354Y-37400147D01*
X161989853Y-37525646D01*
X162088456Y-37673216D01*
X162156376Y-37837188D01*
X162191000Y-38011259D01*
X162191000Y-38188741D01*
X162156376Y-38362812D01*
X162088456Y-38526784D01*
X161989853Y-38674354D01*
X161864354Y-38799853D01*
X161716784Y-38898456D01*
X161552812Y-38966376D01*
X161403512Y-38996073D01*
X161378742Y-39001000D01*
X161201258Y-39001000D01*
X161176488Y-38996073D01*
X161027188Y-38966376D01*
X160863216Y-38898456D01*
X160715646Y-38799853D01*
X160590147Y-38674354D01*
X160491544Y-38526784D01*
X160423624Y-38362812D01*
X160389000Y-38188741D01*
X160389000Y-38011259D01*
X160423624Y-37837188D01*
X160491544Y-37673216D01*
X160590147Y-37525646D01*
X160715646Y-37400147D01*
X160863216Y-37301544D01*
X161027188Y-37233624D01*
X161176488Y-37203927D01*
X161201258Y-37199000D01*
X161378742Y-37199000D01*
X161403512Y-37203927D01*
G37*
G36*
X159651000Y-39001000D02*
G01*
X157849000Y-39001000D01*
X157849000Y-37199000D01*
X159651000Y-37199000D01*
X159651000Y-39001000D01*
G37*
G36*
X170293512Y-37203927D02*
G01*
X170442812Y-37233624D01*
X170606784Y-37301544D01*
X170754354Y-37400147D01*
X170879853Y-37525646D01*
X170978456Y-37673216D01*
X171046376Y-37837188D01*
X171081000Y-38011259D01*
X171081000Y-38188741D01*
X171046376Y-38362812D01*
X170978456Y-38526784D01*
X170879853Y-38674354D01*
X170754354Y-38799853D01*
X170606784Y-38898456D01*
X170442812Y-38966376D01*
X170293512Y-38996073D01*
X170268742Y-39001000D01*
X170091258Y-39001000D01*
X170066488Y-38996073D01*
X169917188Y-38966376D01*
X169753216Y-38898456D01*
X169605646Y-38799853D01*
X169480147Y-38674354D01*
X169381544Y-38526784D01*
X169313624Y-38362812D01*
X169279000Y-38188741D01*
X169279000Y-38011259D01*
X169313624Y-37837188D01*
X169381544Y-37673216D01*
X169480147Y-37525646D01*
X169605646Y-37400147D01*
X169753216Y-37301544D01*
X169917188Y-37233624D01*
X170066488Y-37203927D01*
X170091258Y-37199000D01*
X170268742Y-37199000D01*
X170293512Y-37203927D01*
G37*
G36*
X168541000Y-39001000D02*
G01*
X166739000Y-39001000D01*
X166739000Y-37199000D01*
X168541000Y-37199000D01*
X168541000Y-39001000D01*
G37*
G36*
X131439256Y-35475298D02*
G01*
X131545579Y-35496447D01*
X131846042Y-35620903D01*
X132116451Y-35801585D01*
X132346415Y-36031549D01*
X132527097Y-36301958D01*
X132626327Y-36541519D01*
X132651553Y-36602422D01*
X132715000Y-36921389D01*
X132715000Y-37246611D01*
X132684459Y-37400148D01*
X132651553Y-37565579D01*
X132527097Y-37866042D01*
X132346415Y-38136451D01*
X132116451Y-38366415D01*
X131846042Y-38547097D01*
X131545579Y-38671553D01*
X131531502Y-38674353D01*
X131226611Y-38735000D01*
X130901389Y-38735000D01*
X130596498Y-38674353D01*
X130582421Y-38671553D01*
X130281958Y-38547097D01*
X130011549Y-38366415D01*
X129781585Y-38136451D01*
X129600903Y-37866042D01*
X129476447Y-37565579D01*
X129443541Y-37400148D01*
X129413000Y-37246611D01*
X129413000Y-36921389D01*
X129476447Y-36602422D01*
X129501674Y-36541519D01*
X129600903Y-36301958D01*
X129781585Y-36031549D01*
X130011549Y-35801585D01*
X130281958Y-35620903D01*
X130582421Y-35496447D01*
X130688744Y-35475298D01*
X130901389Y-35433000D01*
X131226611Y-35433000D01*
X131439256Y-35475298D01*
G37*
G36*
X146552228Y-36265703D02*
G01*
X146707100Y-36329853D01*
X146846481Y-36422985D01*
X146965015Y-36541519D01*
X147058147Y-36680900D01*
X147122297Y-36835772D01*
X147155000Y-37000184D01*
X147155000Y-37167816D01*
X147122297Y-37332228D01*
X147058147Y-37487100D01*
X146965015Y-37626481D01*
X146846481Y-37745015D01*
X146707100Y-37838147D01*
X146552228Y-37902297D01*
X146387816Y-37935000D01*
X146220184Y-37935000D01*
X146055772Y-37902297D01*
X145900900Y-37838147D01*
X145761519Y-37745015D01*
X145642985Y-37626481D01*
X145549853Y-37487100D01*
X145485703Y-37332228D01*
X145453000Y-37167816D01*
X145453000Y-37000184D01*
X145485703Y-36835772D01*
X145549853Y-36680900D01*
X145642985Y-36541519D01*
X145761519Y-36422985D01*
X145900900Y-36329853D01*
X146055772Y-36265703D01*
X146220184Y-36233000D01*
X146387816Y-36233000D01*
X146552228Y-36265703D01*
G37*
G36*
X139535000Y-37935000D02*
G01*
X137833000Y-37935000D01*
X137833000Y-36233000D01*
X139535000Y-36233000D01*
X139535000Y-37935000D01*
G37*
M02*
